 <svg  version="1.0" xmlns="http://www.w3.org/2000/svg"  width="1107.000000pt" height="1107.000000pt" viewBox="0 0 1107.000000 1107.000000"  preserveAspectRatio="xMidYMid meet">  <g transform="translate(0.000000,1107.000000) scale(0.100000,-0.100000)" fill="#a8baf0" stroke="none"> <path d="M5124 10385 c-5 -12 -24 -15 -97 -15 -66 0 -95 -4 -107 -15 -10 -9 -40 -15 -83 -16 -45 -1 -67 -6 -71 -15 -4 -10 -25 -14 -76 -14 -54 0 -72 -4 -76 -15 -5 -11 -21 -15 -60 -15 -39 0 -56 -4 -60 -15 -4 -10 -20 -15 -45 -15 -26 0 -42 -5 -45 -15 -4 -10 -20 -15 -44 -15 -24 0 -40 -5 -44 -15 -3 -10 -19 -15 -46 -15 -27 0 -43 -5 -46 -15 -4 -8 -16 -15 -29 -15 -13 0 -25 -7 -29 -15 -3 -10 -19 -15 -46 -15 -27 0 -43 -5 -46 -15 -4 -8 -17 -15 -30 -15 -14 0 -27 -7 -30 -15 -4 -8 -16 -15 -29 -15 -13 0 -25 -7 -29 -15 -3 -8 -17 -15 -31 -15 -14 0 -28 -7 -31 -15 -4 -8 -17 -15 -30 -15 -14 0 -27 -7 -30 -15 -4 -8 -14 -15 -24 -15 -10 0 -23 -7 -30 -15 -7 -8 -23 -15 -35 -15 -13 0 -25 -7 -29 -15 -3 -8 -16 -15 -28 -15 -13 0 -35 -12 -48 -27 -14 -16 -43 -37 -64 -48 -21 -11 -41 -25 -43 -32 -3 -7 -15 -13 -27 -13 -12 0 -33 -13 -46 -30 -14 -16 -32 -29 -41 -30 -9 0 -37 -20 -63 -45 -27 -25 -55 -45 -63 -45 -9 0 -49 -34 -90 -75 -40 -41 -82 -75 -92 -75 -10 0 -26 -11 -35 -25 -9 -13 -39 -46 -68 -72 -71 -66 -148 -148 -178 -191 -14 -19 -45 -56 -70 -82 -55 -56 -100 -111 -100 -122 0 -5 -12 -20 -27 -34 -24 -22 -40 -44 -59 -83 -4 -7 -17 -24 -30 -38 -13 -14 -26 -34 -30 -45 -3 -11 -15 -29 -26 -40 -11 -11 -26 -34 -33 -52 -8 -18 -21 -39 -30 -46 -9 -8 -30 -42 -47 -77 -16 -34 -33 -65 -39 -68 -5 -4 -9 -14 -9 -25 0 -10 -7 -20 -15 -24 -8 -3 -15 -16 -15 -30 0 -13 -7 -26 -15 -30 -8 -3 -15 -17 -15 -31 0 -14 -7 -28 -15 -31 -8 -4 -15 -16 -15 -29 0 -12 -7 -28 -15 -35 -8 -7 -15 -23 -15 -36 0 -13 -4 -24 -8 -24 -10 0 -38 -64 -47 -107 -3 -17 -13 -37 -21 -44 -8 -6 -14 -26 -14 -44 0 -18 -7 -38 -15 -45 -8 -7 -15 -27 -15 -45 0 -18 -7 -38 -15 -45 -8 -7 -15 -27 -15 -44 0 -17 -7 -40 -15 -50 -8 -11 -15 -39 -15 -62 0 -25 -6 -47 -15 -54 -9 -8 -15 -30 -15 -60 0 -30 -5 -50 -13 -53 -9 -3 -14 -27 -15 -73 -1 -37 -7 -73 -14 -81 -7 -8 -14 -62 -16 -126 -3 -68 -10 -120 -18 -132 -19 -29 -18 -641 1 -671 8 -13 15 -63 17 -133 3 -67 9 -116 16 -123 7 -7 12 -37 12 -68 0 -34 6 -64 15 -76 9 -12 14 -44 15 -91 l0 -73 30 0 c17 0 30 5 30 11 0 15 1778 1787 1801 1794 10 4 22 17 25 31 4 13 14 24 23 24 22 0 41 19 41 41 0 12 9 19 28 21 21 2 28 9 30 30 3 21 9 27 30 30 21 2 28 9 30 31 2 15 9 27 15 27 11 0 267 243 440 417 32 32 132 132 224 223 390 387 676 677 690 698 20 29 37 28 59 -5 20 -31 352 -362 512 -511 56 -52 102 -99 102 -103 0 -16 204 -209 220 -209 5 0 1049 -1029 1175 -1159 11 -11 125 -125 254 -253 365 -363 504 -502 662 -664 81 -82 162 -163 180 -179 47 -42 241 -245 261 -273 11 -16 24 -23 40 -20 22 3 23 7 26 88 2 56 8 90 18 101 9 10 14 37 14 76 0 40 4 63 13 66 9 3 14 37 16 118 2 92 6 115 19 126 16 12 16 14 -1 24 -16 10 -17 13 -4 27 22 25 22 519 0 544 -13 14 -12 17 4 27 17 10 17 12 1 24 -13 11 -17 34 -19 126 -2 81 -7 115 -16 118 -9 4 -13 26 -13 68 0 41 -5 67 -14 74 -7 6 -16 37 -19 69 -2 33 -10 67 -15 78 -6 10 -14 40 -17 66 -3 26 -10 50 -16 53 -5 4 -9 21 -9 40 0 18 -7 40 -15 49 -8 8 -15 25 -15 38 0 13 -7 36 -15 52 -8 15 -15 36 -15 46 0 10 -7 20 -15 24 -9 3 -15 18 -15 39 0 19 -7 40 -15 47 -8 7 -15 25 -15 41 0 15 -4 30 -9 33 -5 4 -19 27 -31 54 -11 26 -28 60 -35 75 -8 16 -15 34 -15 42 0 7 -7 18 -15 25 -8 7 -15 18 -15 26 0 7 -13 32 -29 56 -15 24 -31 55 -34 69 -4 14 -18 38 -32 53 -14 15 -25 33 -25 41 0 8 -5 17 -10 20 -6 4 -17 21 -24 40 -8 18 -23 42 -33 52 -10 11 -35 45 -57 76 -21 31 -42 57 -47 57 -5 0 -9 8 -9 18 0 11 -20 40 -44 66 -25 26 -48 56 -51 66 -3 10 -37 51 -76 91 -38 39 -69 75 -69 80 0 16 -43 69 -55 69 -7 0 -36 28 -66 61 -72 82 -111 119 -125 119 -6 0 -51 38 -99 85 -48 46 -97 87 -108 91 -11 3 -33 19 -48 35 -16 16 -35 29 -43 29 -7 0 -35 20 -62 45 -26 25 -54 45 -63 45 -9 1 -27 14 -41 30 -14 18 -34 30 -47 30 -13 0 -26 7 -29 15 -4 8 -16 15 -29 15 -13 0 -25 6 -28 13 -2 7 -22 21 -43 32 -22 11 -43 26 -47 33 -4 6 -18 12 -31 12 -13 0 -29 7 -36 15 -7 8 -20 15 -30 15 -10 0 -20 7 -24 15 -3 8 -16 15 -30 15 -13 0 -26 7 -30 15 -3 8 -16 15 -29 15 -14 0 -30 7 -37 15 -7 8 -20 15 -30 15 -10 0 -23 7 -30 15 -7 8 -27 15 -45 15 -18 0 -38 7 -45 15 -7 8 -21 15 -32 15 -10 0 -21 7 -24 15 -4 10 -20 15 -45 15 -26 0 -42 5 -45 15 -4 10 -20 15 -44 15 -21 0 -43 7 -50 15 -7 8 -27 15 -45 15 -18 0 -38 7 -45 15 -8 10 -30 15 -62 15 -31 0 -50 5 -54 13 -3 9 -27 14 -72 15 -47 2 -69 6 -75 17 -6 11 -28 15 -91 15 -65 0 -85 3 -90 15 -4 12 -24 15 -87 15 -66 0 -84 3 -94 17 -11 15 -15 15 -29 4 -11 -9 -20 -10 -28 -3 -17 13 -549 14 -565 1 -8 -7 -19 -7 -33 1 -16 9 -21 8 -26 -5z m866 -129 c340 -59 498 -102 762 -207 392 -157 776 -407 1126 -734 119 -110 392 -447 476 -585 15 -25 47 -76 72 -115 64 -101 194 -362 244 -490 23 -60 54 -139 68 -175 22 -57 52 -157 81 -270 33 -126 68 -330 91 -540 14 -124 9 -558 -9 -729 -18 -170 -45 -261 -78 -261 -9 0 -266 249 -571 553 -1046 1040 -1561 1549 -1942 1918 -151 146 -372 362 -490 479 -211 208 -311 290 -355 290 -57 0 -162 -96 -805 -735 -360 -358 -711 -705 -780 -770 -69 -66 -492 -484 -940 -928 -891 -884 -850 -848 -878 -762 -34 103 -55 344 -56 625 -1 327 21 540 79 770 7 30 21 84 30 120 31 122 118 380 158 470 131 292 282 548 449 762 145 186 193 240 320 363 365 352 692 566 1143 746 244 98 387 139 680 193 275 50 332 55 630 52 271 -3 287 -4 495 -40z"/> <path d="M5452 8178 c-15 -18 -89 -96 -165 -173 -129 -130 -136 -140 -111 -143 14 -2 31 1 37 7 7 7 104 11 289 11 153 0 278 3 278 8 0 4 -59 67 -130 140 -71 73 -131 141 -135 151 -10 34 -35 33 -63 -1z"/> <path d="M5807 7873 c-4 -3 0 -14 9 -24 9 -10 13 -23 9 -29 -4 -7 -117 -10 -363 -10 l-357 1 -140 -143 c-77 -79 -184 -190 -239 -248 -54 -58 -123 -131 -152 -162 l-54 -57 0 -335 0 -336 943 2 942 3 3 335 c1 184 5 342 8 350 4 11 9 8 20 -13 34 -64 39 -31 42 301 l2 321 -24 25 -23 26 -310 0 c-170 0 -313 -3 -316 -7z m581 -69 l22 -4 0 -229 c0 -125 3 -249 6 -274 6 -38 4 -48 -10 -53 -13 -5 -27 4 -49 32 -40 48 -45 54 -225 244 -81 85 -177 184 -214 221 -37 36 -65 68 -62 71 6 7 498 -1 532 -8z m-585 -105 c30 -14 478 -483 494 -517 8 -19 12 -103 13 -269 0 -230 -1 -244 -20 -263 -20 -20 -33 -20 -829 -20 -897 0 -834 -5 -847 66 -12 62 1 436 16 464 7 14 63 77 124 140 61 63 165 173 231 244 76 81 135 135 160 147 36 17 69 19 337 19 192 0 305 -4 321 -11z"/> <path d="M4477 7842 l-27 -28 0 -316 c0 -174 4 -319 8 -322 11 -7 24 4 41 34 18 32 26 317 13 480 -5 63 -8 116 -7 117 0 1 113 3 250 4 314 2 329 4 344 35 l11 24 -303 0 -303 0 -27 -28z"/> <path d="M6479 7139 c-3 -8 -2 -144 1 -304 3 -159 2 -304 -3 -321 -16 -65 -19 -66 -415 -63 l-357 3 -8 -71 c-7 -67 -6 -71 20 -102 53 -61 88 -96 112 -112 21 -13 22 -18 12 -38 -9 -15 -18 -20 -29 -16 -56 23 -575 29 -689 9 -30 -6 -33 -4 -33 20 0 14 4 26 10 26 5 0 33 23 61 50 28 28 55 50 59 50 14 0 19 52 12 119 l-7 65 -361 -3 -361 -3 -29 25 -29 25 -3 199 c-2 109 1 248 6 308 6 61 6 114 1 119 -4 5 -22 -7 -41 -28 -18 -21 -66 -72 -106 -114 -41 -42 -138 -147 -217 -232 -78 -85 -179 -192 -223 -237 -45 -45 -112 -117 -149 -160 -101 -117 -255 -277 -327 -340 -24 -21 -36 -40 -36 -58 l0 -26 563 3 c427 2 568 6 579 15 11 10 17 10 26 1 17 -17 15 -38 -8 -81 -11 -20 -20 -50 -20 -66 0 -16 -7 -34 -15 -41 -8 -7 -15 -21 -15 -32 0 -10 -7 -30 -16 -43 -8 -13 -14 -34 -12 -47 l3 -23 1000 -5 c550 -3 1014 -3 1030 0 36 7 45 38 21 72 -9 12 -16 32 -16 44 0 12 -7 27 -15 34 -8 7 -15 24 -15 39 0 15 -9 44 -20 66 -22 43 -24 63 -11 84 8 13 12 13 27 0 14 -12 109 -14 581 -17 l563 -3 0 30 c0 17 -3 31 -8 31 -10 0 -161 150 -247 246 -38 43 -85 92 -102 109 -18 17 -33 35 -33 38 0 4 -42 50 -92 101 -95 96 -197 206 -265 286 -21 25 -65 72 -98 106 -90 90 -198 206 -227 243 -16 22 -27 28 -29 20z m219 -381 c69 -72 396 -426 521 -563 76 -85 99 -124 79 -136 -7 -5 -186 -9 -398 -9 -228 0 -403 -5 -430 -11 -57 -13 -100 -46 -140 -108 -34 -52 -53 -57 -85 -22 -13 15 -14 25 -4 69 l12 51 -42 50 c-49 59 -82 71 -189 71 -70 0 -75 2 -102 32 -37 40 -72 113 -68 142 3 21 6 21 283 26 317 7 314 6 384 87 50 59 61 105 61 262 0 65 3 121 7 124 18 18 47 1 111 -65z m-2354 46 c3 -9 6 -70 6 -137 0 -142 7 -172 52 -228 64 -80 77 -83 385 -87 294 -4 302 -6 289 -58 -4 -14 -24 -44 -45 -67 -39 -41 -39 -41 -146 -53 l-107 -12 -49 -48 c-59 -58 -68 -91 -40 -140 27 -45 26 -60 -4 -89 -27 -28 -65 -33 -65 -10 0 30 -39 93 -76 124 -21 17 -59 35 -86 41 -29 6 -204 10 -431 10 -222 0 -388 4 -397 10 -30 19 10 66 434 515 104 110 201 210 215 222 30 27 56 29 65 7z m1221 -777 l0 -49 -402 -1 c-327 -2 -404 0 -408 11 -7 19 -6 77 1 85 4 3 187 5 408 4 l401 -2 0 -48z m613 -8 c4 -52 -9 -58 -108 -50 -110 9 -337 8 -372 -3 -22 -6 -28 -4 -38 14 -6 12 -9 33 -6 46 l6 24 203 3 c111 1 227 3 257 2 l55 0 3 -36z m-1385 -146 c16 -9 5 -32 -23 -47 -27 -13 -32 -13 -45 0 -41 41 12 78 68 47z m190 -5 c6 -18 -11 -48 -26 -48 -24 0 -50 26 -44 44 8 19 63 22 70 4z m207 -12 c0 -37 -21 -48 -49 -25 -30 25 -21 49 19 49 25 0 30 -4 30 -24z m210 -5 c0 -39 -11 -44 -49 -25 -49 25 -41 54 16 54 30 0 33 -3 33 -29z m210 -5 c0 -44 -11 -50 -49 -29 -20 12 -31 26 -31 41 0 19 5 22 40 22 39 0 40 -1 40 -34z m208 2 c-3 -30 -6 -33 -38 -33 -32 0 -35 3 -38 33 -3 31 -3 32 38 32 41 0 41 -1 38 -32z m212 10 c0 -36 -15 -50 -46 -46 -25 2 -29 8 -32 36 -3 31 -2 32 37 32 36 0 41 -3 41 -22z m210 -3 c0 -14 -4 -25 -9 -25 -5 0 -17 -7 -26 -16 -24 -24 -45 -10 -45 31 0 34 1 35 40 35 36 0 40 -2 40 -25z m-1560 -105 c0 -39 -1 -40 -35 -40 -45 0 -55 22 -24 55 37 39 59 33 59 -15z m819 21 c35 -27 25 -56 -19 -56 -29 0 -36 4 -38 23 -8 52 15 65 57 33z m206 -7 c9 -14 14 -32 11 -40 -9 -22 -86 -16 -86 7 0 17 32 59 45 59 7 0 20 -12 30 -26z m200 -14 c0 -33 -2 -35 -35 -35 -29 0 -36 4 -38 23 -5 32 16 54 47 50 22 -3 26 -8 26 -38z m199 21 c28 -31 17 -55 -27 -59 -36 -3 -37 -2 -37 31 0 18 3 37 7 40 12 13 40 7 57 -12z m205 -6 c31 -33 21 -55 -24 -55 -41 0 -50 14 -36 53 13 33 29 34 60 2z m-1159 1 c107 1 205 5 217 9 18 6 23 3 29 -20 4 -14 2 -31 -3 -36 -5 -5 -131 -8 -309 -7 -279 3 -299 4 -302 21 -8 42 2 47 90 39 46 -4 171 -6 278 -6z"/> <path d="M5445 5405 c-59 -13 -192 -34 -270 -41 -22 -3 -80 -11 -130 -19 -198 -31 -233 -37 -305 -45 -41 -4 -102 -13 -135 -19 -119 -20 -201 -32 -285 -41 -47 -5 -101 -14 -120 -20 -19 -5 -52 -10 -72 -10 -21 0 -73 -6 -115 -14 -106 -20 -224 -37 -308 -46 -38 -4 -101 -13 -140 -19 -190 -30 -292 -41 -383 -41 -104 0 -132 -11 -118 -45 4 -12 25 -15 103 -15 54 -1 132 -5 173 -11 41 -6 118 -14 170 -19 52 -5 104 -11 115 -15 11 -3 65 -10 120 -15 159 -14 296 -30 350 -41 28 -6 93 -14 145 -19 136 -13 276 -29 345 -41 33 -5 103 -14 155 -19 93 -9 152 -16 375 -45 448 -57 413 -57 860 0 212 28 281 36 375 45 52 5 118 14 145 19 53 10 188 26 350 41 55 5 116 14 135 19 19 6 77 13 129 16 52 3 102 10 112 15 10 6 46 10 81 11 35 0 86 5 113 10 28 5 95 14 150 19 55 5 134 14 175 19 41 6 119 10 173 10 78 1 99 4 103 16 13 34 -15 45 -113 45 -86 0 -187 11 -378 41 -38 6 -104 15 -145 19 -41 5 -106 14 -145 20 -38 6 -110 17 -160 25 -49 7 -124 19 -165 25 -41 7 -104 16 -140 20 -87 10 -211 28 -285 42 -33 6 -91 14 -130 19 -67 7 -100 12 -300 44 -49 8 -108 16 -130 19 -78 7 -211 28 -276 42 -80 17 -124 17 -204 -1z m290 -111 c55 -8 128 -19 162 -25 34 -5 201 -30 370 -55 169 -25 346 -52 393 -59 47 -8 126 -20 175 -25 82 -10 248 -46 268 -57 5 -3 5 -9 0 -14 -12 -12 -217 -50 -353 -64 -52 -5 -138 -16 -405 -50 -60 -7 -173 -21 -250 -30 -77 -8 -187 -22 -245 -30 -261 -36 -318 -37 -520 -11 -266 34 -366 46 -462 55 -53 5 -101 11 -106 15 -5 3 -56 10 -113 16 -262 24 -493 56 -637 88 -70 15 -23 37 133 62 39 6 153 24 255 41 102 17 214 34 250 39 78 10 194 27 270 40 69 11 543 78 590 83 45 4 100 0 225 -19z"/> <path d="M5430 4629 c-25 -5 -90 -13 -145 -18 -55 -5 -134 -13 -175 -19 -41 -6 -138 -18 -215 -27 -77 -9 -174 -20 -215 -26 -41 -5 -123 -14 -182 -19 -59 -5 -126 -14 -150 -20 -24 -5 -68 -10 -98 -10 -30 0 -82 -5 -115 -11 -33 -5 -112 -14 -175 -19 -314 -25 -386 -32 -395 -41 -14 -14 13 -29 55 -29 19 0 62 -2 95 -5 406 -28 533 -39 715 -61 69 -8 143 -14 165 -14 22 0 99 -6 170 -14 187 -22 430 -46 500 -50 33 -2 108 -9 167 -17 87 -10 125 -10 210 0 56 7 153 17 213 21 61 4 151 12 200 18 50 7 164 18 255 27 91 8 206 20 255 26 50 6 152 14 229 20 76 5 142 11 146 14 5 3 86 10 182 16 391 25 373 23 376 41 3 14 -10 17 -85 22 -48 4 -124 11 -168 16 -44 6 -105 10 -136 10 -31 0 -81 5 -110 10 -30 6 -101 15 -159 20 -125 10 -259 26 -392 46 -53 8 -121 14 -150 14 -29 0 -69 5 -89 10 -20 6 -83 15 -140 20 -183 17 -302 30 -363 41 -86 15 -224 19 -276 8z m300 -107 c85 -9 241 -30 474 -63 43 -7 97 -17 119 -24 38 -11 39 -13 21 -23 -24 -12 -117 -27 -264 -42 -58 -6 -154 -18 -215 -26 -60 -8 -171 -17 -245 -20 -134 -6 -196 -2 -552 36 -165 17 -226 26 -340 47 -34 6 -36 21 -5 27 12 2 47 9 77 15 30 6 116 18 190 26 74 9 173 23 220 30 47 8 114 15 150 15 36 0 72 5 80 10 16 11 140 8 290 -8z"/> <path d="M5500 4073 c-14 -2 -63 -10 -110 -18 -47 -7 -128 -21 -180 -29 -52 -8 -138 -22 -190 -30 -207 -33 -318 -47 -390 -49 -73 -2 -75 -3 -75 -27 0 -24 2 -25 80 -27 78 -2 234 -19 445 -48 58 -8 125 -16 150 -18 48 -4 170 -22 262 -38 36 -6 71 -6 100 0 47 11 170 28 288 41 41 4 107 13 145 19 181 27 318 41 403 41 73 0 94 3 98 15 12 31 -15 45 -90 45 -39 0 -118 7 -176 15 -189 29 -294 46 -375 61 -44 8 -92 14 -107 14 -14 0 -53 6 -85 14 -65 16 -155 25 -193 19z m148 -117 c70 -15 83 -23 62 -36 -18 -11 -126 -30 -170 -30 -44 0 -152 19 -170 30 -21 13 -8 21 57 35 77 17 144 17 221 1z"/> <path d="M2087 2363 c-3 -5 -3 -85 0 -180 6 -165 7 -173 30 -195 21 -19 33 -22 104 -19 76 2 82 0 118 -29 62 -48 136 -37 186 29 15 20 20 40 19 88 -2 92 -43 136 -124 136 -75 0 -115 -39 -128 -125 -7 -45 -11 -53 -27 -50 -11 1 -38 3 -60 4 -66 1 -67 3 -64 175 3 127 1 156 -11 163 -18 12 -37 13 -43 3z m380 -239 c22 -23 25 -32 21 -80 -6 -66 -16 -79 -69 -79 -52 0 -69 22 -69 87 0 39 5 54 25 73 31 32 59 32 92 -1z"/> <path d="M2995 2358 c-3 -7 -6 -85 -7 -173 l-3 -160 -45 -2 c-25 -1 -56 -3 -70 -5 -25 -3 -25 -2 -30 84 -4 77 -8 91 -31 114 -79 79 -209 7 -209 -116 0 -28 9 -50 33 -82 31 -41 36 -43 90 -46 70 -4 76 -22 16 -52 -42 -22 -47 -43 -11 -48 31 -5 59 14 88 59 l25 40 202 -2 c188 -2 205 0 241 19 29 16 44 19 58 11 10 -5 18 -14 18 -19 0 -6 49 -10 119 -10 119 0 120 0 153 -30 45 -42 99 -42 151 1 32 27 44 30 94 29 112 -3 116 -2 141 33 21 31 22 44 22 194 0 134 -3 162 -15 167 -41 15 -44 1 -47 -172 l-3 -167 -35 -1 c-19 0 -48 -4 -64 -8 -36 -9 -46 4 -46 64 -1 57 -32 98 -83 110 -98 22 -167 -39 -167 -146 0 -23 -12 -30 -35 -23 -5 1 -45 1 -88 0 -65 -2 -78 0 -84 14 -4 12 5 27 29 49 39 34 82 101 74 114 -2 4 -26 18 -52 31 -69 35 -179 29 -236 -11 -40 -28 -35 -53 15 -85 52 -34 89 -72 84 -86 -6 -19 -68 -29 -140 -24 -37 2 -70 0 -73 -4 -18 -29 -24 10 -26 169 -3 175 -3 177 -26 180 -12 2 -24 -3 -27 -10z m385 -161 c37 -18 35 -40 -5 -81 l-36 -37 -49 43 c-73 64 -66 83 30 86 19 1 46 -4 60 -11z m-615 -11 c16 -11 20 -30 23 -90 3 -59 1 -76 -9 -78 -85 -9 -119 16 -119 88 0 76 54 117 105 80z m986 -55 c20 -16 24 -28 24 -76 0 -48 -4 -60 -25 -77 -17 -14 -33 -18 -55 -14 -41 8 -55 31 -55 88 0 81 58 122 111 79z"/> <path d="M4113 2363 c-10 -3 -13 -53 -13 -198 0 -175 2 -193 18 -197 41 -11 42 -4 42 197 0 167 -2 194 -16 199 -9 3 -16 6 -17 5 -1 0 -8 -3 -14 -6z"/> <path d="M4957 2363 c-18 -5 -18 -15 -12 -168 7 -161 7 -163 -14 -175 -17 -9 -26 -9 -37 1 -8 7 -27 9 -45 5 -58 -11 -92 21 -108 105 -8 39 -20 64 -40 84 -29 27 -30 27 -173 29 -131 1 -145 -1 -163 -19 -49 -50 -54 -66 -56 -209 -2 -146 3 -166 40 -147 20 11 21 18 19 146 -3 129 -2 134 21 159 20 21 34 26 74 26 43 0 48 -2 41 -17 -4 -10 -10 -45 -12 -78 -3 -58 -2 -62 33 -97 57 -57 125 -59 174 -6 16 16 25 20 35 13 63 -46 41 -44 410 -46 l348 -1 23 23 c21 22 24 35 27 134 l3 110 -30 0 -30 0 3 -96 c3 -71 0 -98 -10 -106 -7 -6 -41 -13 -75 -15 -71 -5 -73 -3 -73 73 0 53 -17 89 -59 126 -21 18 -39 22 -93 23 l-67 0 -51 -50 c-28 -27 -54 -50 -56 -50 -3 0 -4 46 -3 103 2 96 -2 129 -19 126 -4 -1 -15 -3 -25 -6z m-283 -203 c46 -87 -28 -184 -98 -129 -23 18 -26 28 -26 79 0 50 4 61 23 75 37 26 79 16 101 -25z m561 18 c15 -14 30 -43 38 -73 21 -85 24 -83 -126 -87 -73 -2 -136 0 -141 4 -16 13 4 55 46 100 75 79 135 97 183 56z"/> <path d="M7084 2358 c-5 -7 -7 -83 -5 -168 3 -153 12 -197 43 -216 15 -9 635 -7 650 2 26 17 37 75 39 223 2 136 0 155 -15 163 -41 23 -44 8 -39 -160 7 -183 10 -176 -84 -184 -58 -6 -63 -1 -63 58 0 53 -46 116 -107 148 -69 35 -204 9 -233 -44 -22 -41 19 -55 61 -22 52 41 142 34 190 -15 32 -33 51 -117 27 -124 -7 -2 -100 -2 -206 1 -156 4 -195 8 -203 20 -6 9 -9 76 -7 170 3 152 3 155 -19 158 -11 2 -25 -3 -29 -10z"/> <path d="M7893 2363 c-10 -3 -13 -53 -13 -198 0 -162 2 -194 15 -199 8 -3 22 -3 30 0 23 9 22 389 -1 398 -9 3 -16 6 -17 5 -1 0 -8 -3 -14 -6z"/> <path d="M8965 2358 c-3 -7 -6 -85 -7 -173 l-3 -160 -45 -2 c-25 -1 -56 -3 -70 -5 -25 -3 -25 -2 -30 84 -4 77 -8 91 -31 114 -30 30 -95 42 -128 25 -12 -7 -35 -30 -51 -53 -42 -58 -41 -112 3 -170 31 -41 36 -43 90 -46 70 -4 76 -22 16 -52 -42 -22 -47 -43 -11 -48 31 -5 59 14 88 60 l26 40 288 -3 c159 -2 291 -1 295 3 9 9 -3 45 -18 51 -7 2 -45 1 -85 -2 -96 -9 -112 1 -112 71 0 71 28 108 81 108 32 0 41 -4 51 -25 21 -46 88 -44 74 2 -12 39 -67 68 -126 68 -100 0 -149 -65 -134 -181 6 -49 5 -54 -13 -54 -10 0 -25 6 -31 12 -10 10 -17 10 -33 0 -12 -8 -23 -11 -26 -9 -2 3 -5 83 -6 179 -2 171 -2 173 -25 176 -12 2 -24 -3 -27 -10z m-230 -172 c16 -11 20 -29 23 -89 5 -85 -3 -94 -69 -77 -46 13 -59 33 -59 91 0 71 56 111 105 75z"/> <path d="M5145 2331 c-9 -28 5 -51 30 -51 32 0 45 38 19 57 -25 18 -42 16 -49 -6z"/> <path d="M5492 2338 c-18 -18 -14 -46 9 -58 27 -15 51 5 47 39 -3 29 -35 40 -56 19z"/> <path d="M1718 2303 c-23 -6 -24 -58 -2 -67 41 -16 61 6 44 49 -10 25 -12 26 -42 18z"/> <path d="M1792 2268 c3 -37 35 -50 57 -24 21 25 4 56 -30 56 -28 0 -30 -2 -27 -32z"/> <path d="M1554 2240 c-15 -15 -6 -146 12 -187 8 -18 31 -45 51 -60 36 -28 38 -28 184 -28 145 0 149 1 173 25 22 23 24 35 28 133 5 116 -2 138 -40 118 -16 -9 -18 -19 -14 -94 7 -127 6 -127 -137 -127 -125 0 -175 11 -191 40 -6 10 -10 55 -10 99 0 45 -4 81 -9 81 -5 0 -15 2 -23 5 -7 3 -18 1 -24 -5z"/> <path d="M5670 2237 c-32 -16 -70 -83 -70 -125 0 -40 13 -67 53 -109 31 -33 79 -45 92 -23 10 17 35 11 35 -8 0 -21 -22 -43 -62 -60 -53 -22 -25 -49 37 -38 27 5 41 17 60 46 23 36 25 50 25 144 l0 105 -38 41 c-42 44 -83 52 -132 27z m92 -54 c40 -46 29 -146 -18 -157 -25 -7 -63 8 -76 28 -15 21 -9 109 9 128 21 23 65 23 85 1z"/> <path d="M5983 2235 c-3 -9 -3 -51 -1 -94 5 -83 17 -109 72 -152 25 -19 41 -20 462 -20 339 0 440 3 452 13 29 24 42 76 42 168 l0 90 -30 0 -30 0 0 -105 c0 -115 3 -109 -67 -119 -50 -7 -50 -8 -42 118 6 100 -5 131 -39 110 -15 -10 -17 -25 -14 -110 4 -96 3 -100 -20 -111 -12 -6 -36 -11 -53 -10 l-30 2 -1 108 c-1 59 -5 112 -10 117 -5 5 -20 7 -33 3 -23 -6 -23 -9 -18 -77 3 -39 3 -87 -2 -106 -7 -35 -7 -35 -62 -35 -29 -1 -65 -4 -78 -9 -39 -14 -46 5 -42 118 2 87 0 104 -13 109 -38 15 -45 -1 -48 -111 l-3 -107 -130 -3 c-144 -2 -171 5 -195 53 -8 17 -15 57 -15 90 0 33 -4 66 -8 73 -11 17 -36 15 -44 -3z"/> <path d="M8151 2232 c-56 -28 -65 -54 -68 -206 -4 -150 2 -180 34 -160 16 10 18 24 14 117 -5 163 21 216 108 217 37 0 42 -2 36 -17 -4 -10 -10 -40 -12 -68 -11 -133 121 -200 213 -108 32 32 34 38 34 102 0 62 -3 72 -29 100 -16 17 -35 31 -43 32 -97 7 -266 2 -287 -9z m281 -49 c39 -45 31 -136 -13 -159 -26 -13 -32 -13 -59 1 -18 9 -32 26 -36 43 -3 15 -7 33 -10 40 -5 18 14 65 33 80 24 17 67 15 85 -5z"/> <path d="M6194 1914 c-7 -29 6 -47 31 -42 28 5 41 33 26 52 -21 25 -50 20 -57 -10z"/> <path d="M7733 1608 c-6 -7 -8 -30 -6 -50 5 -37 6 -38 49 -38 l44 0 0 45 c0 36 -3 45 -17 45 -10 0 -27 3 -39 6 -11 3 -25 -1 -31 -8z"/> <path d="M2251 1586 c-15 -16 -25 -42 -29 -71 -4 -37 -10 -48 -28 -56 -33 -12 -31 -46 2 -61 l27 -12 -5 -157 -5 -157 32 -4 c18 -2 38 -2 44 0 7 2 11 57 11 169 l0 166 40 -6 c43 -5 64 9 58 40 -2 14 -15 19 -53 23 -49 5 -50 6 -47 35 4 38 4 38 60 45 44 5 47 7 50 38 l3 32 -69 0 c-60 0 -71 -3 -91 -24z"/> <path d="M4405 1593 c-66 -36 -84 -101 -45 -165 27 -44 25 -50 -12 -71 -45 -24 -68 -68 -68 -129 0 -99 67 -158 180 -158 61 0 94 13 133 52 23 24 44 23 57 -2 6 -11 22 -27 36 -36 24 -16 26 -16 50 7 l26 24 -52 46 -51 46 20 61 c27 79 27 102 0 102 -38 0 -57 -18 -64 -62 -4 -24 -10 -47 -12 -51 -8 -13 -83 64 -83 85 0 10 15 24 36 34 37 18 69 59 81 103 8 32 -22 86 -62 111 -40 25 -127 26 -170 3z m120 -59 c38 -25 35 -84 -6 -118 -38 -33 -52 -33 -74 0 -29 44 -30 88 -4 113 27 25 51 27 84 5z m-22 -262 c37 -38 67 -76 67 -86 0 -23 -57 -46 -112 -46 -66 1 -93 29 -93 95 0 42 5 57 25 78 14 15 30 27 35 27 6 0 40 -31 78 -68z"/> <path d="M3114 1586 c-60 -13 -79 -26 -105 -77 -24 -48 -24 -70 1 -119 22 -44 64 -67 175 -96 58 -16 71 -23 79 -45 13 -39 0 -77 -34 -94 -33 -17 -131 -20 -147 -4 -6 6 -26 9 -44 7 -31 -3 -34 -6 -34 -38 0 -42 15 -48 140 -49 76 -1 96 3 129 22 74 42 99 139 52 207 -24 35 -43 45 -166 84 -71 23 -80 32 -80 71 0 54 34 69 144 62 50 -3 97 -3 104 0 6 2 12 17 12 33 0 26 -3 29 -52 35 -83 12 -119 12 -174 1z"/> <path d="M5098 1586 c-62 -19 -92 -57 -111 -139 -21 -88 -21 -121 -2 -216 27 -128 70 -160 212 -161 101 0 130 13 117 54 -10 34 -21 40 -49 28 -33 -15 -99 -15 -141 0 -50 18 -64 59 -64 186 0 106 0 108 32 146 l32 39 87 -5 c93 -6 109 0 109 38 0 16 -7 24 -27 28 -61 12 -160 13 -195 2z"/> <path d="M7074 1586 c-60 -13 -79 -26 -105 -77 -24 -48 -24 -70 1 -119 23 -45 57 -64 160 -91 41 -11 81 -27 88 -36 21 -28 14 -72 -14 -98 -23 -21 -37 -25 -88 -25 -34 0 -67 5 -73 11 -6 6 -26 9 -44 7 -31 -3 -34 -6 -34 -38 0 -42 15 -48 138 -49 70 -1 96 3 127 19 75 38 103 142 56 210 -24 35 -43 45 -166 84 -71 23 -80 32 -80 71 0 24 7 37 27 50 23 15 41 17 124 11 90 -6 99 -5 109 13 17 33 2 49 -53 57 -82 11 -118 11 -173 0z"/> <path d="M1587 1583 c-4 -3 -7 -120 -7 -260 l0 -253 45 0 45 0 0 260 0 260 -38 0 c-21 0 -42 -3 -45 -7z"/> <path d="M3661 1461 c-30 -8 -36 -20 -50 -101 -24 -139 -30 -166 -41 -197 -7 -18 -17 -33 -24 -33 -11 0 -31 63 -47 155 -5 28 -15 77 -22 110 l-13 60 -42 3 c-48 4 -51 -4 -28 -65 7 -21 21 -66 30 -100 40 -154 46 -179 48 -198 2 -15 12 -21 36 -23 32 -3 33 -5 26 -35 -3 -18 -13 -41 -20 -52 -17 -24 -18 -64 -1 -70 6 -3 26 -1 42 3 25 7 31 15 36 48 9 54 34 164 47 205 23 70 40 135 46 171 4 20 13 50 21 65 8 15 15 31 15 35 0 14 -35 25 -59 19z"/> <path d="M1800 1458 c0 -2 -2 -90 -3 -195 l-3 -193 43 0 43 0 0 150 0 150 26 10 c37 14 71 12 99 -6 25 -16 25 -18 25 -160 l0 -144 45 0 44 0 -5 123 c-8 172 -18 219 -54 245 -33 25 -127 31 -148 10 -9 -9 -15 -9 -24 0 -10 10 -87 18 -88 10z"/> <path d="M2511 1440 c-42 -24 -54 -41 -76 -113 -16 -52 -17 -65 -5 -110 21 -84 27 -95 69 -122 33 -20 53 -25 103 -25 87 1 134 33 159 110 23 68 23 88 3 158 -20 68 -27 78 -75 103 -49 25 -132 24 -178 -1z m148 -66 c30 -25 31 -28 31 -109 0 -81 -1 -84 -31 -109 -17 -15 -43 -26 -59 -26 -16 0 -42 11 -59 26 -30 25 -31 28 -31 109 0 81 1 84 31 109 17 15 43 26 59 26 16 0 42 -11 59 -26z"/> <path d="M3829 1443 c-33 -21 -59 -67 -59 -104 0 -33 36 -89 57 -89 8 0 45 -7 84 -16 66 -15 69 -17 69 -44 0 -19 -7 -33 -19 -40 -26 -13 -114 -13 -128 1 -6 6 -21 9 -34 7 -18 -2 -25 -10 -27 -33 -5 -44 18 -55 115 -55 101 0 141 17 166 69 22 48 22 62 -3 104 -18 30 -30 37 -85 51 -35 9 -73 16 -84 16 -26 0 -39 43 -20 66 12 15 59 16 159 2 21 -2 26 1 28 27 5 44 -18 55 -112 54 -54 -1 -89 -6 -107 -16z"/> <path d="M5449 1440 c-48 -25 -55 -35 -75 -111 -17 -65 -17 -69 2 -135 17 -59 25 -72 59 -96 34 -23 50 -27 105 -27 89 0 138 32 157 104 16 62 16 113 2 173 -14 58 -23 68 -70 93 -49 25 -132 25 -180 -1z m150 -66 c30 -25 31 -28 31 -109 0 -81 -1 -84 -31 -109 -17 -15 -43 -26 -59 -26 -16 0 -42 11 -59 26 -30 25 -31 28 -31 109 0 81 1 84 31 109 17 15 43 26 59 26 16 0 42 -11 59 -26z"/> <path d="M5790 1458 c-1 -2 -2 -90 -3 -196 l-2 -192 43 0 42 0 0 150 c0 137 2 150 19 160 29 15 83 12 109 -6 21 -14 22 -22 22 -160 l0 -144 46 0 45 0 -6 113 c-3 61 -8 129 -10 149 -5 36 -4 38 34 49 52 16 89 5 102 -29 7 -17 9 -73 5 -154 l-6 -128 46 0 46 0 -4 153 c-5 164 -13 194 -59 221 -34 20 -109 21 -135 1 -10 -8 -30 -14 -44 -14 -14 0 -34 6 -44 14 -24 18 -117 20 -134 3 -9 -9 -15 -9 -24 0 -10 10 -87 18 -88 10z"/> <path d="M6415 1191 l0 -269 31 -4 c51 -6 54 -2 54 78 l0 74 64 0 c49 0 70 5 97 23 67 45 93 150 63 256 -22 80 -58 111 -130 111 -28 0 -55 -5 -62 -12 -9 -9 -15 -9 -24 0 -7 7 -30 12 -52 12 l-41 0 0 -269z m214 175 c19 -21 22 -32 19 -106 -3 -75 -5 -85 -28 -101 -14 -10 -45 -19 -70 -21 l-45 -3 -3 115 c-2 99 0 116 15 127 29 22 87 16 112 -11z"/> <path d="M7437 1441 c-47 -31 -61 -66 -61 -161 -2 -169 36 -213 178 -208 l81 3 0 35 0 35 -57 -3 c-98 -5 -128 24 -128 123 0 99 29 127 127 123 l58 -3 0 35 0 35 -85 2 c-68 2 -91 -2 -113 -16z"/> <path d="M7730 1266 l0 -196 43 0 42 0 -1 192 -1 193 -42 3 -41 3 0 -195z"/> <path d="M7948 1428 c-89 -81 -89 -273 0 -337 42 -30 188 -31 223 -2 20 16 22 23 13 38 -9 15 -22 17 -83 14 -83 -3 -124 10 -140 45 -14 32 -11 33 118 36 127 4 130 6 114 105 -10 59 -17 72 -49 101 -33 29 -44 32 -99 32 -56 0 -65 -3 -97 -32z m146 -49 c20 -16 26 -29 26 -60 l0 -39 -80 0 c-86 0 -86 0 -74 57 6 32 45 62 80 63 12 0 33 -9 48 -21z"/> <path d="M8275 1265 l0 -195 43 0 42 0 0 150 0 150 26 10 c37 14 71 12 99 -6 25 -16 25 -18 25 -160 l0 -144 44 0 44 0 -5 123 c-6 170 -17 219 -53 245 -33 25 -127 31 -148 10 -9 -9 -15 -9 -24 0 -7 7 -30 12 -52 12 l-41 0 0 -195z"/> <path d="M8728 1430 c-44 -37 -63 -104 -55 -194 13 -135 46 -166 175 -166 79 0 82 1 88 25 10 42 -10 55 -75 49 -48 -5 -60 -3 -83 16 -27 20 -28 26 -28 104 0 107 13 121 106 121 71 0 90 11 80 49 -6 25 -9 26 -89 26 -77 0 -85 -2 -119 -30z"/> <path d="M9080 1442 c-41 -28 -58 -54 -71 -107 -26 -105 -6 -194 54 -239 30 -23 43 -26 115 -26 101 0 132 11 132 45 0 29 1 28 -101 25 -91 -2 -132 16 -127 58 l3 25 115 1 115 1 3 62 c5 109 -55 174 -160 172 -33 0 -63 -7 -78 -17z m128 -60 c15 -12 25 -33 29 -60 l6 -42 -82 0 -81 0 0 32 c0 40 43 88 79 88 14 0 36 -8 49 -18z"/> </g> </svg> 