<?xml version="1.0" encoding="utf-8"?>
<!-- Generator: Adobe Illustrator 27.1.1, SVG Export Plug-In . SVG Version: 6.00 Build 0)  -->
<svg version="1.1" id="Layer_1" xmlns="http://www.w3.org/2000/svg" xmlns:xlink="http://www.w3.org/1999/xlink" x="0px" y="0px"
	 viewBox="0 0 566.93 566.93" style="enable-background:new 0 0 566.93 566.93;" xml:space="preserve">
<style type="text/css">
	.st0{fill:#0063AF;}
	.st1{fill:#FFFFFF;}
</style>
<path class="st0" d="M233.72,496.05c-0.64,0.85-1.72,1.04-2.98,0.91c0.39-1.21-0.45-1.6,0.01-2.87l1.97,0.35
	C231.5,495.49,231.75,495.91,233.72,496.05z"/>
<path class="st0" d="M146.47,468.22c1.62,0.25,3.84,3.39,4.92,0.83C149.66,468.34,147.74,466.54,146.47,468.22z"/>
<path class="st0" d="M139.93,415.4c-1.16-0.74-2.34-1.19-3.65-0.83C136.09,416.19,138.48,416.29,139.93,415.4z"/>
<path class="st0" d="M56.38,349.31l-1.22-2.49C52.48,346.87,54.46,350.93,56.38,349.31z"/>
<path class="st0" d="M59.26,342.48c4.26-1.37-1.63,3.52,2.91,2.39c-0.14-1.37-0.18-1.84-0.11-3.93
	C60.97,341.42,59.19,341.73,59.26,342.48z"/>
<path class="st0" d="M81.91,332.63c-0.4-1.14-1.24-1.71-2.54-1.73C77.32,332.07,79.8,332.81,81.91,332.63z"/>
<path class="st0" d="M85.28,326.52c-0.92-1.77-1.82-3.56-0.3-4.8c-2.57,1.56-1.55,0.34-3.46,0
	C79.48,323.46,83.03,325.85,85.28,326.52z"/>
<path class="st0" d="M61.16,253.44c-0.5,1.69,0.62,2.52,2.36,2.97C62.91,255.32,63.13,253.8,61.16,253.44z"/>
<path class="st0" d="M67.68,222.84c-3.33,0.2,0.21-2.12-1.92-2.36c-0.13,2.2-4.25,5.15-1.41,6.28
	C65.66,224.64,64.5,223.55,67.68,222.84z"/>
<path class="st0" d="M72.24,136.26c0.94,0.95-1.72,2.2-0.39,3.12c1.89-0.12,0.3-1.52,2.1-2.8c-1.83-1.96-5.55-1.69-4.15,0.31
	C70.55,136.51,71.34,136.24,72.24,136.26z"/>
<path class="st0" d="M171.37,64.23c-0.74,0.25-1.46,0.43-1.9-0.72c-2.2,1.7-4.73,2.57-3.9,4.28
	C166.83,65.45,170.67,65.93,171.37,64.23z"/>
<path class="st0" d="M229.26,43.11c-1.41,0.56-2.51,1.33-2.53,2.78C228.38,45.47,230.84,45.61,229.26,43.11z"/>
<path class="st0" d="M286.78,30.25c1.19,0.3-0.26,0.75-0.61,1.42c4.83-0.9,7.27-0.81,11.19-1.54
	C294.15,28.9,289.61,28.14,286.78,30.25z"/>
<path class="st0" d="M334.46,36.78c-1.12,2.71,3.35,3.29,3.27,0.42C336.09,37.06,335.47,38.24,334.46,36.78z"/>
<path class="st0" d="M338.55,49.42c0.34,0.62,3.84,2.47,3.85-0.15C340.14,49.75,339.87,48.39,338.55,49.42z"/>
<path class="st0" d="M266.41,66.22l-0.08-0.57c-0.94,0.29-1.87,0.59-2.74,0.92L266.41,66.22z"/>
<g>
	<path class="st0" d="M26.77,300.8c-1.63-10.58-3.01-22.39-3.77-34.75c-0.5-12.35-0.35-25.15,1.48-37.44l2.42,0.3
		c-1.32-0.5-3.65-4.71-0.34-2.92c-2.96-2.83,0.86-7.44,0.42-10.4c3.72,7.86,2.9,19.53-0.22,26.97c2.89-1.36,3.46,5.54,0.52,3.94
		c3.98,6.06,1.78,10.77,4.39,17.19c-1.18-0.61-2-0.59-2.44,0.55c3.26,1.74,3.26,4.68,1.93,7.09c-0.51,1.51,1.68,1.04,1.76,2.11
		c0.86-2.85,6.01-10.01,8.73-4.04c-2.86,0.89-0.59-1.77-2.53-1.52c-3.35,1.56-0.75,5.22,1.97,5.74c2.42-0.11-1.39-3.85,2.24-3.22
		c1.32,4.79,0.51,6.79,3.95,8.61c-3.06,3.58,0.08,10.12,3.16,11.57c-1.54,1.96-2.46,2.39-0.06,4.18c-0.73-0.35-2.26-0.01-2.61-0.71
		c-2.06,2.49-1.77,3.53-0.37,6.42c-1.94-0.34-3.85-0.97-4.81,0.74c1.52-0.33,3.85,1.28,1.49,3.02c2.94,1.41,4.96,2.54,4.75,5.63
		c-2.87,0.16-3.43-2.07-2.66-3.82c-1.44,0.18-1.53,0.94-3.06,1.09c2.04,2.73,2.21,3.12,2.66,6.63c2.82-0.02,0.75-1.86,0.82-2.91
		c2.43-0.75,1.04,2.5,3.77,1.41c-0.82,1.51-4.66,1.95-3.81,4.1c3.87-0.29,0.52-0.16,1.77,2.92c0.6-0.55,0.88-1.21,1.07-1.9
		c0,2.22,0.18,5.9,0.6,9.29c4,0.57-0.05,2.07-0.96-0.3c-0.6,0.26-0.6,0.73-1.38,0.93c-0.76,2.38,1.39,2.85-0.77,4.77
		c1.46,1.12,4.11-1.13,2.49-2.41c3.11,0.25-0.6,4.55,3.75,2.88c-0.13,1.02-2.73,3.65-0.04,3.98c0.14,1.68-1.86,0.03-3.07,0.96
		c0.76,1.67,3.8,0.18,4.39,2.05c-1.93-0.02-3.28-0.86-5.48-0.55c0.62,1.9,3.12,1.13,3.88,2.81c-1.51,0.51-0.34,1.7-2.57,2.04
		c1.56-2.55-0.51-2.51-2.61-3.85c-1.51,1.33,1.4,7.21,4.29,7.41c-0.6,1.21,1.83,3.12-0.77,3.87c-1.31-1.36,0.56-1.97-0.74-3.33
		c-1.38,0.27-1.23,0.91-1.02,1.56c-2.5-1.08-0.39-4.69-2.9-6.18c-0.68-0.66-0.87,0.53-2.27,0.76c-2.87-0.64,0.24-4.56-3.4-3.72
		c2.15-2.87-2.56-6.6-4.45-8.85c2.75-3.03-0.52-5.85-0.63-9.26c-3.46,1.88-0.51,3.54-0.15,7.09c-3.25-0.39-0.52-4.23-3-6.35
		c3.7-0.2-1.74-3.88,3.07-3.63c-2.54-2.67-2.17-3.89-1.29-7.22C27.75,310.94,30.03,302.66,26.77,300.8z"/>
	<path class="st0" d="M40.13,292.87c-3.09,1-1.98,5.6,0.41,6.48C41.81,297.84,40.19,295.01,40.13,292.87z"/>
	<path class="st0" d="M39.94,291.81c1.1-0.95,0.84-3.79-2.15-3.02C38.09,290.15,38.67,291.28,39.94,291.81z"/>
	<path class="st0" d="M46.66,329.26c-0.42-0.74-0.41-1.99-1.53-1.87c-0.04,0.91-2.29,1.1-0.8,2.51L46.66,329.26z"/>
	<path class="st0" d="M48.31,324.3c0.42-2.92-5.4-2.32-3.91-4.1c0.79-0.25,2.33,1.87,2.53-0.03c-2.45,0.1-0.07-1.78-0.83-2.6
		l-3.16,0.71C40.62,321.77,45.14,323.26,48.31,324.3z"/>
	<path class="st0" d="M43.08,290.9c0.36,1.9,0.29,4.2,2.46,4.5C45.85,293.33,46.14,291.36,43.08,290.9z"/>
	<path class="st0" d="M43.28,287.15c0,1.4,0.67,2.22,2.78,1.83C46.06,287.61,45.4,286.78,43.28,287.15z"/>
	<path class="st0" d="M39.31,281.15c0.83-1.67,2.85,0.36,4.87-0.35c0.09-3.24-0.73-5.73-3.86-6.6
		C39.82,278.07,39.3,278.66,39.31,281.15z"/>
	<path class="st0" d="M39.33,288.08c-0.49-2.32,0.28-4.1,2.52-6.07C39.16,281.16,33.83,287.55,39.33,288.08z"/>
	<path class="st0" d="M34.22,279.35c0.71,1.99,0.49,5.09,1.26,4.24C36.74,282.24,37.75,279.78,34.22,279.35z"/>
</g>
<path class="st0" d="M266.35,499.05c-2.74,1.26-3.51-0.9-5.37,0.34c0.32,1.45,3.74,0.12,3.85,1.7c-4.4,2.2-6.81-2.95-11.08-3.09
	c-0.22,0.82-0.17,2-0.97,2.03c-0.54-1-0.79-2.23-1.58-3.01c-4.76,1.31-12.74-2.93-17.12,0.53c0.87,1.11,4.82,1.2,2.06,3.2
	c3.28,0.78,0.83-2.02,2.61-2.48c0.03,0.56,0.39,0.88,1.19,0.88c-0.02,0.03-0.01,0.05-0.02,0.08c-0.01,0.01-0.03,0.02-0.03,0.03
	c0,0,0.01,0.01,0.02,0.01c-1.32,2.79,4.38,1.04,6.38,2.84c1.81-0.73-0.86-2.24,1.15-2.7c1.11,2.49,3.87,3.27,4.02,0.46
	c-0.52,1.01,5.41,0.23,3.06,2.45c7.27,0.23,6.46,1.45,12.15,0.97C266.27,500.78,266.71,501.57,266.35,499.05z"/>
<path class="st0" d="M142.83,462.23c-0.73,0.98-1.82-0.51-2.59,0.28c1.11,0.23,0.3,3.25-1.17,2.68c-0.32-1.47-1.99,0.23-4.23,0.47
	c3.92,0.12,8.49,3.18,10.89,1.37C142.57,467.54,140.25,464.18,142.83,462.23z"/>
<path class="st0" d="M110.16,344.86c1.07,0.82,0.65,1.87,1.99,1.99c-0.03-0.37,0.32-0.72,1.19-1.04c-0.58-0.94-1.04-2.02-2.5-1.68
	c0.21-0.43,0.3-0.87,0.79-1.28c-2.33,0.87-5.42-2.07-2.99-3.49c0.37,0.4,0.5,1.14,1.4,0.84l-0.67-1.14
	c-1.96,0.28-1.91,0.9-4.12,0.75c2.22,1.66,2.21,2.88,4.2,5.48C109.78,345.15,109.96,345,110.16,344.86z"/>
<path class="st0" d="M83.79,340.21c2.32,1.89,1.07,4.12,2.83,5.18C86.76,343.27,86.53,340.86,83.79,340.21z"/>
<path class="st0" d="M53.41,352.21c-1.44,3.49-4.22-0.09-5.97,2.27c2.63-0.87,3.54,1.13,5.83,0.8
	C51.16,353.8,54.78,353.53,53.41,352.21z"/>
<path class="st0" d="M60.1,340.49c-0.86-1.37,0.66-2.17,1.17-3.2c-1,0.43-2.64-2-2.73-0.24c3.16,1.33-1.8,2.68-1.7,3.96
	C57.93,340.83,58.61,341.23,60.1,340.49z"/>
<path class="st0" d="M57.04,333.6c-0.05,0.72-0.55,1.31-1.88,1.7c1.56,1.2,0.95,1.62,0.55,3.23
	C58.23,337.68,57.19,333.67,57.04,333.6z"/>
<path class="st0" d="M88.08,320.84c-0.14-1.65,5.76-4.73,0.09-4.29c0.07,0.91,1.36,0.58,2.02,0.87
	C88.75,318.14,84.75,320.34,88.08,320.84z"/>
<path class="st0" d="M68.19,145.94c-1.87,0.28-5.57-0.91-4.48-0.35C63.86,147.41,67.69,147.34,68.19,145.94z"/>
<path class="st0" d="M88.98,119.9c1.45-1.83,4.45-1.86,3.07-4.3c-1.53,0.31-4.14,1.88-4.79-0.55c0.63,2.13-5.83,3.51-3.7,3.95
	C85.37,118.53,89.32,116.85,88.98,119.9z"/>
<path class="st0" d="M28.51,69.31c-0.35-1.13-0.31-1.01-1.52-4.97c-1.88,2.9-3.45,5.8-0.57,8.22
	C26.86,71.49,29.96,70.19,28.51,69.31z"/>
<path class="st0" d="M221.87,41.21c-1.07-0.47-2.58-0.05-3.23-1.39c2.99-1.05,8.7,1.81,6.44-1.57c-0.63,1.83-4.16,0.12-5.17-0.94
	c-0.28,1.69-5.75,5.33-3.99,4.68C218.42,39.93,221.26,43.09,221.87,41.21z"/>
<path class="st0" d="M235.98,38.03c2.32,1.32,2.59,5.32-1.29,5.34c-0.03,2.44,2.23,0.65,3.49,0.72c-0.51-3.24,1.55-6.52-1.43-8.38
	C237.29,37.02,236.22,37.23,235.98,38.03z"/>
<path class="st0" d="M248.99,39.38c1.24-0.84-1.78-2.59-1.63-4.76l2.62-0.4l0.67,3.48c1.74-2.48,5.71-2.25,3.81-4.83
	c1.17,0.97,2.78,0.16,3.19-1.13c-5.2-0.3-6.22,2.46-10.57,1.5c0.1,0.85,0.14,1.66-1.03,1.59C248.24,36.42,246.67,39.15,248.99,39.38
	z"/>
<path class="st0" d="M275.54,3.28c-1.43-0.98-4.93,0.34-4-3.28C266.22,0.69,273.93,5.74,275.54,3.28z"/>
<path class="st0" d="M397.23,75.36c2.18-3.12-1.23-3.61-2.93-4.93c0.08-0.75,0.14-1.48-0.27-1.79c-0.16,0.21-0.33,0.37-0.51,0.52
	c-0.03-0.21-0.1-0.4-0.05-0.65l-0.65,1.29c-0.36-0.09-0.72-0.15-0.89,0.43c0.13,0.1,0.3,0.18,0.45,0.26
	c-0.08,0.16-0.17,0.3-0.23,0.51c1.73,0.44,1.31,1.93,1.8,2.98c0.35-0.91,3.5-0.2,2.12-1.5c-1.57,0.47-1.85-0.18-1.84-1.07
	c0.9,0.4,1.9,0.87,2.94,1.6C396.69,74.03,395.9,75.19,397.23,75.36z"/>
<path class="st0" d="M428.76,40.8c2.44-1.65,2.74,0.31,4.74-1.06c-1.12-0.49-1.37-1.22-1.2-2.12c2.6,0.06,2.27,0.85,4.54,2.08
	c0.88-1.1,0.13-1.7,0.9-2.79c1.69,1.96,4.51,0.52,6.39,0.66c-2.01-0.77-1.12-2.37-3.14-3.13c-3.36,1.62-4.75,0.01-9.48-1.1
	c-0.53,1.32-1.63,0.86-2.43,1.32c1.66,0.79,1.64,2.15,2.19,3.3C430.48,38.11,427.5,40,428.76,40.8z"/>
<path class="st0" d="M121.72,454.91c-1.13-1.47-0.44-3.29-0.78-4.89c-3.37,0.01-5.23-4.43-9.91-5.95c2.77,1.53,1.62,3.68,1.56,5.69
	c3.21-0.06,3.3,2.1,6.33,1.57c-0.97,1.03-0.64,1.45,0.58,1.27c-1.31,1.33-2.51,2.64-1.38,3.5c2.59-0.8,5.3,0.55,7.86-0.26
	c-0.09,1.1-0.54,2.28-0.25,3.3c0.62-0.8,1.3-1.1,1.97-1.39c-1.05-0.53-0.82-1.35,0.33-2.38
	C125.81,453.63,123.83,455.12,121.72,454.91z"/>
<path class="st0" d="M83.08,333.25c0.53,1.71,2.21,3.6-1.34,4.58c0.41,1.16,2.21,0.47,3.12,0.94c-1.1-0.98,1.14-1.41,1.6-2.12
	C85.19,335.69,86.07,332.04,83.08,333.25z"/>
<path class="st0" d="M388.14,44.03c1.58-5.51,4.92-6.96,8.92-6.92c-1.67,3.2,2.68,3.58,2.44,6.09c1.1-2.89,3.13-0.98,3.46-2.57
	c-0.09,1.07,0.24,1.95,0.98,2.65c1.39-3.27,4.98-0.55,7.68-0.16c1.2-2.42,0.23-2.11,2.02-3.85c-1.96-3.22-8.49-5.89-10.27-7.61
	c-7.59,1.54-12.59-10.49-21.78-11.02c-6.1-0.33-10.91,5.12-11.44,13.99C372.65,40.05,379.68,46.39,388.14,44.03z"/>
<g>
	<path class="st0" d="M142.08,67.08c-0.21-0.86,0.28-1.54,1.04-2.16c-0.11,0.06-0.14,0.07-0.27,0.14c-1.2-0.74,2.29-3.13,4.1-3.13
		c0.59,1.01-3.76,2.98-0.96,3.04c0.34,0.84-0.49,0.45-1.24,0.72c0.36,0.2,0.71,0.44,1.02,0.96l-1.68,0.95
		C144.11,66.12,143.59,65.97,142.08,67.08z"/>
	<path class="st0" d="M143.53,64.71c0.27,0.37,0.56,0.58,0.87,0.76C144.56,64.59,144.66,64.11,143.53,64.71z"/>
</g>
<path class="st0" d="M226.56,33.45c-1.35,0.82-5.49-0.05-4.16,2.42C224.21,35.32,227.03,35.42,226.56,33.45z"/>
<path class="st0" d="M274.4,66.81c1.42-0.18,2.63-0.59,3.26-1.64C276.48,63.9,274.7,65.29,274.4,66.81z"/>
<path class="st0" d="M387.57,62.5l2.9,1.02C392.32,61.83,387.6,60.17,387.57,62.5z"/>
<path class="st0" d="M383.17,89.89c1.21,0.56,2.27,0.45,3.21-0.33C386.87,87.48,384.51,88.47,383.17,89.89z"/>
<path class="st0" d="M398.43,103.31c3.17-0.88,4.25,2.89,6.93,2.58c-0.43,0.74-1.28,1.66-0.81,2.03
	C408.98,104.74,399.76,99.61,398.43,103.31z"/>
<path class="st0" d="M426.66,112.12c0.74,1.45,1.86,2.5,3.6,1.41C429.06,113.27,427.95,110.98,426.66,112.12z"/>
<path class="st0" d="M462.65,133.2c-1.03-1.5-2.5-1.4-4.1-0.66C459.87,132.94,460.96,134.15,462.65,133.2z"/>
<path class="st0" d="M483.08,158.82c2.19-2.17,1.58,1.63,3.29,0.5c-1.71-1.64-1.21-6.24-4.14-5.3
	C483.04,156.32,484.74,156.38,483.08,158.82z"/>
<path class="st0" d="M548.43,220.39c-1.23,1.24,1.03,1.26,0.81,3.27c2.9,0.27,5.31-2.2,2.67-2.75c-0.22,0.72-0.55,1.4-1.2,1.93
	C549.28,222.74,550.13,220.22,548.43,220.39z"/>
<path class="st0" d="M540.76,328.27c1.02,2.42-2.1,4.43-1.19,6.06c0.32-0.63,0.68-1.2,1.94-0.65
	C541.67,331.13,542.75,328.97,540.76,328.27z"/>
<path class="st0" d="M485.03,427.49c-2.68,3.59-4.48,5.01-6.65,7.93c3.28-1.09,7.11-3.33,7.39-6.55
	C484.68,429.38,485.33,428.18,485.03,427.49z"/>
<path class="st0" d="M471.83,443.68c5.58,1,0.84,0.59,1.97-1.57c0.7-1.33,3.77-1.32,2.28-3.8
	C474.58,440.81,472.55,440.8,471.83,443.68z"/>
<path class="st0" d="M455.89,455.29c1.62-1.39,5.95-4.71,4.79-5.09C458.28,451.76,456.26,453.37,455.89,455.29z"/>
<path class="st0" d="M444.05,455.09c1.28-0.9,0.75-2.11,2.65-1.7C445.28,450.78,441.64,453.11,444.05,455.09z"/>
<g>
	<path class="st0" d="M416.3,62.87c0.54,3.83,5.16,3.82,8.02,6.16c0.9-3.45-2.54-2.82-5.69-5.11c2.61-1.71,3.83,2.68,7.32,2.66
		c-2.45,2.4,4.41,1.68,0.8,4.44c3.98,0.34,4.72,1.43,6.82,4.32c5.64-3.22,10.81,4.03,14.64,3.35c9.81,6.49,20.45,13.99,31.1,22.27
		c10.46,8.43,20.82,17.57,29.6,27.38l-1.96,1.26c1.34-0.46,6.43,1.1,2.63,1.86c4.41,0.19,5.48,5.79,8.22,7.61
		c-9.06-3.28-18.04-12.04-21.92-19.2c-0.93,2.73-6.98-1.8-3.59-2.47c-7.78-1.86-10.07-6.53-17.17-9.48c1.33-0.29,1.89-0.8,1.27-1.88
		c-3.73,0.76-6.14-1.32-7.17-3.83c-0.88-1.38-2.03,0.29-2.97-0.42c1.72,2.54,3.94,10.75-2.87,8.19c1.29-2.38,1.86,0.89,3.03-0.47
		c1.1-3.15-3.74-4.14-6.09-2.86c-1.63,1.56,4.13,1.87,1.06,3.65c-4.85-2.58-5.92-4.49-9.84-3.68c-0.76-4.4-8.34-7.11-11.7-6.25
		c-0.52-2.33-0.22-3.19-3.37-2.99c0.8-0.2,1.61-1.38,2.43-1.09c-0.59-3.02-1.64-3.58-4.99-4.76c1.65-0.95,3.52-1.66,2.79-3.46
		c-0.8,1.17-3.77,1.45-3.53-1.22c-3.23,0.8-5.59,1.23-7.96-1.08c1.9-1.86,4.12-0.63,5.01,1.08c0.87-1.01,0.31-1.59,1.28-2.64
		c-3.68-0.69-4.12-0.86-7.31-3.06c-1.97,1.74,0.99,1.78,1.8,2.56c-1.1,2.02-2.78-1.14-3.82,1.3c-0.66-1.57,1.7-4.22-0.66-5.23
		c-2.5,2.57-0.24,0.43-3.64-0.98c0.02,0.75,0.37,1.4,0.8,2c-1.82-1.57-4.96-4.06-8.02-6.21c-3.3,2.04-1.66-1.5,0.93-0.37
		c0.21-0.55-0.17-0.88,0.22-1.5c-1.41-2.15-3.31-1.17-3.36-3.85c-1.95,0.1-1.98,3.31,0.21,3.22c-2.41,1.72-3.3-3.58-5.01,0.26
		c-0.74-0.8-1.05-4.25-3.23-2.84c-1.47-1.1,1.29-1.15,1.39-2.55c-1.91-0.71-2.84,2.19-4.79,1.23c1.38-1.17,3.03-1.4,4.33-2.96
		c-1.99-0.96-3.13,1.1-5.05,0.38c0.65-1.28-1.16-1.41,0.15-3.01c0.98,2.76,2.41,1.46,5,1.13c-0.02-1.86-6.89-4.24-9.09-2.62
		c-0.56-1.23-3.85-1.09-2.62-3.2c2.04,0.16,1.21,1.73,3.25,1.9c0.75-1.03,0.12-1.39-0.56-1.72c2.65-0.77,4.12,3.08,7.11,2.6
		c1.02,0.05,0.19-0.91,0.99-1.92c2.55-1.3,3.55,3.37,5.44,0.55C406.74,62.67,413.13,62.43,416.3,62.87z"/>
	<path class="st0" d="M456.13,96.19c0.21,1.73,1.51,4.08,4.36,2.23C458.36,97.44,455.98,95.12,456.13,96.19z"/>
	<path class="st0" d="M452.27,103.49c2.58,2.34,5.2,3.61,8.13,2.31c-2.82-3.05-2.94-3.79-4.98-5.53
		C456.2,101.95,453.11,101.74,452.27,103.49z"/>
	<path class="st0" d="M449.73,95.36c2.25,1.34,3.16,3.07,3.19,5.84C455.51,100.16,454.06,92.38,449.73,95.36z"/>
	<path class="st0" d="M446.26,93.11c0,1.35,2.5,3.19,3.99,0.82C448.92,93.15,447.58,92.7,446.26,93.11z"/>
	<path class="st0" d="M444.24,98.84c1.12,0.98,2.26,1.16,3.46-0.4C446.56,97.45,445.41,97.28,444.24,98.84z"/>
	<path class="st0" d="M439.66,88.14c0.33,1.84,3.79,2.85,5.59,4.33C446.62,89.88,442.06,87.3,439.66,88.14z"/>
	<path class="st0" d="M439.35,93.99c1.48,1.66,2.88,3.22,5.42,1.68C442.97,94.54,441.13,92.87,439.35,93.99z"/>
	<path class="st0" d="M413.75,75.24c2.09,2.32,5.72-1.66,6.12,0.51c-0.35,0.66-3.17,0.1-1.76,1.57c1.65-1.57,1.51,1.21,2.71,1.32
		l1.65-2.43C421.25,72.34,416.84,74.04,413.75,75.24z"/>
	<path class="st0" d="M410.85,70.73c0.9,0.27,1.92,1.15,2.61,0.39c-0.72-0.66,0.72-2.18-1.49-2.26L410.85,70.73z"/>
</g>
<path class="st0" d="M116.56,84.89c0.91-2.56,3.21-1.51,3.52-3.52c-1.41-0.83-2.74,2.2-4.11,1.15c1.31-4.24,7.23-2.08,10.37-4.58
	c-0.51-0.71-1.51-1.52-0.97-2.03c1.2,0.38,2.38,1.09,3.57,1.16c2.29-3.83,11.41-5.72,11.67-10.84c-1.52-0.25-4.4,2.1-4.07-1.01
	c-2.96,1.46,1.06,1.94,0.19,3.34c-0.48-0.38-1-0.39-1.57,0.11c-1.32-3.1-3.98,1.84-6.91,1.78c-0.69,1.62,2.44,1.06,1.4,2.61
	c-2.83-1.08-5.41,0.05-3.22,2.13c-0.46-1.04-4.01,3.14-4.17,0.14c-5.33,4.28-5.75,2.92-9.39,6.74
	C115.19,83.62,114.24,83.33,116.56,84.89z"/>
<path class="st0" d="M234.03,35.47c-0.29-1.14,1.71-0.75,1.61-1.78c-0.98,0.51-2.87-2.11-1.36-2.61c1.43,0.84,1.22-1.38,2.61-2.92
	c-2.87,2.31-8.61,2.94-8.82,5.69C229.87,31.55,234.26,32.51,234.03,35.47z"/>
<g>
	<path class="st0" d="M277.26,35.54c4.37,0.58,5.78,1.22,9.75-0.47c-0.68-0.91-0.7-2.59-2.06-2.74c0.57-0.81,1.22-0.27,3.27-0.82
		c0.62,2.63,2,4.34,3.59,5.84c0.34-0.28,0.68-0.56,0.96-0.9c-0.07,0.48-0.16,0.88-0.25,1.25c0.36-0.07,0.71-0.24,1.06-0.49
		c-0.09-0.46-0.2-0.89-0.17-1.47c0.9-1.12,1.67-0.77,2.37-0.29c0.31-0.21,0.62-0.35,0.91-0.36c-0.24-0.01-0.47-0.02-0.69-0.05
		c0.51-1.36,2.04-1.61,3.26-2.22c0.07-0.45,0.13-0.91,0.2-1.36c2.54,0.82,2.44-2.46,4-0.63c0.09-0.74-0.04-1.27-0.34-1.64
		c-0.54,0.04-1.1,0.1-1.77,0.28c0.11-0.31,0.24-0.54,0.38-0.74c-0.09,0-0.11-0.07-0.21-0.06c0.16-2.03,4.57,0.72,4.76-1.28
		c0.26,0.11,0.42,0.24,0.52,0.37c1.15-1.11-0.78-3.06,1.94,0.52c-1.12,0.62-2.01,0.77-2.88,0.82c-0.58,0.27-1.26,0.42-1.69,0.35
		c0.63,0.96,0.51,2.64,1.86,2.87c0.91-0.19,0.65-1.75,0.81-2.8c2.53,0.7,4.81,2.72,5.45-1.19c3.27,3.27,7.31,1.44,10.47,2.84
		c0.19-0.2,0.32-0.39,0.43-0.58c-0.41-0.04-0.81-0.07-1.23-0.12c-0.18-0.34,0.44-0.52,1.39-0.62c-0.08-0.32-0.37-0.61-1-0.85
		c1.94-2.09,4.17,0.44,4.79-0.25c0.44,0.11,0.49,0.53,0.46,1.01c0.73,0.01,1.41,0.03,1.91,0.03c-0.57,0.35-1.25,0.55-1.97,0.7
		c-0.01,0.14-0.03,0.29-0.04,0.42c2.15-0.14,2.47,1.93,3.44-0.34c0.56,2.81,4.39,2.97,5.11,5.58c-1.14-0.45-4.61-3.95-4.68,0.15
		c-0.74-0.2-0.34-1.34-0.31-2.17c-1.32,0.42-2.58,0.9-4.15,0.99c-0.79-1.39-1.73-2.67-2.82-3.82c-1.73,0,0.76,1.29-0.35,2.79
		c-1.35-2.8-2.68,1.14-3.17,1.43c-0.1-0.33-0.2-0.66-0.19-1.01c-0.03,0.88,0.05,1.1,0.19,1.01c0.38,1.3,1.51,2.4,2.99,3.18
		c2.6-0.37,5.17-0.5,7.3-0.23c0.77-0.03,0.75-1.22,0.99-2.02c1.54,1.09,1.8,1.68,0.71,3.63c0.34,0.05,0.55,0.03,0.82,0.04
		c0-0.01,0-0.02,0-0.03l0.44,0.05c1.63,0,2.12-0.38,3.11,1.2c0.84-0.2,1.49-0.71,1.69-1.91c13.49,3.43,24.87,3.78,34.6,4.74
		c-2.7,1.55,1.73,1.71-0.2,4.37c0.63-0.22,1.26-0.43,2.11-0.16c0.23-1.36-2.22-1.19-0.88-3.2c2.6,2.04,4.25,1.73,4.1,5.59
		c-1.73,1.64-2.16-4.07-3.6,0.46c-15-4.06-24.82-6.74-39.47-9.05c-0.29,0.86-0.89,1.64-1.88,1.46c0.4-0.86,0.3-1.32,0.15-1.73
		c-0.88-0.13-1.7-0.27-2.61-0.4c0.01,0.26,0.04,0.6,0.06,1.13c-0.14-0.56-0.35-0.93-0.6-1.2c-0.77-0.11-1.64-0.21-2.44-0.32
		c-1.9,0.55-4.21,1.7-5.84-0.32c-0.35,0.49-0.48,1.28-0.93,1.62c-0.2-1.05-2.13-0.55-2.75-1.24c-0.5,0.11-1.01,0.23-1.52,0.3
		c-0.5,0.39-0.89,0.93-0.93,1.93c-1.73,0.33-4.9-1.16-5.69,0.41c0.56-0.71,1.58-1.4,2.79-2.04c-8.85,0.07-18.62-3.07-25.88-0.4
		c0.3-1.05,0.89-1.8,1.19-2.85c-1.97-0.45-2.31,0.79-3.82,0.85c-1.73-3.74-8.89,0.45-11.03-1.51
		C275.4,38.6,276.55,37.54,277.26,35.54z"/>
	<path class="st0" d="M312.41,35.4c-0.03-0.01-0.05,0-0.09,0c-0.34,0.34-1.16,0.67-1.38,1.34C311.86,36.82,312.81,36.94,312.41,35.4
		z"/>
	<path class="st0" d="M310.39,35.4c0.12,0,0.23-0.03,0.35-0.04C310.63,35.37,310.5,35.37,310.39,35.4z"/>
	<path class="st0" d="M296.89,35.12c0.31,0.06,0.59,0.34,0.87,0.79c0.06-0.05,0.11-0.06,0.17-0.14
		C297.87,35.24,297.41,35.15,296.89,35.12z"/>
</g>
<path class="st0" d="M375.63,85.67c-3.19,0.08-4.13-2.26-6.24-1.93C371.03,85.32,373.16,86.89,375.63,85.67z"/>
<path class="st0" d="M389.67,53.38c-1.15,2.22-3.43,1.36-4.77,2.99c2.69-0.24,0.36,2.16,2.41,2.25
	C385.46,55.28,390.36,56.11,389.67,53.38z"/>
<path class="st0" d="M399.96,74.01c-0.55-0.54-0.68-1.27-0.06-2.35c-2.08,0.1-1.99-0.57-3.03-1.95
	C395.78,71.85,399.79,74.05,399.96,74.01z"/>
<path class="st0" d="M549.11,211.02c-1.6-1.2-4.26,1.2-3.46,2.49C546.74,212.17,550.34,210.75,549.11,211.02z"/>
<path class="st0" d="M559.04,316.32c-0.46,2.42-0.75,1.3-1.73,0.28c0.07,1.04-1.54,1.23-0.42,1.7c2.03-1.67,0.57,2.38,1.81,2.74
	C559.98,319.93,560.49,316.11,559.04,316.32z"/>
<path class="st0" d="M526.27,377.27c-0.1,2.99-4.68,2.5-3.57,4.19c1.13-0.32,1.87-1.54,3.42-0.99c-1.26,2.57-7.63,4.03-3.27,5.05
	c-1.05-1.68,2.84-2.62,4.43-2.5C526.09,381.65,526.98,375.73,526.27,377.27z"/>
<path class="st0" d="M515.78,441.08c1.82-0.18,3.21-3.25,5.51-0.12C524.49,437.21,514.91,438.35,515.78,441.08z"/>
<path class="st0" d="M467.77,431.54c4.14-5.08-1.69-0.91-2.5,0.11C466.09,431.45,466.91,431.34,467.77,431.54z"/>
<path class="st0" d="M377.28,511.71c0.44-0.59,1-3.75-0.55-3.55c-0.38,2.66-2.19,1.45-2.49,3.65c1.19-0.34,1.97,0.03,2.59,0.77
	c-1.88,1.55-2.3,0.78-4.92,1.3c0.27,1.32,1.3,1.28,1.64,2.52c-2.8-0.35-3.61,2.38-5.06,3.44c2.05-0.69,2.73,0.99,4.78,0.29
	c1.05-3.2,3.36-2.91,7.6-5.01c-0.71-1.26,0.45-1.6,0.64-2.42C379.71,513.15,378.61,512.19,377.28,511.71z"/>
<path class="st0" d="M250.11,31.26c3-0.11,3.18-2.37,4.84-3.52c2,0.35,3,2.06,4.56,2.98c2.37-2.06,7.32-0.07,11.88-1.85
	c-3.21,0.61-4.15-1.61-5.76-3.07c-2.22,2-4.05,0.53-5.76,2.76c-0.15-1.32-0.74-1.42-1.45-0.54c-0.16-1.74-0.38-3.4-1.89-3.32
	c-1.17,2.15-4.2,2.85-5.35,4.98c-0.83-0.83-1.48-1.94-2.53-2.49c0.21,0.95-0.02,1.57-0.26,2.18
	C249.56,29.1,250.07,29.83,250.11,31.26z"/>
<path class="st0" d="M379.03,86.1c-1.24-0.57-1.94,1.01-2.98,1.24c1.58,0.03,0.35,1.69,0.6,2.48c1.69-0.09,4.05,3.02,5.18,0.34
	C380.06,89.27,377.33,88.96,379.03,86.1z"/>
<path class="st0" d="M402.81,481.05c3.39,4.86,2.22,7.92-0.64,10.35c-1.44-3.29-4.83-0.89-6.71-2.81c1.59,2.72-1.41,2.61-0.35,3.93
	c-0.81-0.81-1.77-1.23-2.86-1.27c1.7,3.16-3.07,3.43-5.31,4.8c1.13,2.45,1.57,1.63,1.72,3.96c4.02,1.08,10.82-1.02,13.49-0.9
	c4.1-5.73,17.48-0.27,24.42-5.51c4.58-3.49,3.53-10.29-3.36-16.88C417.02,474.41,406.86,474.21,402.81,481.05z"/>
<path class="st0" d="M512.75,129.93c1.33-0.67,1.01-1.45,2.24-2.12c-0.84-0.83-1.78-1.31-2.92-1.05c1.36,1.25,1.22,1.71-0.51,1.77
	L512.75,129.93z"/>
<path class="st0" d="M555.26,197.93c-1.01-1.12-0.23-4.74-3.01-3.47C552.98,196,553.01,198.44,555.26,197.93z"/>
<path class="st0" d="M529.94,338.36l-1.03,2.55C530.95,342.43,532.63,338.26,529.94,338.36z"/>
<path class="st0" d="M452.05,406.77c1.69-0.97,1.49-2.23,0.56-3.57C452.22,404.35,450.88,405.36,452.05,406.77z"/>
<path class="st0" d="M423.5,425.71c2.63,1.78-1.81,1.45-0.4,2.87c1.8-1.56,7.15-1.37,5.91-3.84
	C426.38,425.54,426.4,427.02,423.5,425.71z"/>
<path class="st0" d="M351.95,486.12c-0.16,2.51,2.81,4.47,3.32,2.17c-0.84-0.15-1.64-0.4-2.3-0.94c0.04-1.24,2.98-0.63,2.71-2.09
	C354.19,484.25,354.27,486.21,351.95,486.12z"/>
<path class="st0" d="M223.53,483.44c0.74,0.24,1.42,0.53,0.86,1.64c2.95,0.01,5.51,0.84,6.21-0.92
	C227.84,485.16,225.36,482.58,223.53,483.44z"/>
<path class="st0" d="M168.2,465c-1.54-0.64-3.26-2.18-4.03,0.6C165.65,466,167.07,466.07,168.2,465z"/>
<path class="st0" d="M113.06,441.15c-4.29-2.13-6.02-3.6-9.51-5.34c1.43,2.77,4.21,5.96,7.95,6.04
	C110.85,440.95,112.28,441.44,113.06,441.15z"/>
<g>
	<path class="st0" d="M102.25,432.84c-0.07-0.16-0.03-0.28-0.02-0.4c-0.26-0.17-0.55-0.34-0.95-0.53c0.84-1.1,1.35-2.16,1.69-3.19
		c-1.34-0.87-2.41-2.61-1.36-4.15c-0.11,0-0.21,0-0.32,0c-0.72,0.1-0.66,0.9-2.42,1.55c0.19-1.18-1.38-2.54-2.77-2.38
		c-0.06-0.84,0.98-0.35,1.95-0.5c0.06-0.23,0.1-0.45,0.27-0.77c-1.55,0.15-3.3,1.49-5.01,2.61c-1.12-2.13-3.74,0.25-3.34-2
		c-1.38,0.97-1.52,1.88-0.4,2.7c-1.77,1.33-2.64-3.3-4.42-2c-0.67-1.77,2.53-1,3.17-0.16c0.34-1.06,1.8-2.18,1.04-3.17
		c-0.8-0.42-1.89,0.84-2.86,1.48c-1.07-1.81-1.18-4.2-3.71-3.1c0.95,0.68,1.87,1.53,2.78,2.47c-0.25,0.66-2.04-0.61-3.74-1.95
		c-0.06,0.04-0.1,0.05-0.17,0.09c0.01-0.09-0.01-0.15-0.01-0.23c-0.85-0.67-1.66-1.35-2.21-1.78c0.75,0.07,1.47,0.35,2.16,0.71
		c-0.52-3.27-4.05-4.51-5.02-7.1c-1.39,0.13-2.01,0.59-1.48,1.78c-3.08,0.29-2.59-2.86-3.59-2.75c-0.38-0.61,0.82-1.17,1.51-1.75
		c-1.63-1.22-0.17-2.88-2.71-1.86c1.9-2.33-0.68-4.78,0.95-7.07c0.43,1.01,0.02,5.61,3.44,2.76c0.36,0.6-0.85,1.16-1.55,1.72
		c1.28,0.51,2.56,0.94,3.74,1.84c-0.58,1.47-0.96,2.95-1.13,4.43c1.23,1.05,0.52-1.37,2.54-1.76c-1.13,2.36,1.63,1.35,2.88,1.02
		c0.38-1.66-0.99-1.15-2.1-2.2c1.33-1.34,2.93-0.71,3.27,0.3c0.14-0.99-0.02-2.05-0.46-3.08c-0.52,0-1.08,0.14-1.73,0.6
		c-7.35-10.36-15.53-17.2-22.01-23.55c3.21,0.41,0.04-2.27,3.54-3.13c-0.64-0.2-1.27-0.42-1.69-1.1c-1.23,0.87,0.72,2.17-1.82,2.89
		c-0.35-3.02-1.81-3.75,1.3-6.53c2.56-0.22-1.55,4.27,3.02,1.74c5.4,7.9,9.52,13.95,14.41,20.18c0.88-0.38,1.86-0.49,2.38,0.2
		c-0.88,0.33-1.2,0.67-1.42,1.01c0.51,0.63,1,1.27,1.52,1.91c0.2-0.19,0.41-0.4,0.79-0.74c-0.32,0.43-0.43,0.77-0.5,1.08
		c0.53,0.64,1.1,1.3,1.65,1.95c1.89,0.77,4.43,1.41,3.56,4.09c0.14,0.16,0.28,0.31,0.42,0.47c5.52,1.83,9.4,6.19,13.18,10.49
		c0.5-0.1,1.02-0.3,1.59-0.82c1.28,0.63,2.33,2.75,3.69,3.04c-1.02,0.08-2.28-0.07-3.62-0.34c2.98,3.31,6.04,6.32,9.97,7.69
		c-0.3,0.16-0.6,0.25-0.9,0.37c1.4,1.35,2.28,2.69-1.56,0.63c-0.24,0.1-0.48,0.17-0.72,0.29c1.03,1.52,2.28,0.85,3.39,1.73
		c-0.28,0.56-0.26,1.06-0.13,1.53c0.81,0.19,1.63,0.33,2.44,0.48c0.12,0.55-0.05,1.14-0.43,1.76c0.3,0.2,0.59,0.4,0.91,0.6
		c2.59-1.54,3.64-0.65,5.84,0.54c-1.56,0.47-3.09,0.26-4.62,0.19c1.39,0.84,2.58,1.68,2.55,2.7c-0.74-1.63-2.43-1.58-4.55-0.6
		c-0.6-0.7-1.06-1.29-1.51-1.83c-2.21,0.44-1.86-1.21-2.19-2.12c-0.24-0.18-0.48-0.36-0.76-0.52c-0.12,0-0.21-0.03-0.37,0
		c-0.58,0.67,0.4,1.12,0.87,1.65c-1.51,0.75-2.9-0.07-4.35-0.28c0.01,0.23,0.05,0.46,0.24,0.66c-0.67,0.14-0.96-0.13-1.53-0.56
		C102.57,432.81,102.42,432.77,102.25,432.84z"/>
	<path class="st0" d="M105.46,430.29c-0.16-0.05-0.24-0.11-0.41-0.16c-0.11,0.43-0.39,0.88-0.64,1.33
		C104.87,430.91,105.18,430.58,105.46,430.29z"/>
	<path class="st0" d="M81,410.14c0.75-0.61,0.87-0.8,0.69-0.83c0.08-0.12,0.12-0.27,0.19-0.4c-0.19,0.17-0.4,0.34-0.71,0.49
		c0.23-0.06,0.43-0.1,0.52-0.09C81.49,409.6,81.29,409.9,81,410.14z"/>
	<path class="st0" d="M91.51,414.71c-0.11-0.06-0.21-0.12-0.32-0.18c-1.6,1.57-2.05-2.58-3.84-0.15c0.81,1.13,1.78,1.54,2.79,1.62
		C90.6,415.58,91.27,415.13,91.51,414.71z"/>
</g>
<path class="st0" d="M93.67,430.59c-0.87,4.86-0.64,0.76,1.91,1.62c1.58,0.53,1.72,3.19,4.51,1.77
	C97.12,432.82,97.04,431.07,93.67,430.59z"/>
<path class="st0" d="M87.93,397.65c0.23-0.66-0.94-4.06-2.97-2.12C87,396.49,86.16,397.65,87.93,397.65z"/>
<path class="st0" d="M154.51,426.94l-0.38,0.47c0.93,0.32,1.85,0.64,2.74,0.9L154.51,426.94z"/>
<path class="st0" d="M494.42,108.5c0.88-1.26-2.68-2.26-1.54-3.49c4.97,0.91,2.77,6.14,5.83,8.71c0.8-0.48,1.68-1.38,2.29-0.94
	c-0.38,1.05-1.14,2.11-1.16,3.15c4.55,1.78,7.19,9.55,13.13,9.52c0.21-1.33-2.64-3.68,0.96-3.57c-1.83-2.48-2.18,1.02-3.85,0.33
	c0.42-0.44,0.4-0.88-0.2-1.34c3.51-1.3-2.33-3.34-2.41-5.87c-1.91-0.51-1.1,2.16-2.95,1.34c1.11-2.5-0.34-4.66-2.63-2.67
	c1.18-0.45-3.83-3.3-0.37-3.59c-5.22-4.38-3.67-4.81-8.27-7.75c-1.68,2.09-1.39,1.25-3.07,3.33
	C493.18,106.3,492.08,108.34,494.42,108.5z"/>
<path class="st0" d="M553.31,204.48c1.31-0.31,0.96,1.43,2.14,1.3c-0.64-0.82,2.29-2.59,2.95-1.31c-0.9,1.28,1.66,0.98,3.51,2.1
	c-2.82-2.36-3.84-7.28-7.03-7.32C557.63,200.69,556.75,204.52,553.31,204.48z"/>
<g>
	<path class="st0" d="M565.82,284.49c-0.19,0.67-1.52,0.39-2.48,0.43c0.27,1.85-2.11,2.23,0.57,2.95c-3.22,0.63-3.2,3.94-6.19,4.7
		c0.46-1,4.33-4.18-0.41-4.03c0.2-0.65,1.53-0.36,2.49-0.38c-0.56-1.12-1.17-2.18-1.35-3.53c1.57-0.75,3-1.63,4.27-2.63
		c-0.09-1.49-1.45,0.72-3.25-0.16c3.17-1.31-1.46-2.26-1.81-2.66c0.38-0.1,0.75-0.2,1.16-0.22c-1.02,0.02-1.27,0.1-1.16,0.22
		c-0.41,0.11-0.79,0.28-1.15,0.48c-0.27,0.5-0.65,0.91-1.4,1.04c-0.21,0.21-0.39,0.44-0.57,0.68c0.71,0.58,2.74,0.33,2.08,1.74
		c-1.77,0.04-2.47,0.14-3.09,0.03c-0.22,0.59-0.34,1.21-0.4,1.84c0.53-0.33,1.13-0.61,2.57-0.23c-0.21,3.15-2.3,10.36-5.92,9.59
		c0.15,0.77,1.97,0.67,3.16,0.89c0,2.08-3.17,1.36-5.15,1.68c1.1-2.1-2.19-1.9-1.11-3.99c-4.49,2.87-1.07,5.01-2.86,8.47
		c2.75,0,4.61-0.83,4.62-3.3c1.08,0.97,0.94,2.57,1.02,4.04c-1.43-0.26-1.81,0.45-3.31,0.12c-1.3,2.12,1.34,2.35,0.95,4.04
		c-1.45-0.15-1.57-0.92-3.11-1.02c8.83,7.96-3.87,11.65,1.02,19.97c-1.32-2.34-3.26-1.84-4.63-4.44c-1.03-0.07-1.09,0.89-0.3,1.07
		c-6.97-1.94-5.13,4.84-5.06,8.41c-2.35-1.36-1.72-3.71-2.44-5.63c-1.94,0.52-3.72,3.38,0.44,4c-1.75,1.34-1.05,2.2-1.43,4.13
		c-1.75,1.12,0.61-2.9-1.44-3.18c-3.64,0.46-3.93,6.17-4.12,6.7c-0.43,1.33-0.73,2.6-0.77,2.02c0.2,3-3.37,3.28-4.37,4.61
		c1.15,0.35,1.45,0.91,2.28,1.34c-0.27,0.29-0.87,0.34-1.53,0.33c0.4,0.56,0.72,1.17,0.35,1.74c-0.08,0.11-0.18,0.26-0.26,0.39
		c0.12,0.02,0.23,0.01,0.35,0.04c-0.24,0.15-0.42,0.25-0.62,0.36c-0.45,0.66-0.94,1.39-1.47,2.23c0,0.05-0.01,0.07,0,0.13
		c-0.03-0.01-0.04,0-0.07-0.01c-1.38,2.2-2.81,4.95-3.53,7.95c0.34-0.36,2.01,0.68,1.21,2.25c0.65,0.15,1.01-0.19,1.75,0.11
		c2.41-1.33,1.18-2.92,4.27-3.1c-0.22-1.67-3.93-1.54-3.71,0.35c-2.12-1.99,3.97-3.03-0.55-4.31c0.89-0.68,4.86-1.13,3.11-2.93
		c1.19-1.33,1.4,1.05,3.02,1.07c0.73-1.68-2.68-2.34-1.67-4.07c1.42,1.13,1.77,2.54,3.65,3.58c1.01-1.77-1.44-2.65-0.7-4.34
		c1.52,0.5,1.57-1.07,3.49-0.03c-3.14,0.99-1.57,2.16-1.05,4.37c2.15-0.11,4.55-6.16,2.56-7.98c1.39-0.55,1.06-3.38,3.57-2.43
		c-0.09,1.77-1.94,1.14-2.03,2.9c1.23,0.6,1.62,0.04,1.97-0.57c1.02,2.25-3.35,3.71-2.64,6.27c0,0.88,1.06,0.12,2.27,0.75
		c1.63,2.14-3.71,3.24-0.36,4.73c-3.82,0.89-3.22,6.39-3.56,9.15c-4.39,0.66-4.15,4.65-6.72,7.23c4.03,0.6,3.13-2.34,5.61-5.17
		c2.11,2.17-2.9,3.44-2.7,6.45c-2.9-1.99-1.71,3.89-5.09,0.92c-0.19,3.45-1.4,4.14-4.64,6.11c4,4.71-4.1,9.54-3.13,12.8
		c-0.19,0.24-0.41,0.5-0.6,0.74c0.53,0.12,1.08,0.17,1.61,0.08c0.48,0.71-0.1,1.51,1.35,2.12c-1.59,0.22-2.72-0.36-3.74-1.23
		c-1.71,2.13-3.47,4.29-5.3,6.48c0.84,0.53,1.81,1.15,3.19,1.04c-0.88,0.66-0.19,1.21,0.58,1.75c-3.87,1.98-2.33,4.56-6.25,7.52
		c-0.76-1.16-0.3-2.72,1.33-2.75c-3.07-0.59-1.04-2.46-1.13-4.85c-4.71,5.58-9.76,11.31-15.17,17.07
		c-4.81,4.94-9.86,9.86-15.13,14.6c-0.31,0.74-0.57,1.49-0.16,2.31c-1.17,0.34-1.58-0.93-0.65-1.41c-0.06-0.04-0.07-0.05-0.13-0.08
		c-4.53,4.02-9.19,7.92-14.06,11.53l-1.56-1.62c0.6,1.13-0.94,5.61-2.01,2.37c0,3.81-6.41,5.03-8.37,7.48
		c2.46-5.9,8.39-11.91,14.58-16.15c-0.23-0.11-0.48-0.21-0.83-0.28c0.99-1.93,1.66-3.88,4.54-5.54c0.12,1.28,1.1,1.56,2.18,1.76
		c-1.5-1.13,1.51-4.55,2.84-3.51c0.69-1.18,1.01-2.4,1.39-3.61c0.25-0.03,0.51,0.1,0.77,0.13c0.41-0.69,0.86-1.35,1.33-1.97
		c-0.26-1.26,0.49-2.12,1.58-3.47c0.15,0.45,0.19,0.9,0.2,1.34c1.84-2.08,3.79-4.14,5.23-7.13c0.4,1.13,1.03,1.59,2.24,1
		c-1.07-3.18,1.21-5.36,4.06-6.38c1.55-0.82-0.44-1.74,0.33-2.59c-2.13,1.21-7.89,2.81-9.59,1.04c-0.55,1.04-1.43,1.83-2.45,2.56
		c1.94,0.77,1.56-1.55,3.38-0.05c-0.76,2.61-1.66,2.53-1.9,5.01c-1.56-0.84-0.06-1.44-0.97-2.22c-1.09-0.38-2.01-0.04-2.86,0.62
		c-0.61,1.15,1.44,0.27,1.37,1.83c-1.94-0.2-2.11,1.25-1.53,2.45c-1.53,1.59-0.63-0.26-2.2-1.07c-1.28,1.02,0.21,2.32,1.65,3.62
		c-0.66,1.07-1.66,0.03-2.62-0.7c-1.32,3.76-4.23,7.02-7.58,9.99c0,0-0.01,0.01-0.01,0.01c0,0,0,0,0,0c-1.73,1.54-3.56,3-5.36,4.41
		c-0.76,4.42-5.35,11.23-10.03,14.22c-0.52,0.49,0.46,1.32,0.95,2.03c-1.98,0.17-2.65-0.09-3.47-2.14c-2.28,1.44-1.68,2.4-4.13,1.78
		c-0.43,0.66-0.47,1.41,0.37,2.38c-12.35,5.81-20.68,12.52-28.35,17.79c0.64-2.75-2.62-0.15-3.44-3.21
		c-0.27,0.54-0.55,1.07-1.36,1.41c0.95,1.11,2.55-0.51,3.24,1.72c-3.51,0.15-4.42,1.37-7.48-1.45c-0.11-2.03,3.97,0.89,2.63-1.71
		c-6.02,1.76-10.17,9.41-19.13,9.34c-1.76,1.32,0.61,1.48,0.01,3.04c-6.35,3.42-9.42,2.24-12.05,4.75
		c-1.17-1.55-2.78-1.98-5.14-0.71c-0.2-0.82,0.92-0.9,1.6-1.22c-0.28-1.92-1.77-0.92-2.62-1.47c-0.48,0.79,1.09,1.77-1.97,2.04
		c-0.12-1.12,1.73-1.11,0.24-3.02c2.27-1.94,5.19-0.29,3.82-4.08c5.05,4.43,4.65-5.02,10.4-4.15c-2.79-4.69-4.7,3.9-7.32,0.21
		c-1.91,1.08-1.72,3.35-4.21,2.77c-0.39-1.25,1.86-1.01,1.85-2.04c-1.59-1.35-4.24,0.96-5.34,1.58c0.26,0.65,0.93,0.32,1.45,0.32
		c-0.62,0.8-4.78,2.64-3.83,0.36c-0.92,0.85-2.11,1.53-2.29,2.84c-1.64,0.57-2.43-0.48-1.91-1.7c-1.33,0.57-0.79,2.2,0.7,2.02
		c-1.2,2.04-2.95-0.38-5.89,0.05c4.93,2.7-3.83-0.68-4.85,1.14c0.48,0.47,0.96,0.97,1.21,1.92c-1.26-0.02-1.26-2.55-3.04-1.53
		c-1.44,3.61-9.56,1.61-14,6.28l-0.44-2.08c-2-0.18-2.12,1.09-3.6,1.31c0.55,0.94,1.31,1.54,2.3,1.78c-0.2,0.9-2.46-0.07-3.65,1.29
		c0.02-1.36,1.56-1.54,0.6-3.67c-2.32,1.02-3.75,1.39-5.73,0.07c-1.59,0.37,1.05,1.1,0.46,2.79c-2.67-1.43-5.79-3.14-5.5,2.06
		c-3.56-1.31-4.99,6.94-12.38,6.09c1.86-1.79,0.45-0.72-0.82-2.06c-0.94,0.87-1.44,2.14-2.4,2.98c-2.14-1-1.86-1.34-4.64-0.5
		c-0.16-1.91,1.01-1.46-0.14-2.81c-1.65,2.32-2.65,1.68-5.1,3.68c0.37-1.82-0.49-3.74-3.32-1.33c-0.5-2.05-4.01-0.8-3.92-3.48
		c-1.7-0.2-0.54,2.74-2.62,2.12c-0.24-2.73-0.66-2.5,0.71-4.22c-1.58,0.1-3.09,0.09-3.82-0.71c-0.38,2.21,1.93,1.6,1.17,4.23
		c-3.65-0.02-12.09-1.46-11.39-4.62c-0.89,0.17-0.67,1.74-0.86,2.77c-2.4,0.1-1.74-2.66-2.21-4.36c2.48,0.85,2.08-1.98,4.55-1.16
		c-3.54-3.73-5.84-0.66-9.93-2.04c0.14,2.37,1.19,3.94,4.05,3.82c-1.06,0.98-2.92,0.94-4.62,1.09c0.22-1.25-0.61-1.54-0.31-2.85
		c-2.52-1.01-2.65,1.27-4.62,1.02c0.1-1.26,0.98-1.4,1.02-2.74c-8.75,8.03-13.66-2.74-23.03,1.9c2.63-1.26,1.96-2.91,4.89-4.22
		c0.04-0.89-1.08-0.9-1.25-0.2c1.89-6.11-5.86-4.18-9.98-3.94c1.45-2.1,4.2-1.68,6.39-2.39c-0.7-1.65-4.09-3.04-4.6,0.58
		c-1.64-1.45-2.6-0.79-4.85-1.02c-1.38-1.46,3.38,0.38,3.6-1.41c-0.72-3.12-7.34-3.08-7.95-3.21c-1.56-0.3-3.04-0.5-2.37-0.57
		c-3.6,0.34-3.99-3.03-5.74-3.65c-0.65-0.23-2.24,1.86-3.69,1.23c-3.94-1.76-11.97-5.67-20.04-4.21c-0.24-0.69,0.53-1.88-0.18-2.34
		c1.92-1.82,0.73,1.84,2.54,1.66c1.13-3.55-3.17-4.52-5.51-5.06c0.02,0.79,0.94,1.16,0.12,2.36c-2.38-1.73-4.49-7.58-8.58-4.26
		c-1.35-0.21-0.53-1.35-0.01-2.36c-2.52-0.79-2.57-0.99-4.2-1.03c-0.84,0.97-0.29,1.36,0.34,1.73c-3.98,1.8-3.36-2.8-7.9-1.99
		c1.87-2.26-1.23-2.6-0.68-4.34c-8.25-0.95-21.21-7.14-27.41-13.81c-6.64,1.02-6.87-5.23-12.56-5.89c-0.31-1.38-1.54-2.57,0.33-4.35
		c-1.93,0.23-2.58,0.17-3.27-1.55c-1.3-0.77-0.31,1.38-2.18,2.09c-2.61-3.8-8.6-0.66-12.1-3c4.17-2.83,4.55,0.8,8.02-0.23
		c-0.76-2.14-1.8-5.16-4.64-5.76c0.7-0.2,1.39-0.43,2.17-1.13c-3.96,0.6-5.16-1.83-6.59-4.7c-0.88-0.35-0.59,0.76-1.78,1.44
		c-4.45-7.07-13.22-10.93-17.17-19.63c-0.71-0.45-1.95,0.7-2.99,1.25c-2.06-2.7-2.46-3-3.39-5.24c-0.93,3.8-1.95-2.6-1.16-3.9
		c-0.76-0.76-2.52,1.06-3.42,0.67c-0.9-1.91,3.61-1.41,3.03-3.67c-3.77,0.55-3.62-2.05-6.85-3.9c-0.11-1.6,2.21,1.33,3.08,1.52
		c3.42-1.46-0.13-3.38-0.9-5.18c-0.57-1.06-2.62,1.07-3.81,1.35c-0.88-1.97,2.74-3.44-0.02-5.6c-1.56-0.97-1.44,1.6-3.14,0.92
		c2.3-3.17-2.19-6.63-1.8-10.16c0.9-0.3,1.14,0.59,1.59,1.1c1.88-1.34-1.36-1.32-1.44-2.36c-0.52,0.49-1.05,0.98-0.88,1.58
		c-0.73-0.99-1.71-3.3-1.6-5.86c0.89-1.82,3.02,0.2,4.23-1.55c-0.1-0.04-0.19-0.08-0.3-0.11c-0.84,0.25-2.03,0.53-2.67,0.14
		c-0.01,0.02-0.06,0.02-0.06,0.04c-1.13-0.6-1.67-1.4-2.06-2.28l-0.95,0.37c0.39-0.26,0.62-0.55,0.76-0.86
		c-0.51-1.37-0.82-2.87-2.32-4.16c0.49,0.08,1.07,0.01,1.71-0.14c0.03-0.86,0.54-1.61,2.37-2.09c0.85,0.89-0.63,1.3-1.78,1.78
		c0.01,0.05,0.03,0.07,0.04,0.12c0.3-0.09,0.57-0.15,0.9-0.28c-0.86,3.94,2.51,4.49,5.36,5.85c0.49-0.16,1-0.36,1.64-0.77
		c-0.41-0.5-0.29-0.9,0.23-1.22c-1.22-1.98-3.22,1.95-3.71-0.24c1.34-0.27,2.12-0.65,2.56-1.08c-0.36,0.01-0.71,0.02-1.11,0.13
		c2.24-2.52,0.4-9.14-3.73-9.28c3.68-2.47,0.85-4.36,0.02-6.54c-0.2,0.01-0.29-0.06-0.55-0.01c0.18-0.25,0.23-0.48,0.36-0.72
		c-0.03-0.29-0.05-0.59,0.03-0.89c-0.9-0.95-0.95,0.95-2.51,0.22c0.54-2.09,0.56-3.61-2.38-3.66c2.4-1.44-1.35-2.93,2.18-4.29
		c-0.03-0.1-0.08-0.2-0.1-0.3c-1.26-0.26-1.7-0.85,0.8-1.54c-3-0.34-0.55-3.25-3.52-2.83c4.39-3.17-2.68-7.02-1.19-9.22
		c-1.5-0.83-4.32-0.37-4.84-2.22c2.91-4.33,0.2-4.88-2.99-9.49c0.79-1.79,0.78,2.03,2.73,1.16c-3.5-9.57-3.01-20.26-9.06-30.07
		c-0.25-0.03-0.52-0.06-0.75-0.1c0.14-0.12,0.35-0.2,0.51-0.31c-1.07-1.68-2.28-3.34-3.8-4.95c-3.34,0.34-0.44,2.21-3.22,2.14
		c-1.46-2.37-0.72-2.84-2.48-4.82c1.81-0.28,1.15,1.03,2.44,1.08c1.1-0.35,1.53-1.13,1.64-2.12c-0.44-1.21-1.28,0.64-2.44-0.56
		c1.59-0.97,0.6-2.15-0.77-2.7c-0.09-2.06,0.67-0.18,2.46-0.48c0.16-1.5-1.95-1.6-4.03-1.73c-0.34-1.17,1.21-0.99,2.49-1
		c-3.73-6.85-1.66-15.71-1.03-23c0.11-1.4,1-2.64,1.16-2.08c-1.13-3.77-0.08-10.04,5.19-9.73c-4.64-1.87,2.07-3.25,0.01-6.71
		c5.14,1.85,5.91-4.45,3.67-7.11c-3.09,0.62-3.98,3.86-3.52,6.57c-4.5-4.47,4.19-10.31-1.69-14.19c1.04-5.58,6.91-7.33,5.85-13.1
		c1.79,1.03,3.2,1.88,4.8,0.94c0.87-2.57-2.06-1.23-3.92-3.05c3.84-4.68,0.34-13.31,7.34-18.67c0.28-2-1.6-0.75-2.36-2.25
		c2.06-6.21,5.26-7.11,5.27-10.5c2.07,0.48,3.6-0.14,4.37-2.45c0.78,0.49,0.02,1.2-0.25,1.83c1.69,1.27,2.03-0.34,3.08-0.42
		c-0.26-0.87-2.18-0.68-0.12-2.65c0.96,0.76-0.43,1.82,2.16,2.38c-0.18,2.76-3.63,3.22,0.33,5.24c-7.19-0.37,0.44,6.42-4.51,9.1
		c5.71,1.87,0.47-5.62,5.27-4.39c0.58-1.9-1.32-3.48,0.98-4.49c1.26,0.7-0.6,1.82,0.21,2.59c2.23,0.08,2.4-3.17,2.74-4.26
		c-0.7-0.33-0.93,0.3-1.33,0.6c-0.16-0.95,1.51-4.72,2.57-2.48c0.02-1.17,0.38-2.36-0.5-3.43c0.78-1.37,2.18-1.05,2.73,0.16
		c0.54-1.19-1.12-2.09-2.08-1.1c-0.69-2.21,2.49-1.42,4.33-3.45c-5.76,0.85,3.37-1.72,2.72-3.66c-0.72-0.07-1.47-0.16-2.38-0.72
		c0.96-0.71,2.91,1.16,3.44-0.62c-1.73-3.52,5.84-6.73,5.53-12.77l1.94,1.29c1.62-1.02,0.73-2.04,1.66-3.06
		c-1.14-0.39-2.17-0.38-3.08,0.01c-0.55-0.79,1.88-1.38,1.71-3.07c1.04,1.03,0.03,2.04,2.4,3.07c0.93-2.1,1.7-3.21,4.2-3.37
		c0.89-1.2-1.63-0.2-2.51-1.81c3.09-0.48,6.74-1.02,2.49-4.71c3.65-1.09-1.68-8.04,4.47-11.69c0,2.41,0.22,0.79,2.21,1.05
		c0.02-1.19-0.59-2.42-0.53-3.6c2.37-0.49,2.43-0.08,3.84-2.31c1.6,1.33,0.38,1.67,2.28,2.01c-0.57-2.68,0.67-2.78,0.94-5.68
		c1.14,1.56,3.27,2.49,3.5-0.93c1.97,1.23,3.6-1.73,5.6,0.32c1.42-0.83-1.73-2.34,0.3-3.09c2.29,1.89,2.43,1.48,2.75,3.54
		c1.1-0.99,2.22-1.86,3.39-1.68c-1.43-1.86-2.67-0.07-4.15-2.46c2.72-2.1,10.11-5.92,12.04-3.17c0.52-0.64-0.85-1.68-1.51-2.56
		c1.7-1.47,3.36,0.97,5.02,1.96c-2.5,0.81-0.01,2.68-2.48,3.5c5.52,0.72,4.85-2.89,8.95-4.24c-1.94-1.68-3.94-2.24-5.97-0.49
		c0.03-1.34,1.44-2.39,2.59-3.48c0.8,1.06,1.65,0.79,2.44,1.94c2.65-0.71,0.98-2.48,2.63-3.43c0.91,0.99,0.36,1.61,1.37,2.62
		c0.27-11.03,12.27-5.88,15.62-14.75c-0.98,2.46,0.8,3.29-0.36,5.97c0.67,0.68,1.5,0.04,1.08-0.57c3.34,5.63,7.59-0.29,10.47-2.86
		c0.55,2.4-1.82,3.68-2.89,5.47c1.8,0.82,5.39-0.12,2.96-3.1c2.34,0.12,2.54-0.92,4.39-2.05c2.15,0.28-2.8,1.67-1.59,3.13
		c2.95,1.9,7.83-1.96,8.39-2.22c1.39-0.68,2.64-1.39,2.2-0.95c2.41-2.34,5.31-0.06,7.09-0.62c0.66-0.21,0.23-2.68,1.78-3.05
		c4.29-0.98,13.28-2.72,18.14-8.48c0.71,0.37,1.06,1.71,1.95,1.63c-0.01,2.46-1.97-0.95-3.18,0.24c1.91,3.29,5.86,1.52,8.01,0.57
		c-0.63-0.57-1.6-0.32-1.92-1.69c3.11-0.09,9.21,3.03,9.67-1.81c1.17-0.63,1.44,0.69,1.84,1.75c2.48-0.87,2.67-0.76,3.92-1.67
		c-0.12-1.21-0.84-1.18-1.6-1.09c1.56-3.64,4.66,0.13,7.41-3.1c0.36,2.76,2.92,1.22,3.87,2.83c6.86-4.07,21.28-6.98,31.06-5.61
		c4.14-4.6,9.16-0.1,13.89-2.9c1.3,0.85,3.13,1.02,3.13,3.42c1.25-1.29,1.78-1.62,3.63-0.74c1.56-0.18-0.84-1.21-0.01-2.82
		c4.89,1.31,6.9-4.49,11.31-4.77c-0.9,4.51-4,2.04-5.78,4.81c2.22,1.14,5.34,2.79,7.91,1.59c-0.36,0.55-0.7,1.12-0.74,2.09
		c2.47-2.73,5.25-1.62,8.54-0.32c0.93-0.25-0.15-0.91,0.21-2.1c8.79,2.67,18.29,0.47,27.97,4.63c0.87-0.07,0.91-1.65,1.25-2.65
		c3.62,0.81,4.16,0.8,6.58,1.93c-2.26-3.36,3.46,0.8,3.88,2.22c1.15,0.13,1.04-2.24,2.01-2.48c2.15,0.9-1.58,3.14,0.6,4.48
		c2.37-2.6,4.28-0.57,8.11-1.08c1.33,1.12-2.67,0.3-3.47,0.65c-1.4,3.07,2.72,2.43,4.69,3.32c1.24,0.46,1.12-2.31,1.78-3.2
		c2.18,0.95,0.63,4.14,4.36,4.15c1.91-0.19-0.17-2.03,1.62-2.5c0.75,3.68,6.76,3.65,9.22,6.5c-0.44,0.74-1.31,0.22-2.03,0.11
		c-0.08,0.44-0.01,0.68,0.12,0.83c0.16,0.06,0.32,0.11,0.48,0.18c0.69-0.01,1.77-0.53,2.3-0.09c0.01-0.66,0.02-1.33-0.57-1.68
		c1.3,0.31,3.83,1.46,5.73,3.42c0.31,0.78-0.07,1.18-0.58,1.53c0.11,0.15,0.21,0.32,0.31,0.5c0.49-0.29,1.05-0.28,1.65,0.34
		c0.08-0.12,0.15-0.17,0.24-0.34c0.24,0.18,0.22,0.47,0.14,0.81c0.04,0.06,0.07,0.08,0.11,0.14c-0.06,0.05-0.12,0.08-0.18,0.13
		c-0.21,0.55-0.58,1.18-0.79,1.72c-0.37-0.33-0.65-0.59-0.92-0.83c-0.83,0.42-1.59,1.06-2.02,2.9c0.69,0.13,0.91,0.5,0.78,1.04
		c0.26,0.08,0.45,0.08,0.63,0.07c0.21-0.09,0.42-0.17,0.61-0.3c0.62-0.8,0.19-2.72,1.71-1.73c-3.01,3.76,1.14,3.9,2.36,5.52
		c-0.08,0.13-0.19,0.11-0.28,0.19c1.24,0.32,2.48,0.66,3.18,1.63c1.41,0.12-0.1-1.25,1.6-1.69c1.33,1.81,2.56,2.89,4.68,1.13
		c-0.54,2.59,3.75,1.08,1.82,4.75c0,0,0.01,0,0.01,0c0.66-0.45,1.28-0.69,1.58-0.53c0.06-0.06,0.11-0.1,0.17-0.17
		c0.12,0.64,0.35,1.18,0.65,1.65c1.44,0.04,2.15,1.93,3.56,0.24c-0.12,1.13,0.25,1.89,0.85,2.46c1.92,0.56,3.76,0.9,4.55,1.75
		c1.45,0.33,2.71,0.69,2.98,1.58c1.74-0.32,3.35-2.38,5.24-1.39c1.48,4.84,3.85,3.57,9.88,4.88c0.91,1.74-2.22-0.96-2.88,0.85
		c12.23,5.49,21.7,15.59,38.26,17.05c2.08-2.28-1.49-1.83,0.52-3.48c2.97,0.79,2.83,1.56,5.7,1.89c-1.05,1.3-1.66-0.03-2.61,0.72
		c-0.49,0.92-0.15,1.73,0.57,2.5c1.3,0.58,0.38-1.23,2.18-1.09c-0.33,1.66,1.34,1.89,2.75,1.44c1.75,1.4-0.33,0.53-1.35,1.84
		c1.11,1.16,2.69-0.06,4.26-1.24c1.2,0.62-0.05,1.44-0.94,2.23c8.24,2.56,14.03,10.1,19.55,15.63c1.06,1.06,1.45,2.48,0.88,2.18
		c3.88,1.97,8.27,7.06,4.3,10.05c4.81-1.52,1.2,3.56,5.49,4.75c-5.15,1.84-0.54,6.75,3.23,7.27c1.67-2.33-0.35-5.16-2.89-6.8
		c6.84,0.41,5.48,9.85,12.8,9c3.83,4.59,1.12,9.41,6.58,12.84c-2.11,0.37-3.8,0.62-4.17,2.27c1.49,2.34,2.46-0.39,5.27-0.24
		c1.11,5.66,10.65,9.62,10.08,17.69c1.43,1.58,1.75-0.45,3.51,0.15c3.63,5.65,2.1,8.24,4.87,10.64c-1.85,0.93-2.43,2.3-1.08,4.4
		c-0.95,0.13-0.99-0.84-1.32-1.45c-2.23,0.14-1.15,1.48-1.83,2.18c0.89,0.46,2.1-0.85,2.25,1.8c-1.3,0.05-1.19-1.55-3.48-0.36
		c-2.13-2.06-0.07-4.5-4.52-3.5c5.38-4.13-5.56-4.27-4.26-9.19c-5.57,2.16,4.27,4.26-0.13,6.32c1.15,1.7,3.78,1.66,2.98,3.77
		c-1.47,0.28-1.07-1.65-2.27-1.7c-1.65,1.31,0.9,3.71,1.55,4.69c0.76-0.19,0.42-0.78,0.45-1.23c0.89,0.57,2.8,4.26,0.22,3.32
		c0.94,0.84,1.66,1.9,3.17,2.12c0.57,1.44-0.68,2.07-2.06,1.56c0.59,1.18,2.5,0.79,2.37-0.5c2.29,1.14-0.59,2.53-0.24,5.08
		c3.38-4.12-0.98,3.27,1.07,4.24c0.57-0.39,1.17-0.78,2.28-0.94c-0.09,1.09-3.01,0.95-1.92,2.54c4.1,1.43,1.38,8.33,6.54,12.4
		l-2.43,0.28c-0.31,1.72,1.15,1.88,1.33,3.17c1.12-0.42,1.85-1.05,2.17-1.89c1.03,0.22-0.2,2.12,1.31,3.22
		c-1.58-0.09-1.7-1.42-4.21-0.71c1.06,2.05,1.42,3.31-0.22,4.95c0.35,1.39,1.32-0.85,3.25-0.25c-1.21,1.5-2.51,3.16-1.43,4.09
		c-0.14-0.3-0.19-0.64-0.35-0.93c1.23,0.2,2.13,0.67,3.36,0.88c0.41-1.72-1.03-1.95-1.17-3.25c0.29-0.12,0.44-0.3,0.65-0.45
		c0.01-0.9,0.52-2.01,0.26-3.23c0.26,0.28,0.51,0.46,0.75,0.58c-0.25-2.36-1.87-5.25-0.49-6.5c-0.71,1.63,0.58,2.58,2.91,3.08
		c-0.14,1.17-0.27,2.07-0.36,2.9c0.73-0.79,1.3-2.03,1.74-2.74c1.87-0.99-1.57,3.93,0.62,5.06c-1.05-0.57-1.74-0.37-2.27,0.1
		c0.18,0.9,0.51,1.84,1.31,3.08c1.01-0.64,2.96-0.74,3.06-1.92c0.97,0.45,0.38,1.04,1.12,2.78c-3.19,0.71-5.14,2.1-6.87,3.65
		c1.56,1.51,4.57,3.16,5.47,5.9c0.67,0.05,1.35,0.09,2.02,0.14c-0.82,2.23,2.97,1.98,0.93,3.42c1.78,0.08,2.58-0.51,2.4-1.77
		c2.35,0.03-0.6,3.98,1.73,4.04c-0.88,1.7-2.65-0.72-2.47-1.71c-1.07,0.59-3.02,0.58-3.23,1.75c0.27,0.78,2.06,0.47,3.27,0.56
		c-0.68,2.22-2.9,4.29,1.66,4.64c-3.61,2.99-1.29,6.38-2.75,9.18c1.13,0.71,1.95,0.73,2.48-0.47
		C567.8,281.94,564.99,284,565.82,284.49z"/>
	<path class="st0" d="M543.35,203.66c0.34,1.36,0.72,2.63,2.47,2.29c0.1-0.75,0.64-1.35,1.99-1.65c-0.47-1.45-1.34-3.02-0.53-4
		c-2.81,0.14-0.62,2-0.62,3.11C544.75,202.87,545.27,204.19,543.35,203.66z"/>
	<path class="st0" d="M544.73,198.02c0.01-1.85,1.35-2.96-1.49-3.74C543.25,196.14,541.89,197.21,544.73,198.02z"/>
	<path class="st0" d="M51.13,191.72c-4.27-1.7-5.95,0.06-7.57,1.88C47.07,194.2,48.42,192.08,51.13,191.72z"/>
	<path class="st0" d="M52.2,186.85c-3.04-1.66-5,3.23-1.44,3.6C52.94,189.86,50.81,188.5,52.2,186.85z"/>
	<path class="st0" d="M465.26,436.85c0.12-0.07,0.25-0.16,0.37-0.23c-0.13-0.06-0.28-0.04-0.41-0.12
		C465.19,436.66,465.24,436.75,465.26,436.85z"/>
	<path class="st0" d="M521.29,361.15c0.73-0.65,2.56,0.51,2.54-1.4l-2.22-0.87C521.35,359.66,520.37,360.58,521.29,361.15z"/>
	<path class="st0" d="M526.58,191.81c0.61,1.83-0.91,5.12,2.15,5.01c-3.4,0.54-0.77,2.74-1.88,3.91c2.23-1.04,2.63,0.22,4.86-0.81
		C531.91,197.05,527.55,195.28,526.58,191.81z"/>
	<path class="st0" d="M515.02,361.26c-3.71-0.78-5,2.64-5.72,4.56c0.61,0.01,1.04-0.3,1.64-0.29c0.67-0.66,1.42-1.42,2.25-2.29
		c-0.77-0.79,0.03-0.84,0.91-0.98C514.41,361.93,514.71,361.6,515.02,361.26z"/>
	<path class="st0" d="M504.71,376.69c0.79,0.22,1.41,0.06,2.38,0.66c0.6-3.21,0.78-3.6,3.16-6.46c-2.11-1.61-2,0.95-2.87,1.69
		c-2.16-0.77,0.5-2.16-1.1-2.99c-0.83,0.93-0.99,2.02,0.4,3.44c-0.11,0.4-0.36,0.52-0.65,0.55c0.18,1.13-0.75,2.23-2.06,2.81
		c0.13,0.07,0.23,0.09,0.34,0.14c0.08-0.08,0.17-0.16,0.25-0.25C504.65,376.44,504.65,376.55,504.71,376.69z"/>
	<path class="st0" d="M502.05,381.25c-0.11,0.26-0.17,0.57-0.19,0.9c0.32,0.01,0.64,0.02,1.03-0.11
		C502.53,381.88,502.24,381.59,502.05,381.25z"/>
	<path class="st0" d="M496.33,384.96c-0.44,1.4-1.02,2.86-1.82,4.41c0.02,0.02,0.01,0.03,0.03,0.05
		C495.65,387.91,497.22,386.37,496.33,384.96z"/>
	<path class="st0" d="M202.31,428.39c1.31,0.06,3.04,2.06,4.12,0.73C204.57,428.22,204.81,425.59,202.31,428.39z"/>
	<path class="st0" d="M199.87,419.63c-0.86-0.96-1.5-1.78-3.05-0.5C198.67,418.79,198.27,422.48,199.87,419.63z"/>
	<path class="st0" d="M178.58,411.94c-0.44,0.59-0.87,0.52-1.31,0.94c3.13,0.63,4.54-1.99,3.98-4.5c-3.01-0.56-11.17-7.5-14.53-0.72
		C171.99,409.44,173.27,408.92,178.58,411.94z"/>
	<path class="st0" d="M163.81,422.16c1.38-1.18,2.74-0.71,4.09-1.9c-1.28-2.55-5.7,0.08-6.27-2.75
		C159.96,419.87,164.58,420.08,163.81,422.16z"/>
	<path class="st0" d="M83.08,346.26c-0.14-0.01-0.23,0.05-0.29,0.14C82.92,346.36,82.98,346.3,83.08,346.26z"/>
	<path class="st0" d="M64.91,299.47c-0.32-0.11-0.69-0.16-1.15-0.04c-1.09,0.7,0.35,1.51,0.37,2.56
		C64.58,301.04,64.82,300.22,64.91,299.47z"/>
	<path class="st0" d="M81.13,356.69c0.01,0.07,0.02,0.13,0.03,0.2c0.11-0.02,0.22-0.01,0.33-0.04
		C81.38,356.79,81.25,356.75,81.13,356.69z"/>
	<path class="st0" d="M122.67,356.36c-4.06,1.64,2.35,2.3-0.58,5.46c1.89-0.32,2.73,1.38,5.07,0.1c0.96,1.69-1.95,0.2-3.04,2.37
		c1.44,1.23,6.2,0.55,6.16,2.48c0,0.02-0.09,0.09-0.13,0.14c1.08,0.66,2.18,1.3,2.74,1.28c-0.91,0.98-2.57,0.53-3.86-0.29
		c-0.26,0.23-0.46,0.43-0.4,0.48c0.92,0.77,3.18,0.05,4.11,1.03c-0.1-0.1-1.53,0.57-1.6,0.54c0.59,0.37,2.62,0.56,3.15,1.09
		c0.9,0.88-0.81,3.71,0.35,4.71c1.04,0.89,4.42-0.4,5.69,0.27c2.22,1.16,0.21,5.41,4,4.8c1,0.89-0.38,2.26,0.29,3.23
		c4.95,1.56,8,4.3,13.4,6.06c0.51-0.29,1.38-0.71,2.28-1.18c-0.91-0.37-2.47-0.12-3.63-0.07c0.77-0.24,1.63-0.88,2.56-1.8
		c0.64,0.75,1.39,1.06,2.16,1.28c1.68-0.96,3.04-2.01,1.89-2.67c1.85,1.65,7.07,3.2,7.51-0.56c-0.42-0.38-0.83-0.76-1.27-1.15
		c-0.36,0.05-0.66,0.16-0.58,0.32c-0.31-0.6-0.7-1.2-1.13-1.78c-0.91-0.77-1.8-1.54-2.67-2.32c-1.37-0.78-3.06-1.29-5.36-1.09
		c-3.42-4.38-8.01-7.76-11.7-11.59c-2.46-1.3-4.91-2.68-8.44-3.29c-1.92,1.3,3.07,1.71-0.16,3.2c-3.78-3.47-3.58-6.56-9.53-7.14
		c1.56-1.17,1-2.18,1.3-3.26c-0.96-0.44-3.49,1.9-3.77,0.22c1.66-1.31,1.9-0.11,3.24-0.88c-1.99-0.88-2.91-1.74-4.09-4.03
		c-0.54,1.74-1.79,1.32-3.61,2.95c0.42,1.73,3.05-0.44,3.24,1.67C124.76,357.26,123.73,356.8,122.67,356.36z"/>
	<path class="st0" d="M117.46,344.84c0.66-0.14,1.12-0.46,1.46-0.86c-0.44-0.64-0.97-1.15-1.79-1.23
		C116.3,343.42,116.99,344.13,117.46,344.84z"/>
	<path class="st0" d="M87.31,311.62c-3.77-0.9-2.92-6.12-7.77-6.14c0.2,0.54,0.47,1.06,0.62,1.52c0.41-0.12,0.83-0.23,1.38-0.19
		c0.02,0.38-0.62,0.55-1.31,0.72c0,0.29-0.1,0.54-0.45,0.69c0.25,0.31,0.41,0.67,0.48,1.06c0.06,0.04,0.16,0.05,0.19,0.12
		c1.94-0.24-1.03-1.92,1.98-1.84c1.8,0.49,1.09,2.01-1.85,2.28c1.13,2.05,4.68,1.72,5.53,4.02
		C86.37,312.97,86.85,312.14,87.31,311.62z"/>
	<path class="st0" d="M79.41,299.03c0.31-0.48,0.7-0.9,1.2-1.24c-0.51-0.31-1.12-0.59-1.63-0.79
		C78,297.81,78.47,298.59,79.41,299.03z"/>
	<path class="st0" d="M229.8,92.81c-1.02,0.72-3.85,0.23-3.62,1.84C228.26,94.25,230.12,96.33,229.8,92.81z"/>
	<path class="st0" d="M238.41,97.9c1.38,0.21,2.5,0.45,2.65-1.39C239.95,97.83,237.38,94.86,238.41,97.9z"/>
	<path class="st0" d="M260.17,91.28c-0.13-0.69,0.24-0.89,0.24-1.46c-2.82,1.34-1.82,4.1,0.54,5.64c2.38-1.19,11.67-1.01,11.7-5.9
		c-0.91-0.35-1.81-0.74-2.68-1.14C266.68,89.7,265.38,90.6,260.17,91.28z"/>
	<path class="st0" d="M422.27,102.96c-0.89-0.7-1.77-1.38-2.66-2.04C419.46,102.17,421.03,103.38,422.27,102.96z"/>
	<path class="st0" d="M380.06,82.66c-0.88-0.61-1.71-0.1-2.47,0.5c0.65-0.07,1.38-0.17,2.4-0.4
		C380.01,82.71,380.04,82.71,380.06,82.66z"/>
	<path class="st0" d="M374.27,81.03c-1.41,0.08-2.75,0.32-2.96-0.43c-0.1,0.18-0.1,0.31-0.15,0.46
		C372.12,81.23,373.16,81.2,374.27,81.03z"/>
	<path class="st0" d="M363.64,72.5c0.2-0.05,0.39-0.12,0.58-0.17c-0.11-0.04-0.21-0.09-0.33-0.12
		C363.81,72.32,363.72,72.39,363.64,72.5z"/>
	<path class="st0" d="M331.06,96.86c-0.1-0.1,0.21-2.14-0.02-2.15c-1.28-0.04-2.4,1.8-3.85,1.61c0.15,0.01,0.69-1.31,0.77-1.32
		c-0.73,0.06-2.38,1.1-3.19,1.01c-0.55-0.05-1.02-0.62-1.5-1.25c-1.56,0.29-4.63,0.53-5.24,1.12c-0.21-1.62,2.43-2.29,4.32-2.21
		c-0.44-0.5-0.91-0.93-1.48-0.96c-1.47-0.06-2.97,2.86-4.43,3.1c-2.55,0.43-4.35-3.9-6.69-1.25c-1.44-0.08-1.47-1.9-2.72-2.23
		c-4.89,1.71-9.27,1.44-14.65,3.26c-0.51,1.69-2.84,6.65-0.46,6.34c-2.75-0.15-8.2,1.85-4.89,5.1c0.11,0.12,0.25,0.1,0.37,0.14
		c0.2,0.01,0.39,0.02,0.58,0.03c0.61-0.2,1.11-0.84,0.81-0.96c3.14,1.2,7.25,1.98,10.82-1.46c2.49,0.53,4.99,0.81,7.49,1.01
		c3.05-0.65,6.15-1.1,9.41-2.98c0.29-2.09-3.57,0.66-2.5-2.36c5.51,0.15,7.9,2.45,12.58-0.77c-0.14,1.78,1.08,2.15,1.75,3.1
		c1.04-0.28,0.91-3.48,2.49-2.46c-0.1,1.94-1.25,1.24-1.57,2.61c2.13-0.6,3.48-0.55,6.19,0.35c-1.05-1.56,0.18-2.03,0.14-4.29
		c-1.71-0.97-1.8,2.17-3.66,0.8c1.45-2.21,4.14-1.36,5.68-3.51c0.09-0.33,0.11-0.7-0.07-1.16
		C335.54,95.06,332.52,98.32,331.06,96.86z"/>
	<path class="st0" d="M357.42,98.2c-0.95,0.14-2.39-1.38-3.04-0.22c1.04,0.23,1.92,0.46,2.67,0.66
		C357.17,98.5,357.33,98.43,357.42,98.2z"/>
	<path class="st0" d="M341.2,96.65c-0.27,0.32-0.64,0.36-1.03,0.33c-0.3,0.78-0.23,1.23,0.09,1.46c-1.52,1.38-1.35-0.66-0.47-1.9
		c-1.02,0.38-2.13,0.48-2.66,2.11c-0.17-0.06-0.26-0.12-0.36-0.18c-0.18,0.07-0.35,0.08-0.51-0.07c-1.23,4.14,2.01,5.9,4.43,3.73
		c0.16-0.81-0.68-0.75-1.21-0.96c1.2-0.72,1.95-2.75,3.37-2.95c-0.82,2.22-0.35,3.71,0.21,5.84c0.77-0.51,1.72-0.37,2.71-0.11
		c0.92-0.6,1.83-0.88,2.71-0.89c-1.14-0.24-2.36-0.43-1.3-2.46c1.31,2.96,2.96,1.1,5.18-0.16c-1.32,2.36,2.13,3.83,5.2,3.12
		c0.39-0.46,0.86-0.63,1.4-0.52c0.35-0.18,0.69-0.38,1-0.65c0.27-0.6,0.27-1.02,0-1.25c1.23-0.78,1.63,0.73,3.59,0.32
		c-0.3,0.99-0.75,1.36-1.24,1.51c0.3,0.87,0.54,1.48,1.62-0.01c-0.27,2.49,1.96,3.23,3.88,4.26c0.69-1.05,0.23-1.36-0.3-1.62
		c1.98-1.89,2.43,6.31,6.39,2.29c-0.46,0.72-0.49,1.18-0.21,1.45c0.96-0.41,0.36-1.13,1.91-1.59c1.03,1.06,0,1.16-0.9,2.74
		c2.07-1.46,4.28-2.08,6.5-2.88c-0.51,0.97-1.04,2.72,0.83,3.43c-0.49-2.27,1.3-2.72,2.31-2.05c0.75-1.16,1.75,0.19,2.48-1.31
		c1.35-1.57-0.16-1.64,0.56-2.89c0,0,0,0-0.01,0c-0.11,0.18-0.17,0.33-0.31,0.52c-0.23-0.27-0.37-0.4-0.55-0.59
		c-1.52-0.18-3.83-0.53-3.36,1.45c-1.76,0.59-0.57-1.22-0.48-2.72c-0.11-0.01-0.16-0.01-0.27-0.01l0.29-0.52
		c-1.71,1.21-2.39,1.81-2.67-0.29c-0.3,0.12-0.58,0.35-0.86,0.55c-0.54,1.15,2.29,0.38,0.44,2.26c-0.35-0.59-0.72-1.21-1.09-1.83
		c-0.42,0.35-0.83,0.72-1.24,1.03c-0.03-0.02-0.08-0.04-0.11-0.06c0.44,0.89,0.77,1.8,0.95,2.59c-1.9,0.5-2.81-1.99-4.12-4.24
		c-2.69-1.1-6.06-1.96-9.87-2.78c0.33-0.51,0.77-0.51,1.05-1.18c-1.69,0.5-2.82,0.49-4.43,0.13c-1.61,1.21-1.11,1.63-2.25,3.01
		l-1.41-0.4c0.38-0.76,1.08-0.31,1.67-0.26c0.23-1.02-0.43-1.63-1.32-1.89c-0.11,0.42-0.11,0.76,0.16,0.9
		c-0.76-0.27-1.76-0.45-2.87-0.58c-0.4,0.23-0.75,0.52-0.94,0.92c0.01-0.41-0.14-0.7-0.29-0.99c-2.94-0.19-6.37-0.03-8.72,0.36
		C346.38,96.92,342.18,99.25,341.2,96.65z"/>
	<path class="st0" d="M360.52,99.06c-0.74-0.18-1.56-0.4-2.62-0.73c-0.07,0.17-0.11,0.3-0.17,0.46
		C358.55,98.99,359.41,99.1,360.52,99.06z"/>
	<path class="st0" d="M364.91,86.24c-1.23,0.09-3.08-1.78-3.88-0.35C363.2,85.95,363.17,89.97,364.91,86.24z"/>
	<path class="st0" d="M376.82,98.57c0.3,0.03,0.57,0.03,0.77-0.03c-0.41,0.53-0.78,0.82-1.14,1.02c0.02,0.07-0.04,0.1,0,0.18
		c0.56-0.99,2.19,2.29,3.38-1.04C379.1,98.1,377.59,98.08,376.82,98.57z"/>
	<path class="st0" d="M380.42,99.15c0.02-0.1,0.05-0.2,0.07-0.3c-0.06,0-0.11,0.04-0.18,0.02
		C380.33,98.96,380.38,99.07,380.42,99.15z"/>
	<path class="st0" d="M381.47,100.04c-0.02,0.01-0.04,0.02-0.06,0.03c0,0,0-0.01,0-0.01c-0.07,0.2-0.12,0.36-0.18,0.53
		c0.48,0.63,1.13,1.23,1.85,1.66l0.4-0.72C382.29,101.31,381.74,100.75,381.47,100.04z"/>
	<path class="st0" d="M380.9,98.7c0.14,0.21,0.32,0.32,0.54,0.33c0.16-0.35,0.36-0.71,0.5-1.05
		C381.55,97.94,381.24,98.41,380.9,98.7z"/>
	<path class="st0" d="M434.14,123.43c2.58,0.45,2.09,3.29,5.13,1.93C437.29,125.96,437.15,121.08,434.14,123.43z"/>
	<path class="st0" d="M461.4,149.02c-5.63-3.15-8.48-7.12-12.38-8.79c1.47,5.75,6.15,7.09,9.86,11.7c2.1-2.3,4.08-1.63,5.73-3.94
		c-1.37-0.99-2.14-3.73-4.35-2.35C459.19,147.69,463.85,146.84,461.4,149.02z"/>
	<path class="st0" d="M485.06,164.06c1.55-0.99-1.18-1.5-1.9-1.26c1.42,0.98-0.31,1.84,1.1,2.82c1.78-0.87,2.75-0.36,2.48-1.88
		C486.14,163.93,485.37,164.45,485.06,164.06z"/>
	<path class="st0" d="M523.45,321.43c-0.57-1.44,1.45-3.81-1.27-4.5C523.3,318.85,520.03,319.94,523.45,321.43z"/>
	<path class="st0" d="M523.7,297.97c-1.29,4.71-1.39,8.95-1.77,13.09c0.34,0.58,0.78,1.08,1.41,1.41
		C522.79,309.28,524.96,302.57,523.7,297.97z"/>
	<path class="st0" d="M472.9,387.76c0.02-0.02,0.03-0.05,0.05-0.08c-0.27,0.18-0.52,0.38-0.81,0.52c-1.22-1.55,1.03-2.77,2.97-4.14
		c0.53-0.97,1.05-1.95,1.56-2.89c-1.45,0.74-1.83-1.91-4.26-2.99c-0.25,0.03-0.5,0.08-0.76,0.15c0.15,0.77,0.34,0.81,1.58,1.88
		c-0.87-0.3-2.31,1.4-0.63,0.79c0.14,0.6-0.54,0.89-1.42,1.13c0,0,0,0,0,0c-1.52,0.97-1.92,2.91-2.64,5.52
		c-1.56-1.14-1.37-2.08-2.9-1.35c1.39,1.8-2.27,0.54-2.65,1.8c0.92,1.01,3.64,0.75,3.16,2.21c-2.25-0.53-4.11,0.02-5.91,0.7
		c-1.66,7.96-9.79,12.95-12.56,17.15c0.56-0.3,1.32,0.43,2.1,1.18c-0.92,1.05-3.12,1.85-2.52,3.16c0.1-0.24,0.2-0.47,0.2-0.77
		c0.31,0.47,0.39,0.91,0.31,1.31c0.43-0.08,0.86-0.16,1.29-0.25c0.43-0.5,0.35-0.78,1.48-0.48c0.23-0.09,0.47-0.14,0.7-0.26
		c-0.08-0.39-0.16-0.79-0.27-1.19c-0.05-0.09-0.05-0.18-0.06-0.27c-0.19-0.69-0.44-1.39-0.84-2.11c1.2,0.44,2.35,0.6,3.47,0.57
		c1.21-0.64,2.39-1.32,3.51-2.07c-0.44-0.44-1.08-0.91-1.53-1.36c0.55-0.96,1.54-0.02,2.49,0.7c0.04-0.03,0.08-0.06,0.13-0.1
		C460.52,399.12,468.36,394.63,472.9,387.76z"/>
	<path class="st0" d="M442.8,418.21c0.47-0.56,0.97-1.16,1.49-1.8c-0.74,0.37-1.52,0.79-2.93,1.18c0.01-0.46,0.17-0.82,0.4-1.15
		c-0.79,0.03-1.55,0.19-2.2,1.22c-2.56-1.77-2.26-3.35-4.31-1.4c0.52-1.12-0.64-2.62,0.87-3.5c-0.75-0.76-1.68-0.86-2.62-0.69
		c-0.47,0.39-0.92,0.63-1.39,0.47c-0.37,0.18-0.72,0.37-1.07,0.6c0.74,0.67,2.46,1.32,1.64,1.64c-0.96,0.83-4,3.29-5.77,4.88
		c0.14,0.13,0.23,0.25,0.47,0.39c-0.31,0.41-0.64,0.71-0.99,0.94l1.57,1.76c-1.65,1.29-0.63-0.95-2.36-1.08
		c0.74,2.84-4.94,0.46-3.02,4.61c-1.21,0.28-1.7-0.28-1.88-1.43c-0.39,0.9-1.7,3.69,0.54,4.01c1.3,1.27-2.37,0.98,0,2.59
		c-1.17,0.09-0.91-1.01-1.39-1.73c-2.39,3.45-7.92,4.44-10.48,7.79c-0.07-1.16-0.52-1.75-1.75-1.54c0.46,0.65,0.26,1.51,0.11,2.31
		c2.66-0.6,5.25-1.4,7.04-3.31c0.56,0.93,1.18,0.64,1.79,0.57c0.74-1.04,1.73-2.12,3.26-3.23c0.08,0.14,0.09,0.25,0.1,0.37
		c0.94-0.74,2.02-1.27,3.14-1.77c0.14-0.5,0.2-1,0.05-1.47c0.43,0.24,0.8,0.58,1.3,0.87c2.08-0.9,4.08-1.83,5.22-3.74
		c0.82-0.23,1.53-0.46,2.24-0.7c0.14-0.56,0.15-1.22-0.16-2.12c1.05-0.36,2.2,0.4,3.22-0.47c0.89-1.03-1.88-1.26-2.33-0.15
		c0.38-4.63,9.47-1.18,9.3-5.01C442.39,417.92,442.63,418.02,442.8,418.21z"/>
	<path class="st0" d="M189.16,395.21c-0.37-0.34-0.86-0.52-1.51-0.3c-0.07,0.08-0.13,0.13-0.2,0.23c0.79,0.2,0.63,2.69,2.28,1.24
		C189.3,396.29,189.15,395.77,189.16,395.21z"/>
	<path class="st0" d="M410.85,112.94c-0.03,1.41,2.22,0.78,3.54,0.35c0.03-0.86-0.5-1.25-1.19-1.29c0.15,0.23,0.07,0.54-0.72,1.12
		c-0.76,0.3-1.25,0.12-1.46-0.29C410.97,112.87,410.9,112.89,410.85,112.94z"/>
	<path class="st0" d="M407.76,113.72c0.38,0.28,0.82,0.75,1.31,1.26c0.1-0.1,0.19-0.16,0.29-0.27c0.24,0.21,0.28,0.5,0.26,0.81
		c0.64,0.61,1.37,1.14,2.15,1.32c0.58-0.49,1.04-0.97,1.72-0.79C411.96,114.44,409.67,114.5,407.76,113.72z"/>
	<path class="st0" d="M439.73,132.32c0.28-1.3-2.06-1.14-3.6,0.04C437.07,133.54,438.39,132.94,439.73,132.32z"/>
	<path class="st0" d="M490.61,344.12c-0.22,0.08-0.45,0.15-0.73,0.16c-1.05-1.24,0.23-1.61-1.9-1.92c-1.51,0.09-2.88,0.34-3.09,2.15
		c2,0.65,3.1,1.42,2.3,2.45c-0.67-0.7-1.69-1.35-3.47-1.91c0.44,2.07,0.28,3.89-1.92,5.3c1.01,0.73,1.44,0.63,1.7,0.26
		c-0.01-0.25-0.05-0.51-0.17-0.79c0.2,0.04,0.27,0.17,0.43,0.24c0.22-0.63,0.4-1.3,1.36-0.86c-0.12,0.7-0.29,1.19-0.49,1.6
		c0.65,1.23-0.18,3.18-1.63,4.41c0.15,0.07,0.26,0.2,0.25,0.48c-0.35-0.06-0.62-0.06-0.88-0.05c-0.4,0.25-0.82,0.43-1.27,0.52
		c-0.55,0.63-0.6,1.52-2.49,1.05c-0.01,0.02-0.02,0.04-0.03,0.06c0.54,0.48,1.24,0.95,2.3,1.4c-3.21,0.78-2.04,2.92-1.03,5.16
		c1.91-2.5,3.85-4.95,6.53-7.24C484.62,352.77,491.57,348.17,490.61,344.12z"/>
	<path class="st0" d="M482.6,352.65c-0.66,0.36-1.41,0.81-2.23,1.72c0.09,0.31,0.24,0.48,0.41,0.61
		C481.07,354.14,481.91,353.42,482.6,352.65z"/>
	<path class="st0" d="M478.1,361.59c-3.72-1.22,0.97,3.67-2.46,3.59c0.12,1.29,1.44,0.84,2.43,0.95c0.18-0.22,0.34-0.44,0.51-0.66
		C477.98,364.42,479.21,362.46,478.1,361.59z"/>
	<path class="st0" d="M475.9,346.3c-0.42,0.58-1.1,0.9-1.64,1.19c0.73-0.01,1.41-0.09,2.05-0.24
		C476.39,346.91,476.33,346.59,475.9,346.3z"/>
	<path class="st0" d="M468.24,383.15c0.01,0.03,0.01,0.06,0.02,0.09c0.12-0.07,0.22-0.18,0.32-0.3
		C468.46,383,468.34,383.07,468.24,383.15z"/>
	<path class="st0" d="M473.23,374.64c-0.63-0.28-1.12-0.56-1.54-0.84c-0.71,0.8-1.26,1.65-1.62,2.56
		C471.18,375.96,472.21,375.5,473.23,374.64z"/>
	<path class="st0" d="M479.12,374.59c-3.13-1.19-3.62-1.61-4.17-3.5c1.98,1.19,4.52-0.8,2.4-2.03c-0.17-0.04-0.28,0.03-0.41,0.06
		c-1.35,1.14-2.84,2.3-4.15,3.54C473.49,374.05,475.55,374.87,479.12,374.59z"/>
	<path class="st0" d="M479.3,368.99c1.24,0.8,1.85,0.36,3.05,1.07c-0.12-1.06,1.19-2.21,0.3-3.23
		C482.22,368.86,479.73,367,479.3,368.99z"/>
	<path class="st0" d="M462.06,381.86c-0.09,1.19-0.16,2.33-1.87,2.51c0.29,0.17,0.54,0.25,0.78,0.3
		C462.12,383.97,463.48,383.26,462.06,381.86z"/>
	<path class="st0" d="M444.96,414.43c-0.62-0.3-1.26-0.74-1.93-1.43c1.44,2.92-1.94,0.82-3.54,0.91c-0.05,0.54-0.1,1.07-0.69,1.5
		c1.39,0.51,2.6-0.25,3.98,0.1C443.44,415.11,444.2,414.78,444.96,414.43z"/>
	<path class="st0" d="M418.8,426.05c-0.03,0.69-0.15,1.33-0.37,1.92c0.52-0.31,0.68-1.57,0.47-1.99
		C418.86,426.02,418.83,426.01,418.8,426.05z"/>
	<path class="st0" d="M417.43,427.87c-0.13-0.15-0.24-0.28-0.22-0.3c-0.2,0.26-0.38,0.73-0.57,1.24c0.22,0.32,0.52,0.46,1.35,0.31
		C417.78,428.7,417.34,428.2,417.43,427.87z"/>
	<path class="st0" d="M456.98,381.71c-0.28,0.09-0.56,0.18-0.84,0.25c0.01,0.55-0.6,1.05,0.53,1.71c0.08,0,0.22,0.02,0.38,0.04
		c0.35-0.27,0.6-0.57,0.82-0.9C457.54,382.63,457.27,382.14,456.98,381.71z"/>
	<path class="st0" d="M432.33,406.56c0.09-0.25,0.08-0.58-0.16-1.18c-0.22,0.11-0.45,0.14-0.69,0.14
		C431.82,405.88,432.11,406.22,432.33,406.56z"/>
	<path class="st0" d="M434.59,408.89c0.18,0.11,0.27,0.23,0.49,0.33c0.12-0.14,0.28-0.27,0.44-0.4
		C435.21,408.88,434.9,408.89,434.59,408.89z"/>
	<path class="st0" d="M439.87,409.37c0.21,0.22,0.41,0.45,0.81,0.71c-0.03-0.82,0.25-1.53,0.63-2.19
		C440.81,408.3,440.32,408.75,439.87,409.37z"/>
	<path class="st0" d="M442.48,412.48c0.55,0.1,3.21-0.36,2.02-1.65C443.25,410.74,440.88,410.4,442.48,412.48z"/>
	<path class="st0" d="M450.18,390.76c1.18-1.1,2.26-2.18,2.35-3.36c-0.41,0.73-0.83,0.89-1.18,0.76c-0.57,0.55-1.19,1-2,1.23
		c-0.24,0.32-0.6,0.62-0.98,0.93C448.83,390.75,449.46,390.88,450.18,390.76z"/>
	<path class="st0" d="M442.03,397.09c-1.68,1.18-3.18,2.38-3.76,4.09C439.72,399.73,441.01,398.4,442.03,397.09z"/>
	<path class="st0" d="M413.87,428.17c-0.81,0.28-1.14,0.74-1.22,1.27c0.63,0.18,1.18,0.06,1.64-0.18
		C414.04,429.07,413.94,428.63,413.87,428.17z"/>
	<path class="st0" d="M412.9,431.3c0.17-0.29,0.68-0.46,1.15-0.65c-0.41-0.23-0.86-0.57-1.41-1.2
		C412.55,430.01,412.72,430.65,412.9,431.3z"/>
	<path class="st0" d="M436.39,410.05c-0.01,0.51-0.17,0.99,0.94,1.76c0.63-0.34,1.01-0.74,1.2-1.17
		C437.72,410.12,437,409.92,436.39,410.05z"/>
	<path class="st0" d="M446.91,402.62c-0.53,0.08-1.05,0.07-1.4-0.15c-0.07,0.67-0.21,1.21-0.4,1.68
		C445.74,403.67,446.34,403.15,446.91,402.62z"/>
	<path class="st0" d="M449.24,399.26c-0.79,0.39-1.58,0.75-2.43,1.03c-0.77,0.71,1.12,1.07,1.68,0.51
		C448.81,400.32,449.05,399.8,449.24,399.26z"/>
	<path class="st0" d="M277.16,107.07c2.26,0.06,4.62,0.04,6.98,0.04C281.8,106.26,279.45,106.5,277.16,107.07z"/>
	<path class="st0" d="M256.33,94.77c0.86-0.45,2.03-0.6,1.51-2.4C256.75,91.26,255.96,92.9,256.33,94.77z"/>
	<path class="st0" d="M504.12,372.99c-0.06-0.03-0.12-0.05-0.18-0.08c-1.04,2.13-1.27,2.17-1.41,3.57c0.35,0.25,0.62,0.34,0.87,0.37
		C503.04,375.47,503.17,374.23,504.12,372.99z"/>
	<path class="st0" d="M504.46,179.65c1.86,1.56,0.78,2.73,2.77,3.34C507.87,181.93,506.72,178.75,504.46,179.65z"/>
	<path class="st0" d="M501.92,176.81c-2.41-0.62-0.57-3.2-3.31-2.47C499.76,175.11,499.36,178.36,501.92,176.81z"/>
	<path class="st0" d="M489,168.25c-0.8-0.41-0.69-2.57-2.17-1.72c0.21,0.58-0.6,0.65-1.4,0.72
		C486.01,168.71,487.5,168.48,489,168.25z"/>
	<path class="st0" d="M472.55,158.06c-1.17-0.65-2.38-1.2-4.25-0.25l1.27,1.48C470.7,158.57,471.7,158.13,472.55,158.06z"/>
	<path class="st0" d="M471.28,155.39c-1.21-0.56-1.37-3.68-3.6-1.78C469.68,154.86,468.91,156.02,471.28,155.39z"/>
	<path class="st0" d="M446.53,136.01c-2.21-1.44-3.99-3.98-6.24-4.21c2.13,1.03-0.13,1.86-1.3,1.83c0.34,0.57-0.08,1.3,0.95,1.72
		C443.41,132.29,442.82,137.9,446.53,136.01z"/>
	<path class="st0" d="M438.57,126.71c1.64,1.25,5.2,1.6,5.14,3.99C446.11,126.97,440.11,126.59,438.57,126.71z"/>
	<path class="st0" d="M433.62,126.74c0.35,1.09,0.92,2.12,0.74,3.34c1.33-2.32,1.65,0.69,2.82-0.68
		C437.32,128.42,435.15,125.99,433.62,126.74z"/>
	<path class="st0" d="M421.7,118.58c-0.06-0.18-0.19-0.27-0.27-0.41c0.03,0.17,0.1,0.34,0.1,0.52
		C421.59,118.63,421.64,118.66,421.7,118.58z"/>
	<path class="st0" d="M414.69,108.26c-0.89-0.13-1.82-0.3-2.51-0.04C413.02,108.33,413.86,108.32,414.69,108.26z"/>
	<path class="st0" d="M408.13,110.6c-0.22-0.02-0.32-0.08-0.44-0.14c0.13,0.07,0.26,0.12,0.39,0.21
		C408.1,110.64,408.1,110.63,408.13,110.6z"/>
	<path class="st0" d="M407.27,108.49c-1.02,1.15-2.08,0.54-3.09,1.69c0.15,0.06,0.29,0.15,0.44,0.23c0.88-0.58,1.78-0.56,2.7-0.15
		C407.03,109.78,407.65,108.94,407.27,108.49z"/>
	<path class="st0" d="M405.6,110.93c0.81,0.44,1.62,0.66,2.42-0.17C407.22,110.97,406.41,111.11,405.6,110.93z"/>
	<path class="st0" d="M295.03,73.77c3.22,0.39,3.98-0.11,6.99,0.79c0.29-1.34,1.61-1.23,1.26-3.49c-3.75,3.46-10.69-0.39-15.79,2.83
		C288.35,76.06,297.98,77.15,295.03,73.77z"/>
	<path class="st0" d="M305.78,74.68c0.03-0.38,0.16-0.61,0.32-0.79c-0.04,0-0.07-0.01-0.11,0c0.15-0.46,0.55-0.81,1.01-1.04
		c0.08-0.23,0.13-0.51,0.07-0.94c-1.85-0.37-3.12,0.11-2.9,2.71c2.38,0.24,3.73,1.68,3.96,4.37c-1.31-0.43-1.78-1.01-2.68,0.6
		c1.05,0.25,1.29,1.46,1.93,2.19c2.89-1.4,4.47-3.07,8.04-1.63C314.48,75,309.89,76.86,305.78,74.68z"/>
	<path class="st0" d="M321.53,75.06c0.62,0.18,0.42,1.16,0.22,2.15c0.93,0.14,1.7,0.02,2.26-0.47
		C325.01,74.75,322.2,73.5,321.53,75.06z"/>
	<path class="st0" d="M332.57,72.58c-3.7-1.46-8.05-1.46-12.35-1.33c-3.25,0.08-6.46,0.25-9.56,0.01c-0.49,0.48-1.05,0.86-1.96,0.71
		c-0.04,0.38,0.04,0.69,0.17,0.98c0.13,0.13,0.22,0.3,0.29,0.51c2.14,2.58,10.94,1,5.95,0.3c0.66-0.7,1.78-0.58,2.87-0.37
		c0.67-0.18,1.83-0.26,2.86-0.22c0.09-0.23,0.11-0.55,0.02-1.01c4.08-0.74,4.32,3.01,7.32,2.95
		C329.84,75.08,331.13,73.61,332.57,72.58z"/>
	<path class="st0" d="M292.41,63.71c0,0.05-0.03,0.06-0.02,0.11c0.09-0.03,0.14-0.04,0.23-0.07
		C292.55,63.74,292.48,63.72,292.41,63.71z"/>
	<path class="st0" d="M284.51,66.19c0.37,0.39,2.72,1.53,2.82-0.12C286.46,65.28,284.85,63.69,284.51,66.19z"/>
	<path class="st0" d="M282.87,78.35c0.94,0.1,2.6-0.85,2.17,1.3c5.57-1.62,11.43,2.4,15.28-3C294.08,77.98,286.3,76.28,282.87,78.35
		z"/>
	<path class="st0" d="M270.8,79.23c4.55,2.52,7.85-0.79,10.66,2.02C283.5,77.72,274.49,77.15,270.8,79.23z"/>
	<path class="st0" d="M270.36,79.98c-0.37-0.35-1.94-2.7-2.18-0.48c1.86-0.03-0.96,2.76,0.89,2.74
		C268.96,80.91,270.72,81.58,270.36,79.98z"/>
	<path class="st0" d="M268.44,77.34c-0.59-2.72-4.18-0.2-5.22-2.19c-0.11,1.68-1.48,2.11-1.56,3.78
		C264.58,80.08,265.82,75.57,268.44,77.34z"/>
	<path class="st0" d="M259.41,78.54c-3.48-0.93-5.07-2.26-8.15-2.28c0.8,2.2,0.35,3.28,0.54,4.93
		C254.77,79.52,258.21,81.84,259.41,78.54z"/>
	<path class="st0" d="M82.48,302.79c-0.04,0-0.06-0.02-0.09-0.03c-0.05-0.02-0.14,0-0.19-0.02c-0.28-0.01-0.62,0.04-0.94,0.06
		c0.92,1.06-1.03,1.21-1.16,1.94c1.66-0.19,1.91,0.89,3.57,0.69C83.29,304.54,83.35,303.25,82.48,302.79z"/>
	<path class="st0" d="M82,297.08c0.05-0.02,0.08-0.06,0.14-0.07c-0.11-0.04-0.16-0.14-0.25-0.19
		C81.92,296.91,81.97,296.99,82,297.08z"/>
	<path class="st0" d="M78.48,308.43c0-0.01,0.01-0.02,0.01-0.02c-0.01,0-0.01,0-0.02,0C78.47,308.42,78.49,308.42,78.48,308.43z"/>
	<path class="st0" d="M88.38,308.22c-0.62-0.15-1.4-0.18-2.4-0.03c-0.07-1.07,2.5-1.39,1.74-2.66c-0.96-0.51-2.01-0.27-2.8-0.31
		c0.4,1.63,1.14,3.33,1.95,5.1C88.47,309.92,88.26,309.02,88.38,308.22z"/>
	<path class="st0" d="M164.96,413.51c-0.95,1.05-1.73-0.47-2.71,0.93c0,0.47-0.65,3.12,1.25,1.61
		C162.09,415,166.35,414.55,164.96,413.51z"/>
	<path class="st0" d="M136.17,391.67c-3.23-0.63-5.71-0.31-7.24-3.44c-3.3,4.37,1.55,5.64,2.91,9.64c-1.16,0.98-1.79-0.27-3.1,1.32
		c1.09,1.34,2.4,1.73,4.26-0.34c-1.58-1.56-1.47-3.41,0.45-5.54c0.64,1.08,0.54,1.78,2.45,1.1
		C135.31,393.61,136.07,392.58,136.17,391.67z"/>
	<path class="st0" d="M132.13,409.75c-0.67-0.43-1.29-1.15-1.94-1.61C130.15,409.21,130.09,411.04,132.13,409.75z"/>
	<path class="st0" d="M113.98,352.42c0.22-0.34,0.19-0.78,0.05-1.18c-0.73-0.05-1.39-0.22-2.03-0.42
		C112.54,351.53,112.6,353.06,113.98,352.42z"/>
	<path class="st0" d="M119.92,385.78c-2.29,0.91-1.17,3.46,0.53,2.69c-0.32-0.49,0.59-1.11,1.51-1.73
		C121.38,386.09,120.72,385.74,119.92,385.78z"/>
	<path class="st0" d="M118.73,391c1.23,1.41,2.3,2.9,2.91,4.67c1.72,0.49,3.96,0.83,5.09,1.99c0.31,0.09,0.6,0.23,0.85,0.53
		c3.88-3.16-7.02-8.96-3.36-5.03c-1.47,0.2-2.35-1.37-3.21-2.32c-0.09-0.07-0.16-0.15-0.22-0.24
		C120.18,390.04,119.55,389.88,118.73,391z"/>
	<path class="st0" d="M110.77,383.92c0.14,0.11,0.27,0.23,0.41,0.34c1.94,1.58,3.91,3.1,5.67,4.73c-0.47-1.55,0.25-3.25-1.29-4.4
		C114.4,383.72,112.52,383.93,110.77,383.92z"/>
	<path class="st0" d="M109.49,382.64c-0.1-0.05-0.26-0.09-0.4-0.14c0.09,0.07,0.17,0.15,0.26,0.22
		C109.4,382.68,109.48,382.63,109.49,382.64z"/>
	<path class="st0" d="M144.82,409.03c1.04-2.1-5.27-8.48-5.7-4.26c-2.09-2.16-3.04-2.22-4.57-4.63c-1.25,0.82-2.15-0.02-3.65,1.86
		C136.37,401.59,138.54,408.47,144.82,409.03z"/>
	<path class="st0" d="M151.7,408.4c-0.62-0.62-2.59-0.88-0.6-2.22c-5.39-2.02-6.62-8.4-13.67-6.61
		C143.09,402.19,147.55,407.96,151.7,408.4z"/>
	<path class="st0" d="M161.34,414.74c-1.42-4.5-6.44-3.96-6.35-7.68C150.75,408.51,156.99,414.15,161.34,414.74z"/>
	<path class="st0" d="M181.15,412.49c-0.05,1.46,1.81,0.69,2.99-0.91C183.15,411.41,182.16,410.84,181.15,412.49z"/>
	<path class="st0" d="M311.93,469.62c0.02,1.34,0.83,1.48,0.91,2.75c2.24-1.08,4.54,1.4,4.58-1.19
		C315.88,470.19,313.86,469.99,311.93,469.62z"/>
	<path class="st0" d="M318.89,473.13c0.94,0.87,4.33,0.84,3.99-1.19c-0.7-0.03-0.81-1.02-0.92-2.02
		C320.09,470.21,318.98,471.19,318.89,473.13z"/>
	<path class="st0" d="M389.85,462.09c-0.48,0.2-0.79,1.03-1.3,1.41c0.3-0.14,0.71-0.26,1.23-0.36c0.19-0.14,0.42-0.26,0.67-0.37
		C390.25,462.5,390.05,462.23,389.85,462.09z"/>
	<path class="st0" d="M388.12,463.72c0.05-0.03,0.11-0.06,0.16-0.09c-0.06,0.02-0.12,0.06-0.2,0.06
		C388.09,463.7,388.1,463.71,388.12,463.72z"/>
	<path class="st0" d="M407.07,461.39c0.97,2.99,6.22,0.5,3.86-1.84C408.87,458.73,409.39,460.97,407.07,461.39z"/>
	<path class="st0" d="M411.65,458.4c1.85,3.73,4.47,3.4,7.08,2.99C416.59,458.9,413.93,459.69,411.65,458.4z"/>
	<path class="st0" d="M512.63,365.31c-0.45,0.03-0.86,0.13-1.24,0.28c0.2,0.05,0.4,0.1,0.65,0.24c-1.2,1.11-3.85,2.08-5.34,3.38
		c1.79,0.03,4.12,1.02,4.98-0.71C508.59,366.49,511.17,368.32,512.63,365.31z"/>
	<path class="st0" d="M529.73,302.1l-2.42-0.35c-0.21,1.34-0.98,2.89,1.06,3.26C529.41,304.57,529.61,303.37,529.73,302.1z"/>
	<path class="st0" d="M524.48,189.08c-4.08,1.67,2.53,3.72-2.69,3.72c0.15,2.06,3.55,1.5,4.47,0.25
		C525.13,190.82,524.76,191.31,524.48,189.08z"/>
	<path class="st0" d="M521.55,171.39c-1.06,1.75,1.56,1.41,1.93,3.43C526.99,174.13,524.37,169.47,521.55,171.39z"/>
	<path class="st0" d="M520.26,170.72c4.4-1.41,4.15-3.68,3.81-5.96C521.09,166.48,521.87,168.81,520.26,170.72z"/>
	<path class="st0" d="M515.92,184.15c0.5,1.22,1.41,1.83,2.71,1.84C519.46,184.89,518.09,183.22,515.92,184.15z"/>
	<path class="st0" d="M503.58,174.97c2.86,2.01,3.2,2.95,6.56,3.49c-1.33-1.51,0.13-5.02-3.38-4.3
		C507.75,177.01,505.11,175.12,503.58,174.97z"/>
	<path class="st0" d="M441.75,114.24c-2.91-1.66-6.39-3.08-9.33-4.55c1.43,1.39,3.14,2.36,4.91,5.13c-3.39-2.1-7.55-5.72-11.9-9.32
		c-3.13-1.07-7.63-1.7-6.93-4.24c-6.31-4.33-12.6-6.73-18.56-9.22c-0.01,0-0.02,0.02-0.04,0.02c-0.03-0.01-0.04-0.05-0.06-0.07
		c-1.85-0.77-3.66-1.54-5.44-2.39c0.66-0.75,1.47-0.61,2.11-1.46c0.18-0.28,0.15-0.45,0.09-0.61c-0.12-0.12-0.26-0.22-0.38-0.34
		c-0.59-0.27-1.59-0.34-1.92-0.73c-1.79,1.79,1.39,1.16-0.41,2.94c-3.05-0.23-7.28-2.34-11.2-3.85c0,0.6-0.14,1.23-0.57,1.71
		c-0.21-0.66-0.82-1.11-1.74-1.39c0.07-0.43,0.56-0.63,1.02-0.81c-0.37-0.13-0.73-0.23-1.09-0.35c-0.66,0.77-2.03-1.26-2.29,1.08
		c-1.16-1.38-1.73-0.78-3.87-1.99c0.39-0.13,0.69-0.2,1.01-0.28c-0.06-0.12-0.13-0.18-0.19-0.34c0.64-1.11,1.58-1.22,2.69-0.62
		c-0.31-1.28-1.4-1.55-2.59-1.56c-1.61,0.46-3.88,1.23-1.15,1.97c-3.53,0.08-4.9-1-8.47-1.04c0.55-0.76,1.22-1.17,2.12-0.88
		c-0.03-0.23-0.03-0.47-0.03-0.71c-3.48-1.52-7.88-2.97-9.49-0.49c-1.05-0.28-0.04-2.01-1.67-1.9c-1.01-0.19-1.5,0.95-1.93,2.27
		c-0.3-2.92-9.11-3.2-11.4-3.61c1.7-3.18,6.39,0.32,8.23-2.7c-4.12-0.37-8.62-1.26-12.27-0.39c0,0.3,0.01,0.58-0.05,0.99
		c-0.2-0.36-0.53-0.56-0.86-0.73c-0.68,0.23-1.33,0.51-1.92,0.9c-0.2-0.17-0.42-0.29-0.63-0.44c-0.43,0.41-0.78,0.94-0.88,1.71
		c3.52-2.38,10.6,3.78,16.93,2.49c0.6,0.24,0.07,1.34-0.11,2.16c0.96-0.12,1.9-0.09,2.82,0.03c0.04-0.14,0.09-0.27,0.13-0.4
		c0.01,0.13-0.02,0.28-0.04,0.42c5.93,0.79,11.03,5.63,15.97,4.98l-0.85,1.98c2.66-1.9,3.58-0.64,5.41,0.96
		c-2.69-0.03-1.93,2.03-4.96,0.68c2.29,1.65,5.54,1.65,6.55,4.47l0.38-0.77c0.2,0.61,0.04,0.96-0.25,1.17
		c0.03,0.13,0.09,0.24,0.12,0.38c0.5-0.91,0.99-1.81,0.46-2.13c0.36-0.2,0.8,0.02,1.24,0.38c0.66-0.11,1.56,0.87,2.23,0.81
		c-0.34,0.46-0.56,0.75-0.73,0.98c0.32,0.52,0.58,1.03,0.71,1.4c0.03-0.02,0.09-0.03,0.13-0.04c-0.04-0.01-0.08-0.03-0.11-0.04
		c0.92-1.09,1.64-0.91,2.24-0.31c0.86-0.16,1.5-0.49,1.06-1.43c1.17,0.55,2.48,1.06,3.77,1.57c2.15-0.39,4.63-0.18,4.61,1.66
		c-0.09,0.05-0.16,0.07-0.24,0.11c1.04,0.41,2.07,0.8,3.09,1.23c-1.57,2.43-3.24,1.01-3.61,3.95c-2.84-1.66-4.61-4.21-7.87-3.5
		c-0.18,0.22-0.36,0.42-0.52,0.74c2.69-0.76,0.62,1.82,1.74,2.96c0.06,0,0.12,0.03,0.18,0.03c0.53-0.12,0.95-1.06,1.53-0.84
		c0.1,0.02,0.14,0.07,0.23,0.09c0.19-0.14,0.38-0.23,0.56-0.43c0.36,0.7,1.02,1.24,1.64,1.8c-0.11-0.65-0.27-1.23-0.64-1.51
		c2.18-1.32,2,0.87,1.62,2.54c0.18,0.23,0.34,0.48,0.44,0.75c0.44-0.3,0.88-0.59,1.39-0.2c-1.04,1.08-1.62,1.33-2,1.18
		c-1.62,2.29-2.83,3.67-5.54,2.74c0.62,0.41,0.96,1.24,0.29,2.34c0.62,0.02,3.25-1,2.39-2.11c0.59,0.21,0.92,4.93,4.47,2.04
		c0.85,4.3,7.18,4.47,10.09,1.67c0.96-1.04,2.21,1.23,2.21,1.96c1.01,0.78,2.06-2.13,3.07-0.84c-1.61-2.58-5.14-3.94-8.97-5.37
		c-1.37,2.17,2.27,2.09,0.62,4.35c-1.82-2.05-3.4,2.08-5.21-0.1c0.54-0.69,1.15-0.14,1.73,0.02c1.14-4.01-0.78-6.72-3.7-8.92
		c2.99-1.01,4.92,2.28,5.19,4c3.9-1.91,8.14,3.89,12-2.18c0.24,0.9,0.67,1.41,1.22,1.67c0.02-0.02,0.02-0.04,0.04-0.06
		c0.2,0.11,0.39,0.14,0.59,0.22c1.81,0.3,4.5-1.09,6.8-1.26c-0.01,1.03-0.35,1.51-0.83,1.73c0.23-0.01,0.46-0.04,0.69-0.04
		c-0.95,0.68-0.97,1.5-0.53,2.4c0.96-0.6-0.33-2.51,1.59-2.72c3.9,2.7,7.09,8.65,12.84,8.81c0.56-0.84-0.67-1.17-1.24-1.69
		c2.1-0.15,1.64-0.03,3.34-1.35c-0.39,0.73,1.5,2.07,0.88,0.58c1.92-0.24,0.87,4.69,3.62,4.39c-0.64,0.27-1.28,0.55-1.99,1.31
		l1.65,1.2c0.29-0.6,0.59-1.22,0.23-1.66c0.26,0.29,0.58,0.56,0.86,0.84c0.17-0.55,0.41-1.12-0.5-1.41
		c1.74-0.52,3.78,0.21,1.39,2.28c5.44,5.09,13.31,9.76,15.73,16.3c0.88,0.79,1.51-1.43,0.45-1.63c1.83-0.74,2.88,1.92,2,2.86
		c5.65,0.69,4.15,4.09,9.41,6.05c-4.05,3.38,4.07,4.91,0.9,6.61c0.97,2.19,2.74-2.1,3.27-0.95c1.09,1.04,4.8,4.87,6.28,6.08
		l2.68-1.6c1.41,1.49-1.14,0.49-1.37,1.98c3.32-0.49,0.28,4.29,5.17,2.84c0.26,1.06-0.41,1.45-1.75,1.55
		c1.02,0.38,4.18,1.65,4.66-0.26c1.53-1.06,1.02,2.1,2.99,0.13c0.04,1.02-1.21,0.73-2.07,1.11c3.86,2.24,4.72,7.06,8.46,9.44
		c-1.35,0-2.05,0.36-1.87,1.44c1.72-0.8,4.48,1.22,5.12-0.68c1.37,0.16,2.9,1.49,2.34,2.34c0.87,0.15,1.97-0.49,4.63-1.46
		c-1.87-2.1-4.68-5.17-7.35-2.97c-0.46-0.87,2.16-1.42,1.28-2.33c-2.72-1.37-6.11-1.64-9.62-5.62c1.7-0.66,1.57,2.37,3.62,1.03
		c-0.37-1.01-3.95-4.59-6.76-4.01c0.6-0.7,1.64-1.2,1.78-2.77c-3.81-0.73-2.04-6.18-7.93-4.95c-0.36-0.93,0.57-1.88-0.38-2.8
		c-1.14-0.82-1.55,1.56-0.3,2.01c-5.33-0.57-0.88-8.23-5.31-8.28c-0.65-1.45,1.72-0.56,2.57-1.74c-2.92-0.93-2.93-1.69-5.28-3.37
		c0.02,2.65,1.26,2.83,2.07,5.55c-3.65-0.24-2.73-5.37-6.44-5.58c0.93-0.41,1.76-0.47,2.36,0.19c-1.22-3.11-2.92-0.33-0.56-4.78
		c-0.71-1.57-2.16-0.4-3.15-0.89c-1.33,1.68,1.8,1.4,2.31,2.18c-1.49,0.14-2.99,0.3-4.58,0.87c1.27-2.26,1.15-4.42-0.25-6.41
		c-0.72-0.34-1.81,0.91-2.78,1.57c-1.11-0.53,0.11-1.37,1-2.16C454.31,125.62,449.51,118.55,441.75,114.24z"/>
	<path class="st0" d="M420.31,99.78c-0.15,0.11-0.21,0.23-0.31,0.35c0.98,0.81,1.97,1.59,2.98,2.32c0.06-0.07,0.13-0.1,0.18-0.18
		C423.42,100.79,420.56,101.73,420.31,99.78z"/>
	<path class="st0" d="M387.63,70.95c0.16-0.24,0.37-0.58,0.62-0.92c-0.18-0.14-0.37-0.29-0.57-0.43
		C387.47,69.92,387.4,70.34,387.63,70.95z"/>
	<path class="st0" d="M248.39,65.98c3.13,3.8,10.18,0.18,14.74,1.34c-0.7,3.17-7.92-0.68-9.92,2.16c3.21-0.21,0.58,2.19,1.53,4.76
		c1.83,1.23,5.76,1.63,7.07-1.04c-1.09-0.16-3.12,1.41-2.97-1c1.87,0.24,3.74-0.89,6.39-2.29c0.18,1.76-0.73,2.31,0.95,2.72
		c0.49-2.12,2.05,1,3.34,0.34c0.18-1.27-1.96-2.75-0.43-3.49c1.16,1.75,2.92,2.5,4.75,3.12c2.88-1.73,6.06-2.61,9.2-3.1
		c-0.21-0.15-0.4-0.21-0.62-0.39c0.5-1.08,1.11-0.38,1.94,0.23c0.75-0.09,1.5-0.19,2.23-0.25c-1.74-3.25-5.38-3.23-8.31-3.26
		c0.13-1.65,1.52-1.94,2.4-2.8c-5.14,0.29-10.09,1.28-14.35,2.62l-0.3-2.23C259.72,65.2,253.82,61.92,248.39,65.98z"/>
	<path class="st0" d="M238.22,76.02c1.96-1.17,2.19,1.67,4.13,0.52c-0.23-1.32-1.02-1.38-1.28-2.62
		C240.29,74.74,238.43,74.75,238.22,76.02z"/>
	<path class="st0" d="M213.22,89.16c1.57,1.09,2.93,2.82,5.14,1.27c-0.88-1.68-1.03-2.9,0.38-3.14c-0.1,0.9,0.09,1.99,0.89,3.47
		c1.38-1.73,2.98-2.92,5.7-2.57c-0.3-3.05-2.63,0.7-3.29-1.21c3.47-2.25,3.82-0.34,7.59-0.76c1.14-1.6-2.14-1.71-0.96-2.69
		c1.93,2.42,2.98-0.65,4.53,1.76c5.31-1.7,5.58-2.11,10.45-3.95c0.36,0.99,0.49,2.57,1.25,2.63c-0.19-1.6,2.85-0.5,2.05-2.62
		c-1.02-0.19-2.24,0.11-2.96-0.81c6.24-0.4,8.64-3.82,3.08-7.85c1.24,2.75,1.25,3.35,0.08,5.02c-0.42-2.05-3.85-2.19-3.36-0.03
		c0.58,0.89,2.08-0.33,2.47,0.93c-6.75,0.58-12.24,2.4-19.07,2.38C225.02,85.34,213.74,83.31,213.22,89.16z"/>
	<path class="st0" d="M169.42,87.15c0.78-2.04,3.99-0.81,2.78-3.96C171.43,84.57,168.06,85.01,169.42,87.15z"/>
	<path class="st0" d="M151.64,102.06c4.19-3.76,14.53-7.98,13.31-12.46C162.3,92.69,152.68,96.96,151.64,102.06z"/>
	<path class="st0" d="M153.37,94.75c1.25-0.82,3.05-1.44,1.92-2.96c-1.1-0.32-2.22,0.41-3.34,1.23L153.37,94.75z"/>
	<path class="st0" d="M153.94,89.18l1.38,1.74l1.97-1.16C156.24,88.13,155.08,88.86,153.94,89.18z"/>
	<path class="st0" d="M150.52,80.12c0.69-0.26,1.29,0.6,1.88,1.45c0.7-0.55,2.08-0.89,1.63-1.78c-1.38,1.36-3.24-3.71-2.99,0.03
		C150.79,79.49,150.1,79.4,150.52,80.12z"/>
	<path class="st0" d="M129.55,93.01c-0.62-2.2-0.84-2.27-3.16-4.15C124.41,90.39,127.76,92.41,129.55,93.01z"/>
	<path class="st0" d="M123.99,91.53c0.74,0.72,0.93,1.35,1.11,1.98c0.63-0.47,1.36,0.6,2,0.35c-0.53-0.72,0.21-0.72,0.97-0.69
		c-0.89-1.17-1.7-0.6-2.55-0.92C126.15,91.58,124.72,91.3,123.99,91.53z"/>
	<path class="st0" d="M111.79,96.41c1.45,0.53,5.52,1.85,5.11,0.67c-1.76,0.79-0.73-1.47-2.2-2.08c-0.65,0.37-1.24,1.17-1.97,0.63
		c0.61-0.67,1.94-1.23,1.35-2.06C111.42,94.04,113.27,94.87,111.79,96.41z"/>
	<path class="st0" d="M111.17,127.69c1.9-0.17,3.56-1.19,5.28-2.03c-1.05-0.98-1.77-0.62-2.8-1.51
		C112.82,126.24,109.19,125.74,111.17,127.69z"/>
	<path class="st0" d="M107.45,114.29l1.79,1.44c0.16-1.13,2.23-2.09,0.29-3.41L107.45,114.29z"/>
	<path class="st0" d="M106.53,130.28c0.55-0.38,1.4,0.29,2.25,0.96c1.17-1.3,1.23-2.67-0.21-4.16
		C107.19,126.98,104.7,128.97,106.53,130.28z"/>
	<path class="st0" d="M98.14,110.61c1.48-1.01,6.34-0.79,4.47-3.23c-1.1,1.19-2.12,2.2-2.48,0.26
		C99.71,108.64,96.86,109.5,98.14,110.61z"/>
	<path class="st0" d="M97.58,125.27c2.77-0.7,4.43-4.2,8.8-6.77c-4.16-4.26,0.97-5.33,0.37-7.72c-5.64,0.98-5.14,4.2-3.82,7.92
		C99.23,118.5,95.68,121.68,97.58,125.27z"/>
	<path class="st0" d="M91.44,134.6c3.67-1.82,4.72-5.9,7.66-7.58l-3.17-2.23c0.29,2.92-1.79,2.78-4.17,4.67
		C94.04,132.11,90.03,132.12,91.44,134.6z"/>
	<path class="st0" d="M78.14,288.8c-1.04,1.61,0.42,2.68,2.3,3.38c0.28-1.63,1.99-2.66-0.69-3.57c-0.31,0.7,1.38,2.19-0.38,2.34
		C78.81,290.35,79.88,288.51,78.14,288.8z"/>
	<path class="st0" d="M75.82,268.08c-0.67-2.03,1.61-1.23,2.42-0.5c0.23-0.61,1.12-0.87,0.73-1.8c-4.96,0.06,0.05-3.55-4.12-4.49
		C75.23,263.67,74.42,266.55,75.82,268.08z"/>
	<path class="st0" d="M76.4,275.75c0.64-0.99,1.08-2.07,2.2-2.81c-2.84,0.83-0.6-1.5-2.55-1.24C75.16,272.3,74.7,275.35,76.4,275.75
		z"/>
	<path class="st0" d="M79.22,270.24c0.3-1.41-1.13-1.79-2.58-2.17C75.38,268.81,77.16,270.13,79.22,270.24z"/>
	<path class="st0" d="M74.5,229.81c0.3,1.17,0.7,2.31,2.81,2.77l0.32-1.82C76.22,230.58,75.15,230.28,74.5,229.81z"/>
	<path class="st0" d="M71.86,241.78c0.16,1.54-1.54,3.95,1.15,4.32c2.45-0.8-1.54-3.04,1.97-3.09c1.4,5.67,0.17,10.22,1.56,13.78
		c3.67-4.96,1.45-8.77,2.6-14.3C75.78,242.84,74.93,241.15,71.86,241.78z"/>
	<path class="st0" d="M73.32,277.77c-1.45-1.9,1.22-3.6-2.04-4.5C73.16,274.05,69.27,277.59,73.32,277.77z"/>
	<path class="st0" d="M72.49,266.78c-4.75,1.17-0.81,5.11,0.38,5.96C72.73,270.85,70.5,268.43,72.49,266.78z"/>
	<path class="st0" d="M73.22,232.48c0.4,1.13-2.04,3.44,1.09,3.46C73.91,233.82,75.41,233.48,73.22,232.48z"/>
	<path class="st0" d="M71.21,212.55c0.23,0.78-1.61,2.24,0.13,2.54c0.33-0.53,0.95-0.1,1.58,0.35
		C73.7,214.05,72.46,213.31,71.21,212.55z"/>
	<path class="st0" d="M70.57,217.92c-1.91-0.25-0.39,1.78,0.31,2.05c-0.21-1.56,1.72-1.11,1.53-2.66c-1.97-0.47-2.24-1.43-3.3-0.19
		C69.7,217.36,70.66,217.46,70.57,217.92z"/>
	<path class="st0" d="M63.91,172.94c1.07-1.67,4.84-3.07,2.59-4.86c2.85,1.7,2.79-1.47,4.52-1.62c-2.43-0.63-1.68-1.76-4.1-2.39
		C64.44,165.98,66.07,169.89,63.91,172.94z"/>
	<path class="st0" d="M69.39,202.38c-0.18-1.25,2.76-3.3-0.32-3.77C70.28,200.52,66.87,201.22,69.39,202.38z"/>
	<path class="st0" d="M70.37,191c-1.32,0.35-3.11,3.3-0.77,4.05C69.56,192.81,71.28,192.64,70.37,191z"/>
	<path class="st0" d="M63.16,176.15c4.25,1.31,1.26-4.18,4.95-0.99c1.58-1.55-1.28-3.23-2.95-2.91
		C64.13,174.52,64.79,174.4,63.16,176.15z"/>
	<path class="st0" d="M64.77,181.9c-1.49,0.28-1.87,2.3,0.42,2.96C65.83,183.69,65.69,182.71,64.77,181.9z"/>
	<path class="st0" d="M63.48,197.53c1.64-2.63,1.95,0.32,2.91,1.37c-0.38-3.17,0.16-4.04-1.78-6.47
		C64.32,194.32,60.41,195.9,63.48,197.53z"/>
	<path class="st0" d="M56.22,154.28c2.1,1.62,2.07-1.04,2.99-1.82c0.92,1.55,1.63,0.3,2.55,1.85c0.87-1.17,1.64-2.3,0.13-3.13
		c-0.68,0.47-1.55,0.56-2.76-0.05C58.27,152.45,57.6,154.09,56.22,154.28z"/>
	<path class="st0" d="M56.17,157.45c-1.52,1.3-3.37,1.27-2.01,3.56C55.67,159.69,57.51,159.76,56.17,157.45z"/>
	<path class="st0" d="M64.16,293.43c-0.07,0.7,0.25,1.53,0.71,2.43c-0.04-1.09,0.01-2.32,0.45-3.95c0.46,1.82,0.74,4.07,0.98,6.52
		c0.9,1.65,1.43,3.19,0.37,4.17c0.11,1.31,0.21,2.63,0.33,3.97c1.62,7.31,4.7,13.23,6.75,19.38c-1.08,0.13-1.54-0.46-2.69-0.26
		c-0.84,0.2-0.77,0.62-0.51,1.09c0.28,0.11,0.53,0.26,0.91,0.25c0,0.29-0.15,0.54-0.35,0.79c0.06,0.14,0.15,0.3,0.13,0.42
		c2.73-0.17-0.04-1.67,2.7-1.83c2.88,2.98,4.25,10.35,7.16,13.75c-1.44,0.47-1.25-1.29-2.92-0.52c0.29,2.34,5.79-0.08,4.05,2.73
		c-1.36,0.39-2.12-0.11-2.41-1.2c-1.68,2.22,2.21,3.5,2.85,4.66c0.5-0.67,1.28-1.35,2.26-1.5c-0.36,0.61-0.26,1.3,0.21,2.04
		c-0.24,0.17-0.54,0.19-0.84,0.14c0.08,0.24,0.17,0.5,0.26,0.77c0.74,0.2,0.45,1.96,2.28,0.52c-0.21,1.7,0.68,1.58,1.33,3.72
		c-1.09-0.35-1.72-0.7-2.38-1.09c0.54,1.21,1.21,2.34,2,3.22c0.44-0.08,0.56-0.43-0.09-1.38c1.35,1,2.07,1.89,2.78,2.81
		c0.33,0.02,0.64,0.08,1-0.01c0.2,0.33-0.02,0.62-0.26,0.9c0.43,0.52,0.96,1.06,1.62,1.64c0.46-0.15,0.96-0.35,1.49-0.61
		c-2.18,2.25,3.83,7.83,5.11,9.52c-3.81,1.21-4.26-4.13-8.03-3.12c3.34,3.56,6.4,8.13,11.31,8.68c0.05,2.94,1.48,5.35,3.43,7.54
		c0.25-0.26,0.52-0.52,0.95-0.83c-0.61,1.86,2,3.17,4.3,1.41c-4.46-0.27-4.94-8.94-10.64-11.64c-0.26-0.52,0.99-1.03,1.75-1.54
		c-4.13-2.41-5.1-7.06-6.83-10.66c-0.45,0.21-0.9,0.44-1.34,0.66c0.29-0.3,0.73-0.53,1.33-0.69c-0.8-1.65-1.75-3.1-3.27-3.97
		l2.17-0.98c-3.44-0.13-3.16-1.6-3.28-3.85c1.97,1.58,3.01-0.39,4.21,2.37c-0.45-2.78-3.33-4.75-0.97-7.83
		c-1.07,0.39-2.14,0.77-1.99,1.31c-1.33-0.2-0.48-3.43,0.2-4.64c-0.44-0.06-1.07-0.52-1.72-0.87c-0.26,0.24-0.59,0.44-1.02,0.56
		c0.21-0.27,0.28-0.56,0.36-0.86c-0.6-0.21-1.16-0.17-1.48,0.61c-1.28-3.15-3.21-6.48-4.79-9.9c1.31-0.39,2.08-0.23,2.74-0.09
		c0.23-0.86,0.71-1.81,0.76-2.36c0.72,0.04,1.45,0.06,2.49-0.29c-2.57-1.13,1.21-1.68,1.21-3.24c-0.39-0.4-1.66,0.17-1.9-0.39
		c-0.92-1.23-0.11-2.09,2.39-2.57c-0.41,2.52-0.23,2.2,1.77,4.18l-2.3,0.7c0.66,0.91,0.58,1.65,0.17,2.35
		c1.48-0.67,2.16-1.13,3.17-1c0.53-0.13,1.02-0.2,1.49-0.27c0.04-0.56-1.14-1.34,1.1-1.49c-0.17,0.46-0.35,0.94-0.53,1.42
		c0.66-0.05,1.25,0.02,1.77,0.21c0.37-0.72,0.79-1.4,1.23-1.95c1.18,0.54,0.91,1.78,0.34,3.26c0.05,0.07,0.11,0.09,0.15,0.16
		c-0.09,0.03-0.13-0.01-0.21,0c-0.35,0.88-0.78,1.83-1.09,2.78c1.11,0.37,0.55,0.77-0.31,1.28c-0.07,0.47-0.09,0.92-0.02,1.36
		c-0.33-0.25-0.58-0.55-0.77-0.88c-0.43,0.27-0.85,0.58-1.11,0.93c2.23,0.09,3.21,0.03,1.78,1.76c0.14,0.04,0.33,0.02,0.49,0.04
		c0.36-0.08,0.81-0.11,1.37-0.1c-0.12,0.07-0.16,0.13-0.25,0.19c0.67-0.01,1.36-0.05,2-0.04c0.52,3.17,3.09,6.83,6.29,10.95
		c-0.64,0.19-0.96-0.06-1.7,0.27c2.44,0.91,3.09,1.81,4.91,4.69c0.57-0.26,1.12-0.51,1.48-0.77c-0.06-0.09-0.02-0.15-0.16-0.25
		c0.14-0.11,0.33-0.11,0.5-0.14c0.03-0.08,0.08-0.16,0.05-0.25c0.03,0.06,0.11,0.13,0.15,0.19c0.9-0.03,1.94,0.5,1.67-0.47
		c3.63-0.13-2.61,2.36,0.84,2.53c-0.24,0.08-0.43,0.08-0.65,0.13c0.9,0.87,1.96,1.73,3.09,2.56c0.52-0.29,0.81-0.58,0.78-0.88
		c1.72-0.03,0.99,0.78-0.18,1.3c0.46,0.32,0.89,0.64,1.35,0.93c0.83-0.25,1.65-0.31,1.64,0.25c1.38-0.71,2.18-1.52,2.57-2.3
		c-1.53-0.17-2.57-0.75-3.29-1.63c-1.38,0.06-3.1,0.63-4.09,0.02c1.31-0.59,2.16-1.26,2.89-2.05c-0.68-1.46-1.31-3.02-2.54-4.21
		c0.37,0.67,0.39,1.33-1.47,1.94c0.15-0.29,0.23-0.52,0.3-0.75c-1.3,0.5-2.02,0.12-2.38-0.81c0.88-0.33,1.23-0.68,1.2-1.03
		c-0.8-0.2-1.86-0.27-2.91-0.46c4.11-1.24-0.14-7.25-5.33-5.85c-1.27-1.2,2.86-3.72-0.79-3c2.23-1.6,1.26-3.48,0.75-5.39
		c-1.35,0.32-1.27,0.82-1.12,1.33c-2.95,0.12,3.44-5.94-2.65-5.52c0.91-0.23,1.31-0.53,1.34-0.9c-1.01-0.29-1.18,0.58-2.66-0.04
		c0.14-1.38,0.95-0.82,2.88-1.39c-2.66-0.23-4.73-1.14-6.96-1.93c1.15-0.38,2.97-1.29,2.22-2.93c-2.45,3.08-5.21-0.85-1.6-1.8
		c-0.42-0.4-3.12-1.28-3.41,0.03c-0.13-0.26,0.76-1.32,1-2.3c-2.09-0.69-4.1-1.48-5.46-2.55c0.03-0.43,0-0.87-0.09-1.3
		c-2.36,2-2.97,4.5-2.76,7.2c-1.74-0.66-1.97-2.16-1.63-3.56c-1.31-0.15-2-0.93-2.26-2.13c-1.79,0.12-1.92,0.69-2.75,1.08
		c0.24,0.3,0.55,0.59,1.03,0.8c-2.01,0.92-3.59-1.02-3.92-3.09c-0.94-0.76-2.04-1.36-3.01-2.1c1.78,0.06,2.33-1.21,2.62-2.91
		c-0.27,0.05-0.46,0.03-0.75,0.11c2.41-3.29-3.04-3.8-5.65-5.69c3.02-2.56,3.32,1.91,5.45,1.91c3.71-1.24-3.57-2.17-0.96-4.08
		c-1.65-1.34-2.21,1.85-4.02,0.65c-0.54-4.29,2.07-10.45-1.87-14.08c-1.08,0.25-0.48,1.24-0.5,1.95c-0.08-0.05-0.1-0.07-0.17-0.12
		c0.15,0.49-0.17,0.78-0.61,1.03c1.23,0.52,1.19,1.69,0.63,2.93c-1.49,0.01-1.1-1.45-1.22-2.51c-0.2,0.21-0.31,0.46-0.07,0.86
		c-1.74-0.64-2.71-2.44,0.99-2.51c-1.05-0.77-1.02-0.68-3.03-0.77c0.88-0.28,0.63-2.38-0.14-0.95c-1.56-1,3.22-3.85,1.03-5.32
		c0.67,0.2,1.36,0.39,2.48,0.29l-0.19-1.86c-0.7,0.25-1.41,0.5-1.52,1.04c0.97-7.35-1.65-16.63,2.39-23.41
		c0.02-1.1-2.23,0.09-1.65,0.87c-1.9-0.59-0.47-3.12,0.92-3.24c-3.43-3.94,0.41-5.43-1.71-10.03c5.63,0.09,1.14-5.96,4.78-5.22
		c1.1-2.14-3.66-0.19-3.09-1.32c0.08-1.4,0.59-6.38,0.53-8.14l-3.21-0.5c0.22-1.91,1.21,0.35,2.59-0.57
		c-2.75-1.68,3.31-3.2-1.33-5.17c0.68-0.91,1.48-0.77,2.5-0.03c-0.41-0.9-1.6-3.72-3.51-2.66c-1.95-0.19,1-2.1-2.01-1.92
		c0.81-0.74,1.46,0.22,2.37,0.48c-0.9-3.94,2.44-7.88,1.74-11.85c0.96,0.82,1.74,0.99,2.5,0.13c-1.87-0.49-2.17-3.6-4.18-2.65
		c-0.84-0.95-0.83-2.83,0.26-3.08c-0.48-0.64-1.8-0.86-4.47-1.79c-0.39,2.63-0.92,6.51,2.77,6.59c-0.39,0.89-2.69-0.32-2.81,0.86
		c0.8,2.63,2.98,4.89,2.2,9.85c-1.74-0.58,0.83-2.63-1.72-2.94c-0.57,0.94-0.96,5.66,1.5,6.97c-1,0.13-2.14-0.15-3.53,0.87
		c2.1,2.84-3.62,5.62,1.56,8.34c-0.5,0.88-1.94,0.98-2.02,2.21c0.14,1.28,2.37-0.16,1.85-1.24c3.31,3.66-6.12,6.36-3.02,9.1
		c-0.73,1.42-1.68-0.65-3.24-0.34c1.31,2.45,0.7,2.99,0.97,5.61c2.15-1.89,1.43-2.77,3.08-5.19c2.39,2.4-2.46,5.46-0.01,7.88
		c-0.99-0.28-1.63-0.75-1.51-1.58c-1.68,2.94,1.79,2.02-3.52,3.72c-0.79,1.54,1.2,1.6,1.5,2.55c2.32-0.38-0.12-2.09,0.15-2.95
		c1.17,0.81,2.36,1.61,3.95,2.18c-2.75,0.82-4.43,2.42-5.07,4.68c0.23,0.68,2.02,0.47,3.25,0.59c0.35,1.05-1.19,0.9-2.48,0.92
		c3.87,6.69,1.48,14.62,3.44,22.41C61.57,284.45,64.49,289.88,64.16,293.43z"/>
	<path class="st0" d="M95.39,335.24c0.13,0.53-1.18,0.86-2.03,1.24c0.41,0.39,1.62-0.27,1.91,0.27c0.45-0.65,0.77-1.87,0.72-3.07
		c-0.69-0.18-1.49-2.1-2.36-3.15c-0.43-0.08-0.91-0.09-1.48-0.01c0.39-1.04,0.1-2.2,0.19-3.29c-0.55,0.33-1.16,0.7-1.91,1.07
		c1.07-1.27-0.4-1.09-0.95-2.12c-1.99,0.42-2.07,1.22-1.72,2.11c0.54,0,1.14-0.19,2.04-0.88c0.28,0.99,0.39,1.97,0.52,2.91
		c0.05-0.03,0.07-0.03,0.12-0.06c0,0.09-0.07,0.16-0.1,0.24C90.7,332.81,91.29,334.74,95.39,335.24z"/>
	<path class="st0" d="M95.98,326.97c0,0.01-0.01,0.01-0.01,0.02c0,0-0.01,0-0.01,0c-0.44,0.43-0.36,0.94-1.36,1.27
		c0.62,0.46,1.67,1.9,2.73,2.13c-0.24-1.23,0.08-2.7,0.66-4.08c-0.21,0-0.41-0.01-0.73,0.12C96.53,326.57,96.21,326.76,95.98,326.97
		z"/>
	<path class="st0" d="M95.5,337.17c0.11,1.32,2.67,2.89,3.31,1.19C97.63,338.77,98.96,335.39,95.5,337.17z"/>
	<path class="st0" d="M96.92,355.06c0.98,0.64,0.91,3.1,2.61,2.5C97.95,356.26,101.09,353.29,96.92,355.06z"/>
	<path class="st0" d="M169.41,427.73c-0.4-1.98-3.01-4.54-6.06-3.32c0.68,0.75,3.41,0.76,1.43,2.46c-1.2-1.26-3.46-1.5-6.52-1.99
		c1.23-1.41,2.34-1.29,1.41-2.57c-2.01,1.3-0.75-1.93-2.22-2.19c-1.12,0.84-0.68,3.18-2.39,2.84c0.49-1.97-0.23-3.55-1.11-5.07
		c-9.28-1.03-15.47-7.78-20.47-9.96c0.27,0.34-0.08,0.8-0.6,1.29c0.47,1.84,2.12,3.26,3.52,4.49c-0.93,0.7-1.77,0.68-2.61,0.59
		c5.37,6.16,13.2,10.58,20.35,13.09l-1.51,1.83c6.07,2.33,7.9,8.18,15.09,8.31c0.63-4.63-7.42-6.03-9.9-9.53
		c2.98-1.95,5.35,5.09,9.04,4.14C164.3,430.45,168.11,430.2,169.41,427.73z"/>
	<path class="st0" d="M173.55,428.26c1.11-2.09,2.29-2.64,3.42-3.98c-3.5-0.47-4.25-4.19-7.7-2.44
		C171.12,424.54,171.27,426.46,173.55,428.26z"/>
	<path class="st0" d="M183.04,435.99c-2.36-0.26-0.33-2.5-2.67-2.78c-0.86,1.11-0.32,1.61-1.08,2.68
		C180.51,435.73,181.9,436.8,183.04,435.99z"/>
	<path class="st0" d="M211.79,440.7c-0.32-1.71,0.01-3.79-2.83-3.92c-0.65,1.76-1.49,2.75-2.72,2.11c0.78-0.61,1.48-1.52,2.03-3.09
		c-2.37,0.49-4.48,0.44-6.22-1.39c-2.14,2.44,2.5,1,1.5,2.8c-4.32-0.34-3.1-1.96-6.22-3.83c-2.09,0.53,0.26,2.51-1.38,2.55
		c0.44-2.91-2.71-1.24-2-3.93c-5.26-1.81-5.78-1.66-10.82-3.12c0.51-0.94,1.62-2.19,1.11-2.67c-1.1,1.3-2.5-1.27-3.56,0.76
		c0.62,0.73,1.75,1.22,1.57,2.31c-4.95-3.31-9.38-2.16-8.37,4.04c1.22-2.76,1.67-3.21,3.83-3.78c-1.27,1.77,1.15,3.85,2.47,1.97
		c0.26-0.99-1.79-0.96-1.12-2.12c5.47,3.48,10.95,5.3,16,9.27C200.07,436.7,206.87,444.74,211.79,440.7z"/>
	<path class="st0" d="M242.75,467.55c-2.16,1.06-3.59-1.7-5.13,1.33C239.26,468.3,242.1,469.93,242.75,467.55z"/>
	<path class="st0" d="M251.33,483.71c-0.71-0.2-0.49-1.19-0.27-2.17c-0.95,0.01-2.23-0.54-2.59,0.38c2.08-0.2-0.47,4.63,2.24,1.71
		C250.63,484.02,251.08,484.49,251.33,483.71z"/>
	<path class="st0" d="M256.14,472.91l-2.37-0.28c-0.48,1.81,0.95,1.94,2.05,2.37L256.14,472.91z"/>
	<path class="st0" d="M260.55,471.19c-1.56-0.12-3.39-0.69-3.72,1.08c0.57,0.87,1.97,0.98,3.44,1.02L260.55,471.19z"/>
	<path class="st0" d="M267.51,466.77c-6.02,0.36-16.98-2.48-19.55,1.55C252.33,467.55,262.78,469.95,267.51,466.77z"/>
	<path class="st0" d="M276.88,486.28c-1.25,1.99-1.14,2.17-0.88,4.91C278.67,491.19,277.75,487.76,276.88,486.28z"/>
	<path class="st0" d="M280.58,488.49c-0.83-0.02-0.54-1.24-1.22-1.41c-0.17,0.84-0.71,0.41-1.26-0.05
		c-0.24,1.38,0.79,1.43,1.18,2.16c-0.97,0.13-0.13,1.16,0.59,1.41C279.88,489.63,280.22,489.05,280.58,488.49z"/>
	<path class="st0" d="M292.72,494.03c-0.66-1.23-2.66-4.56-3.28-3.46c1.92,0.43-0.6,1.51,0.03,2.82c0.77,0.1,1.83-0.15,1.95,0.67
		c-0.97,0.14-2.4-0.21-2.6,0.75C291.15,496.01,290.42,494.32,292.72,494.03z"/>
	<path class="st0" d="M309.8,483.27l-0.21-2.11c-1,0.75-3.28,0.26-2.87,2.36L309.8,483.27z"/>
	<path class="st0" d="M313.85,491.39c-1.89-0.11-5.32-3.08-5.82-0.19c1.74-0.24,3.28-0.41,2.05,1.24
		C311.16,491.94,313.95,492.95,313.85,491.39z"/>
	<path class="st0" d="M325.63,480.83c-2.6-1.08-6.54,0.56-11.78-0.07c-0.21,5.57-4.86,3.4-6.27,5.52c4.95,2.54,7.08-0.14,8.98-3.67
		C319.16,484.9,324.26,484.6,325.63,480.83z"/>
	<path class="st0" d="M337.43,477.47c-4.14-0.77-8.08,1.65-11.56,1.19l0.62,3.49c2.05-2.33,3.48-1.02,6.72-1.06
		C333.57,477.8,336.55,480.12,337.43,477.47z"/>
	<path class="st0" d="M386.08,465.5c-0.96,0.12-1.99,0.19-3.07,0.11c-0.09-0.04-0.12-0.09-0.2-0.13c-0.6,0.24-0.99,0.68-0.9,1.55
		c-0.6-2.2-2.13-1.37-3.44-1.23L379,467c-0.39-0.5-0.89-0.68-1.42-0.77c0.6,1.34-0.24,1.91,0.9,3.54
		C381.35,469.79,383.11,466.94,386.08,465.5z"/>
	<path class="st0" d="M378.84,483.24c-0.3-2.42-2.34-0.43-3.63-0.37c0.52-1.69-0.97-1.17-0.46-2.85c-1.55,0.36-3.01,0.76-2.52,2.25
		c0.87,0.05,1.59,0.48,2.01,1.64C375.89,483.41,377.66,482.58,378.84,483.24z"/>
	<path class="st0" d="M385.59,479.43c-2.15,0.1-3.46-1.01-4.25,1.48C383.48,480.83,384.83,481.92,385.59,479.43z"/>
	<path class="st0" d="M409.62,466.3c-0.43-1.32-0.98-2.33-2.54-2.52c-2.22,1.18-0.31,1.88,0.34,3.51
		C408.18,466.95,408.89,466.63,409.62,466.3z"/>
	<path class="st0" d="M413.64,464.47c-0.31,0.12-0.61,0.26-0.9,0.41C413.05,464.75,413.33,464.61,413.64,464.47z"/>
	<path class="st0" d="M454.91,438.12c-0.38,0.3-0.77,0.61-1.14,0.91c-1.17,0.97-2.79,1.38-2.47,0.87c-2.08,3.45-7.73,7.5-11.39,4.22
		c2,4.07-4.06,1.21-5.21,4.98c-0.41-0.75-0.93-1.16-1.48-1.45c-0.44,0.58-1.41,0.42-2.36,1.76c-1.14-0.99-0.52-1.68,0.4-2.08
		c-1.06,0.19-2.09,0.83-2.95,1.68c0.19,0.25,0.38,0.49,0.53,0.72c-0.73,0.37-1.29,0.66-1.78,0.92c-0.29,0.54-0.53,1.09-0.59,1.61
		c2.78,1.32,5.95-0.56,7.71-2.84c-0.11,5.37-9.07,5.36-9.73,9.99c8.37-4.09,16.24-8.44,27.04-15.45c1.7-0.55-0.09-1.81-0.03-2.68
		c1.19,0.73,2.3-1.7,3.5-0.67C455.18,439.82,455.48,439.05,454.91,438.12z"/>
	<path class="st0" d="M482.85,403.8c-1.12,0.93-2.26,1.79-3.41,2.51c0.01,0.05-0.01,0.08,0,0.13c0.99,0.52,0.36,0.95-0.03,1.4
		c-0.03,0.23-0.06,0.45-0.12,0.66c0.07,0.1,0.16,0.19,0.33,0.29C483.09,409.53,484.07,405.88,482.85,403.8z"/>
	<path class="st0" d="M489.76,398.84c-0.71,0.28-1.13,0.02-1.5-0.37c-1.48,1.71-3.08,3.3-4.73,4.72c0.04,0.07,0.03,0.15,0.09,0.22
		C487,400.83,487.84,400.69,489.76,398.84z"/>
	<path class="st0" d="M494.5,399.25c-1.98,0.27-4.64,1.51-2.35,3.87C493.17,401.23,495.74,399.06,494.5,399.25z"/>
	<path class="st0" d="M495.13,393.68c-1.23,1.73-2.9,2.58-5.35,2.9c-0.18,0.23-0.37,0.46-0.55,0.69
		C491.65,398.52,498.41,396.89,495.13,393.68z"/>
	<path class="st0" d="M497.56,390.57c-1.56,0.07-3.56,2.32-0.75,3.49C497.64,392.87,498.1,391.69,497.56,390.57z"/>
	<path class="st0" d="M502.96,384.62c-2.11,0.38-3.1,3.42-4.72,5.04C501.31,390.71,504.06,386.65,502.96,384.62z"/>
	<path class="st0" d="M506.99,400.44c-0.4,0.48-0.81,0.96-1.21,1.44l2.74,1.7l1.53-1.89C509.26,400.92,508.04,400.66,506.99,400.44z
		"/>
	<path class="st0" d="M516.54,361.6c-0.27,0.2-0.41,0.41-0.54,0.63c0.03,0.39,0.02,0.78,0.09,1.17c-0.08,0.02-0.19,0-0.28,0
		c0.3,1.59,2.23,3.18,0.45,3.51c-0.78-0.27-0.28-2.73-1.91-1.44c1.9,1.34-1.33,1.37-1.39,2.41l2.89,1.3
		C520.29,367.92,518.09,364.2,516.54,361.6z"/>
	<path class="st0" d="M516.33,357.61c-0.19,0.85-0.32,1.71-0.37,2.59c0.39-0.45,0.79-0.89,1.16-1.34
		C516.55,358.25,516.36,357.86,516.33,357.61z"/>
	<path class="st0" d="M531.47,306.03l-2.4-0.38l-0.22,1.01c0.11-0.05,0.22-0.14,0.32-0.17c0.23,0.48,0.31,0.88,0.33,1.24
		C530.73,307.7,531.02,306.79,531.47,306.03z"/>
	<path class="st0" d="M530.2,252.68c-1.21,1.28-1.55,3.02-2.08,4.66c1.55,0.05,1.75-0.64,3.22-0.64
		C530.21,254.71,533.19,252.85,530.2,252.68z"/>
	<path class="st0" d="M531.36,248.01c-0.07,0.6-1.22,0.65-2.38,0.69c0.24,1.63,1.32,2.64,3.55,2.81
		C533.59,250.75,533.72,247.82,531.36,248.01z"/>
	<path class="st0" d="M556.95,269.84c-0.19,0.06-0.37,0.12-0.69,0.3c0.51,0.3,0.82,0.57,1.11,0.83
		C557.31,270.54,557.18,270.16,556.95,269.84z"/>
	<path class="st0" d="M550.97,277.52c0,0.04,0.03,0.08,0.05,0.11C551,277.59,550.98,277.56,550.97,277.52z"/>
	<path class="st0" d="M548.32,285.36c-0.06,0.72-1.46,0.4-1.7,0.98c0.97,0.19,0.44,0.64-0.12,1.08c1.59,0.28,1.69-0.61,2.56-0.9
		c0.1,0.85,1.34,0.18,1.67-0.43C549.61,286.02,548.96,285.7,548.32,285.36z"/>
	<path class="st0" d="M539.28,245.77l4.06-0.36c-2.59-1.89-1.01-3.06-0.88-5.85c-3.78-0.48-0.95-2.93-3.97-3.83
		C537.39,239.26,539.99,242.79,539.28,245.77z"/>
	<path class="st0" d="M541.18,310.89c0.44,0.08,1.01-0.28,0.12-0.53c-0.27,0.61-1.4,0.36-2.52,0.12c-0.04,0.82-0.74,1.9,0.31,2.26
		C538.96,310.93,544.41,313.37,541.18,310.89z"/>
	<path class="st0" d="M543.93,262.55l-0.14-2.67l-2.45,0.07C542.16,260.85,541.48,262.79,543.93,262.55z"/>
	<path class="st0" d="M547.16,261.94c3.19-4.14,0.2-6.11-3.78-7.94c2.78-2.12,2.69-6.54-1.59-7.92c-1.39,2.19,0.31,5.67-0.68,10.16
		C547.53,256.72,544.78,260.62,547.16,261.94z"/>
	<path class="st0" d="M551.21,289.44c0.03-0.44-0.13-0.75-0.36-0.99c-0.26,0.02-0.47,0.04-0.88,0.07c0.32-0.08,0.45-0.19,0.68-0.29
		c-1.14-0.78-3.75-0.31-5.07,0.2C547.82,289.62,548.03,289.53,551.21,289.44z"/>
	<path class="st0" d="M551.42,285.51c-0.09-0.19-0.17-0.36-0.27-0.55c-0.13,0.19-0.17,0.45-0.38,0.57
		C551.06,285.58,551.2,285.51,551.42,285.51z"/>
</g>
<path class="st0" d="M536.88,335.73c0.42,2.31-2.48,0.42-2.48,2.19c3.77-1.76,3.06,2.51,6.19,1.77
	C537.95,338.82,538.83,336.81,536.88,335.73z"/>
<path class="st0" d="M363.49,482.51c1.61,0.87,3.43,3.9,3.06,2.86C367.84,483.92,364.94,481.75,363.49,482.51z"/>
<path class="st0" d="M331.19,493.6c-1.72-0.69-5.96-1.73-3.33-3.8c-2.5,0.52-4.75-1.19-5.61,1.41c1.37,0.66,4.53,1,3.13,3.18
	C326.57,492.44,332.44,495.16,331.19,493.6z"/>
<path class="st0" d="M333.52,562.36c-0.62,1.04-0.55,0.93-2.72,4.57c3.65-1.06,7.06-2.31,6.79-5.77
	C336.44,561.7,333.13,560.87,333.52,562.36z"/>
<path class="st0" d="M168.19,471.29c0.43,0.96,1.88,1.53,1.32,2.9c-3.04-0.95-5.05-6.38-6-2.56c1.89-0.99,3.18,2.32,3.12,3.69
	c1.52-1.09,8.41-0.63,6.6-1.16C169.76,474.24,170.1,470.25,168.19,471.29z"/>
<path class="st0" d="M158.3,459.71c-2.13,2.7-6.21,3.94-5.44,7.05c0.63-1.29,1.58-0.82,2.38-1.27c-0.7-2.32,2.21-5.45,5.09-3.22
	C162.25,460.47,159.19,460.49,158.3,459.71z"/>
<path class="st0" d="M137.53,458.61c-0.12-1.4-1.94-1.73-3.24-1.01c3.62,3.23,6.52,1.77,9.01,5.01c0.59-0.69,1.19-1.31,2-0.59
	c-0.4-2.45,2.89-3.56,1.34-5.07c-1.57-0.1-0.69,2.95-2.48,4.47l-2.26-1.22l2.2-2.97C140.88,458.07,138.12,455.6,137.53,458.61z"/>
<path class="st0" d="M98.93,468.38c0.3,1.56,3.93,2.6,0.43,4.75C103.84,475.7,102.04,467.49,98.93,468.38z"/>
<path class="st0" d="M9.93,349.87c0.45,1.01,0.07,1.7-0.76,2.27c-1.89-1.55-1.02-1.94-1.76-4.17c-1.51,0.3-1.42,1.19-2.83,1.55
	c0.27-2.43-2.94-3-4.24-4.19c0.9,1.73-1.01,2.4-0.09,4.14c3.75,0.75,3.53,2.75,6.18,6.31c1.42-0.68,1.88,0.3,2.83,0.43
	c-0.62-1.55,0.44-2.54,0.93-3.72c0.71,0.35,4.39,0.67,4.07-0.66C11.18,351.64,12.49,350.02,9.93,349.87z"/>
<path class="st0" d="M560.88,218.98c0.92-0.76,2.17-1.38,2.75-2.31c-1.08,0.23-1.82,0.06-2.54-0.11c0.37,1-0.44,1.47-2.09,1.58
	c0.28,2.58,2.91,2.62,4.32,4c-0.3,1.74-2.23,2.7-3.21,4.08c2.51,1.94,0.45,6.32,2.74,10.16c-0.87-2.74,1.65-3.67,3.26-5.13
	c-2.43-1.81-0.82-3.47-3.48-4.83c1.51-0.2,1.6-0.71,0.55-1.28c2-0.23,3.91-0.51,3.74-1.8C564.38,222.44,563.41,219.87,560.88,218.98
	z"/>
<path class="st0" d="M46.94,372.95c-5.44,3.17-9.05,2.32-11.99-0.03c3.72-1.41,0.78-4.21,2.9-5.93c-3.06,1.51-3.08-1.09-4.56-0.1
	c0.89-0.74,1.33-1.59,1.33-2.53c-3.57,1.63-4.13-2.47-5.83-4.33c-2.77,1.1-1.81,1.43-4.49,1.69c-1.05,3.53,1.73,9.29,1.73,11.6
	c6.83,3.25,1.21,15.07,7.63,20.79c4.27,3.77,12.07,2.52,19.34-3.77C55.34,384.87,55.05,376.09,46.94,372.95z"/>
<g>
	<path class="st1" d="M180.23,222.86h51.38v142.69h-51.38V222.86z M205.93,151.92c16.43,0,29.75,11.52,29.75,25.7
		c0,14.21-13.32,25.73-29.75,25.73c-16.48,0-29.77-11.52-29.77-25.73C176.16,163.44,189.45,151.92,205.93,151.92"/>
	<path class="st1" d="M263.82,222.86h49.2v19.5h0.7c6.85-11.22,23.6-23.05,48.57-23.05c51.93,0,61.53,29.54,61.53,67.97v78.27
		h-51.27v-69.38c0-16.55-0.37-37.84-26.68-37.84c-26.71,0-30.78,18.02-30.78,36.64v70.58h-51.26V222.86z"/>
</g>
</svg>
