<?xml version="1.0" encoding="utf-8"?>
<!-- Generator: Adobe Illustrator 27.1.1, SVG Export Plug-In . SVG Version: 6.00 Build 0)  -->
<svg version="1.1" id="Layer_1" xmlns="http://www.w3.org/2000/svg" xmlns:xlink="http://www.w3.org/1999/xlink" x="0px" y="0px"
	 viewBox="0 0 566.93 566.93" style="enable-background:new 0 0 566.93 566.93;" xml:space="preserve">
<style type="text/css">
	.st0{fill-rule:evenodd;clip-rule:evenodd;fill:url(#SVGID_1_);}
	.st1{fill-rule:evenodd;clip-rule:evenodd;fill:url(#SVGID_00000021098634841650872820000003894783780302824578_);}
	.st2{fill-rule:evenodd;clip-rule:evenodd;fill:#FFFFFF;}
</style>
<g>
	
		<linearGradient id="SVGID_1_" gradientUnits="userSpaceOnUse" x1="149.6133" y1="257.5937" x2="646.3757" y2="257.5937" gradientTransform="matrix(0.6742 -0.7385 0.7385 0.6742 -241.2289 363.706)">
		<stop  offset="0" style="stop-color:#329F7E"/>
		<stop  offset="0.5363" style="stop-color:#AAD037"/>
		<stop  offset="1" style="stop-color:#E5E63E"/>
	</linearGradient>
	<path class="st0" d="M123.23,28.67l52.98,509.68c0.97,9.3,12.21,13.41,18.95,6.93l342.6-329.4c5.72-5.5,4.09-15.02-3.13-18.31
		L139.06,17.29C131.16,13.69,122.34,20.03,123.23,28.67z"/>
	
		<linearGradient id="SVGID_00000069379658190422718690000002856570781087403188_" gradientUnits="userSpaceOnUse" x1="37.6046" y1="190.1113" x2="557.797" y2="190.1113" gradientTransform="matrix(0.9223 0.3864 -0.3864 0.9223 125.6682 -54.4424)">
		<stop  offset="0" style="stop-color:#329F7E"/>
		<stop  offset="0.5363" style="stop-color:#AAD037"/>
		<stop  offset="1" style="stop-color:#E5E63E"/>
	</linearGradient>
	<path style="fill-rule:evenodd;clip-rule:evenodd;fill:url(#SVGID_00000069379658190422718690000002856570781087403188_);" d="
		M543.09,99.99L15.37,314.78c-9.5,3.87-9.27,17.4,0.36,20.94l467.57,171.93c6.65,2.45,13.88-1.81,14.97-8.81l60.16-386.72
		C559.76,103.49,551.18,96.7,543.09,99.99z"/>
	<path class="st2" d="M336.84,160.45c-6.97-0.77-15.85-3.37-17.42,4.73c-1.74,8.41,8.19,7.81,14.64,9.03
		c43.92,8.42,58.9,22.17,66.22,59.51c0.34,1.53,0.52,3.51,0.52,5.2c0.52,4.43,1.74,8.41,9.41,7.19c3.84-0.46,5.23-2.29,5.4-4.89
		c0.52-2.3,0-5.36,0.35-7.5C416.13,197.76,380.41,165.19,336.84,160.45L336.84,160.45z M340.86,189.97c-4.53,0-9.06,0.46-10.81,4.75
		c-2.62,6.12,2.79,7.8,8.19,8.56c17.95,2.3,27.36,11.48,29.28,26.77c0.17,2.14,1.05,3.82,2.09,5.21c1.57,1.51,3.49,2.14,5.92,1.98
		c1.57,0,2.79-0.47,3.83-0.92c2.97-1.99,3.49-5.66,3.14-9.48C382.85,209.55,360.2,189.51,340.86,189.97L340.86,189.97z
		 M431.81,311.11c-8.88-6.12-18.65-11.63-27.71-17.29c-18.64-11.02-35.72-11.92-49.49,5.97c-7.84,10.1-18.82,10.56-30.15,6.12
		c-31.54-12.08-55.76-30.89-70.05-58.58c-2.09-4.28-3.49-8.41-3.66-12.23c-0.52-7.34,2.96-13.76,12.38-19.43
		c7.84-4.43,15.5-9.79,14.98-19.73c-0.7-13-37.29-56.29-51.92-61.03c-5.93-1.84-11.85-1.53-17.95,0
		c-33.98,9.94-47.92,33.81-34.5,62.1c7.67,15.91,15.86,30.75,25.62,44.66c41.65,61.18,102.98,105.85,182.1,135.06
		c5.4,1.99,11.5,2.91,14.81,3.52c22.13,0.31,47.92-18.2,55.41-36.26C459,326.4,443.67,319.67,431.81,311.11L431.81,311.11z
		 M322.91,143.63c70.92,9.47,103.5,38.53,112.56,99.88c0,0.62,0,1.07,0,1.52c0.52,5.66-0.69,13.01,7.85,13.01
		c7.49,0.15,7.84-4.74,7.84-9.49c-0.35-1.68-0.35-3.06-0.35-4.43c0.87-57.98-57.85-111.81-125.81-113.65
		c-5.4,0.76-15.86-3.06-16.73,6.88C308.09,143.93,316.98,143.01,322.91,143.63L322.91,143.63z"/>
</g>
</svg>
