<?xml version="1.0" encoding="utf-8"?>
<!-- Generator: Adobe Illustrator 27.1.1, SVG Export Plug-In . SVG Version: 6.00 Build 0)  -->
<svg version="1.1" id="Layer_1" xmlns="http://www.w3.org/2000/svg" xmlns:xlink="http://www.w3.org/1999/xlink" x="0px" y="0px"
	 viewBox="0 0 566.93 566.93" style="enable-background:new 0 0 566.93 566.93;" xml:space="preserve">
<style type="text/css">
	.st0{fill:#00AB4E;}
	.st1{fill-rule:evenodd;clip-rule:evenodd;fill:#FFFFFF;}
</style>
<g>
	<path class="st0" d="M67.18,415.72l0.04,0.06l-3.51-1.04c0.21-0.3,0.45-0.36,0.67-0.48C65.28,414.68,66.21,415.16,67.18,415.72z
		 M42.26,199.27c0.24,0.38,0.47,0.75,0.74,1.04C42.99,199.61,42.67,199.16,42.26,199.27z M500.45,191.16
		c-0.05-0.08-0.11-0.17-0.14-0.22l-0.86,0.27L500.45,191.16z M310.18,16.34c1.34,0.19,2.79,0.26,4.43-0.01
		C312.77,16.15,311.37,16.2,310.18,16.34z M508.8,443.31c2.07-3.05,4.06-6.04,6.07-9.09L508.8,443.31z M501.46,454.31l7.35-11
		c-5.79,8.53-12.34,17.56-22.6,29.92C491.36,466.93,496.66,460.8,501.46,454.31z M255.18,19.14l5.43,2.23l1.3-1.44L255.18,19.14z
		 M70.54,105.6c1.27-1.01,2.19-1.69,3.19-2.45c0.6,1.06,1.15,2.18,2.07,2.69l5.4-6.21c0.54,0.18,1.03,0.48,1.5,1.05
		c6.94-5.94,1.83-8.78,4.72-13.79c-1.59,1.92-2.95,3.4-4.2,4.7c0.34-1.03,0.61-1.99,0.39-2.54l-11.25,12.29
		c0.31,0.24,0.56,0.57,0.8,0.91C72.35,103.24,71.48,104.34,70.54,105.6z M87.41,86.89c0.8-0.86,1.56-1.69,2.49-2.69
		C88.72,85.18,87.93,85.99,87.41,86.89z M2.91,311.77c0.77,2.16,1.83,4.28,2.86,6.39l0.91-1.51c-1.09-2.09-1.91-4.22-2.74-6.36
		L2.91,311.77z M132.82,503.02c-0.25-0.26-0.56-0.52-0.84-0.78c2.06,1.34,4.11,2.66,6.18,3.99
		C136.47,505.43,134.72,504.47,132.82,503.02c2.62,2.69,3.37,5.74,4.19,8.08c-2.75,4.84-11.13-4.27-18.28-9.03
		c2.98,5.08-0.74,4.77-5.33,3.96c-0.69-0.31-1.27-0.36-1.77-0.3l-1.59-0.25l0.85,0.63c-0.44,0.42-0.7,1.12-0.71,2.35
		c6.93,3.24,8.87,10.17,12.81,13.1c0.64-5.01,4.06-2.75,8.57,0.25c4.49,3.03,9.82,7.39,13.11,7.78l6.42,2.79l2.26,1.29
		c0,1.08-1.22,1.8-5.52,1.24c3.59,0.47,13.49,5.57,13.78,2.71c7.68,3.43,15.07,7.5,23.12,10.09c0.61,0.6,1.19,1.28,1.51,2.06
		c1.02-0.2,1.32-0.57,1.37-1.02c34.38,12.8,71.26,18.85,107.71,18.05c-5.42-0.29-10.05-2.66-15.51-3.82
		c8.39-5.34-8.92-1.46-6.21-6.76c3.74-1.78,8.94-0.91,12.09,0.54c1.2-2.68-3.2-5.3-2.58-8.54c-6.38-2.01-10.17,0.2-14.11,2.58
		c-3.92,2.43-7.99,4.98-14.32,2.93c0.95-3.18,5.19-5.44-3.12-6.22l2.19-0.39c-13.86,1.6-8.88-8.76-18.87-1.37l1.19-4.58
		c-6.55,2.08-18.07-0.79-24.67-1.86l0.65-0.77c-19.38-0.89-10.37-2.02-30.81-7.57c3.64-0.21,7.43-0.95,11.09-1.54
		c-5.85-4.46-9.61,0.22-14.09-2.54c0.71-0.68,1.12-4.32,5.82-3.07c-8.62-1.02-17.65-1.87-26.52-3.54c-7.08-0.01-0.66,3.67-0.78,5.93
		c-3.51,1.54-12.48-5.86-11.39-8.63c1.98-0.28,7.8,1.75,5.5-1.78l-11.65,1.83c-7.51-10.06,13.14-3.65,19.2-3.22
		c-4.77-3.39-8.51-4.47-12.46-5.54c-2.44-0.66-5.01-1.37-7.77-2.66l-6.26-4.05c-0.78-0.71-1.65-1.42-2.78-2.08
		c0.7,0.61,1.31,1.04,1.95,1.55l-1.48-0.96c0.52,0.35,1.04,0.69,1.56,1.02C131.73,502.14,132.31,502.64,132.82,503.02z M303,566.43
		l-7.69,0.39C297.7,567.01,300.19,566.99,303,566.43z M107.55,496.29l-10.24-8.61c1.72,4.87-4.94,0.2-6.83,0.94l12.49,11.07
		C104.14,498.25,106.71,497.78,107.55,496.29z M104.38,505.51c1.22-0.56,3.39-0.37,5.66-0.03c-2.51-1.75-4.76-3.8-7.06-5.8
		C102.12,500.76,102.06,502.38,104.38,505.51z M354.74,540.34c1.08-0.38,2.13-0.75,3.23-1.13
		C356.45,539.58,355.5,539.95,354.74,540.34z M394.62,530.42c-11.18,4.14-28.59,6.77-27.86,12.85c0.14-0.97,0.37-2.89-2.17-3.04
		l-5.24,6.91l6.92,0c-2.66,3.46-9.75,6.35-16.75,8.01c-7.02,1.59-14.02,1.16-16.29-0.07c12.52-3.99,4.9-8.52,22.91-9.42
		c-1.2-1.41-4.99-3.47-1.39-5.3c-9.62,3.74-19.34,4.73-28.99,6.35c-9.66,1.99-19.43,2.5-30.06,5.96c17.2,4.54-11.07,4.92-5.76,11.44
		l9.48-2.65l-0.75,1.86l11.6-1.17c-2.6-2.99-4.36-3.09-4.05-6.39c15.28,0.31,5.04,3.95,16.79,6.75l17.19-3.16l-1.22,1.19
		c1.45-0.3,2.01-0.8,2.42-1.41c9.64-1.73,18.94-5.05,28.34-7.65c9.32-2.88,18.25-6.93,27.28-10.48
		C405.75,534.75,389.36,537.64,394.62,530.42z M480.31,471.97l0.31,0.53C480.65,472.01,480.56,471.76,480.31,471.97z M412.23,528.09
		l1.08-2.96l-5.37,1.91L412.23,528.09z M415.08,520.12l-1.77,5.02l5.34-1.92C417.52,521.95,416.42,520.71,415.08,520.12z
		 M439.78,513.61l-7.54,3.55C434.5,516.28,436.94,515.16,439.78,513.61z M426.51,519.8l5.72-2.63c-2.2,0.83-4.21,1.5-6.24,2.13
		L426.51,519.8z M430.8,523.91l-4.29-4.11c-2.63,1.13-5.11,2.52-7.86,3.41C421.25,526.11,424.16,529.11,430.8,523.91z
		 M458.36,502.54c-1.55,0.9-4,1.74-5.28,3.57C454.37,508.09,457.05,504.38,458.36,502.54z M541.54,376.23l3.06-2.82
		C543.09,374.26,542.32,374.7,541.54,376.23z M494.92,93.8l5.13,2.9C498.46,95.14,496.75,94.35,494.92,93.8z M455.55,476.03
		l0.16-0.07c0.13-0.28,0.18-0.56,0.33-0.83L455.55,476.03z M551.81,247.84c-0.52,0.88-0.98,1.83-1.25,3.09
		C551.3,250.69,551.68,249.55,551.81,247.84z M493.98,93.28c0.05,0.15,0.08,0.23,0.13,0.35l0.82,0.18L493.98,93.28z M390.98,28.75
		c-0.86-0.05-1.63-0.14-2.57-0.13C389.55,28.87,390.31,28.85,390.98,28.75z M262.33,19.28c2.43-0.27,3.86-0.77,4.89-1.37
		L262.33,19.28z M540.38,315.61c-1.29,1.07-3.04,3.67-4.11,2.21C537.53,320.29,541.42,320.69,540.38,315.61z M317.8,12.09
		c-0.05-0.23-0.05-0.44-0.2-0.67C316.72,11.64,317.11,11.89,317.8,12.09z M563.52,309.6c0.18-1.81,0.13-3.19-0.01-4.36
		C563.31,306.56,563.25,307.99,563.52,309.6z M563.51,305.24c-1.37-10.72-14.67,2.68-10.24-17.77c0.9,0.39,0.62,2.06,0.03,2.69
		c6.55-2.69-0.5-12.47-3.08-16.68c-3.47,1.27-4.57-3.2-6.14,4.53c1.97-2.66,8.61,6.38,5.03,13.83l-7.49-1.45l-1.41,10.43l-0.3-1
		c-5.1,3.56,0.58,11.21-3.62,17.99c2.06,5.48-3.59,24.84,5.74,17.89c-6.13,5.46-1.77,12.3-2.67,19.73l5.31-8.1
		c2.41,11.98,0,7.95,5.71,19.04c-2.29,0.26-4.58,1.61-6.03-0.75c-2.82,6.91-6.23,15.29-9.36,22.96c-3.4,7.53-5.8,14.68-5.04,20.07
		c-5.27,9.4-14.17,6.07-18.8,20.35c-0.9,3.12,7.51,1.99-0.19,8.74c-0.83,0.17,1.03-10.65-4.98-1.66
		c-0.14,9.54-13.11,12.73-16.31,23.04c-5.17,2.56-10.85,9.79-12.84,5.23c6.4-5.33,13.67-14.62,13.07-17.33
		c1.44,2.65,5.68-2.99,3.6,3.18c10.44-7.9,2.73-8.19,11.43-15.77c-1.06-1.64-7.59,1.67-7.71,4.52c-4.9-3.65,10.42-19.13-1.46-15.49
		c-7.26,8.6,1.12,19.54-10.57,23.3c-0.19-5.34,6.01-8.59,3.85-16.46l-6.89,4.89c-0.02,2.44,0.07,5.02-0.12,7.42l-0.47-0.84
		c-14.1,6.74-3.87,14.15-11.25,25.79c7.18-1.81,6.92,5.08,9.87,6.6c0.25-0.66,0.43-1.28,0.46-1.67l1.15,1.9
		c0.35-0.04,0.65,0.01,1.08-0.15c-0.24,0.27-0.48,0.49-0.72,0.75l0.89,1.46l-11.37,10.93l1.43-5.35c-2.45,0.91-4.69,0.65-6.58-1.43
		c9.17-15.12-3.55-5.48,3.27-20.32c-2.43,0.08-3.43-4.43-6.39-4.93c-1.4,2.41-2.91,4.75-4.43,7.02c1.41,0.47,3.35-0.24-0.13,4.49
		c-0.82-0.01-1.66-0.02-2.02-0.92c-0.67,2.9-1.96,3.49-3.31,4.35c-0.32,0.45-0.69,0.98-0.99,1.42c-0.19-0.08-0.2-0.23-0.35-0.33
		c-0.71,0.74-1.39,1.78-1.91,3.63l0.18-1.83c-2.18,0.42-3.33,1.26-4.11,2.23c1.35-0.42,2.78-0.87,3.39-0.1
		c-1.92,1.42-3.93,2.97-5.92,4.55c-0.24,0.28-0.55,0.51-0.89,0.73c-0.66,0.53-1.31,1.06-1.96,1.59c2.5,2.18-2.12,5.12-3.35,9.22
		c5.9-2.27,12.9,1.21,22.49-6.93c-1.26-3.77-3.24-4.72-0.67-9.36l-5.63,5.58c0.9-1.59,1.26-3.16,1.94-4.75l6.92-3.62
		c-5.09,7.81-0.36,8.37-0.24,13.02c1.97-2.25,4.34-4.2,5.93-2.59c-0.05,7.57-2.89-0.87-6.74,5.84c4.77-1.08,8.87,2.76,3.65,9.44
		l-5.99-8.57c0.31-0.43,0.85-1.22,1.52-2.12c-5.92,3.73-4.13,4.62-9.02,7c-2.9-4.52-19.38,3.28-30.08,5.03
		c1.46-0.63,3.12-1.78,4.13-2.23c4.39-6.59-6.7-1.17-7.66-2.32l-3.13,4.98c0.67-0.83,1.2-2.59-1.1-2.11
		c-5.55,4.52-2.71,8.84-8.82,12.89c-1.79-2.4,1.55-8.95-3.13-8.42c-0.43-0.26-1.01-0.6-1.67-0.94c-5.31,2.71-10.5,5.25-16.4,5.14
		c-2.51,2.91-5.5,5.93-8.52,8.93c0.22,0.04,0.35,0.08,0.6,0.12c5.46-1.17,11.17-1.9,16.48-3.69c-6.8,2.89-10.34,6.98-18.89,5.67
		l-1.03,5.56c7.08-0.36,15.63-4.46,22.35-9.53c-2.82,6.07-6.75,10.26-11.61,13.88c-4.89,3.53-10.52,7.1-17.6,9.95
		c-7.49-0.42,3.02-4.68-2.64-6.3c4.19,0.07,8.42-3.41,6.16-5.34c-3.21,0.81-5.08,2.8-6.84,4.01c-0.15-0.18-0.21-0.38-0.27-0.58
		c-2.59,1.5-8,1.63-13.76,1.95c-0.85,0.08-1.71,0.13-2.57,0.2c10.16,1.99,0.2,1.7,7.31,6.29c-2.78-0.87-6.88,0.58-11.05,1.21
		c-4.21,0.45-8.42,0.34-10.97-2.9c0.94-0.95,1.79-1.89,2.71-2.82c-1.91,0.64-3.68,1.47-5.02,2.85c-0.73-0.45,6.13-4.89,8.99-7.33
		c-6.47,0.19-10.66,7.36-13.46,2.23c14.63-0.33-1.41-4.21,4.75-6.72c-1.61,0.24-3.23,0.57-4.8,0.95c-1.3,3.47,0.74,7.3-8.3,8.78
		c-0.24,0.96,0.39,1.32,4.35-0.09c-8.05,5.81-20.35,7.86-30.9,6.54c0.11-2.36-1.19-3.52-5.03-4.67l-3.24,3.29
		c-4.83-0.85,9.52-3.62-0.2-5.31c-5.1,2.59-12.73,1.71-19.5,0.63c-6.79-1.19-12.89-1.7-16.07,3.31c-6.86-5.38,15.24-2.09,4.63-9.01
		c7.1-2.96,15.52,3.06,18.23-2.51c-6.51,1.18-1.85-4.73-5.85-5.25l-7.38,2.29l1.52,0.44c-12.62,3.71-31.02-2.82-45.71-6.91
		c-7.01,0.4-13.49,1.62-20.16,1.91c-6.5-0.08-13.15-1.24-20.42-5.04c5.69-0.65-10.49-8.78,1.32-9.33
		c-5.02-5.93-12.76-6.87-14.22-4.91c5.17,4.04,1.56,1.83,5.71,5.65c-4.66,0.6-12.12-4.02-14.09-7.42c1.29,1.02,1.06,0.24,1.87-0.33
		c-5.6-5.66-4.8,0.44-10.18-1.87c0.9-4.33-9.53-8.32-12.38-13.06c-3.29,0.06-6.32-0.26-9.52-0.47c5.62-0.08-4.55-5.89-3.04-9.25
		c-5.75-1.68-12.8-1.21-17.65-8.21c3.79,1.17-3.08-7.53-0.25-10.16c-1.67-3.18-3.96-5.39-6.57-7.18c-2.42-1.94-5.16-3.45-7.87-5.02
		c-5.34-3.16-10.86-6.45-12.3-13.59c0.99-0.13,4.53,0.74,3.28-3.08c-2.53-2-4.97-6.81-7.05-9.38l0.15,0.03l-0.18-0.09
		c-1.02-1.26-1.97-1.89-2.8-1.46c-6.34-2.91-11.22-3.6-19.12-12.64c-0.21,0.15-0.28,0.38-0.43,0.57l1.67,4.54l-2.02-0.72
		c0.61,2.07,2,4.41,3.53,6.37c0.15-0.13,0.29-0.26,0.44-0.39c0.21,0.62,0.5,1.19,0.75,1.78c0.59,0.65,1.17,1.25,1.69,1.69l5.72,1
		c-3.99,6.3,6.43,8.25,5.88,11.61c-3-0.49-5.9-2.51-8.77-5.2c0.3,0.83,0.54,1.61,0.88,2.49l-1.44-3.04
		c-0.64-0.63-1.29-1.2-1.93-1.89l-3.48,3.52c-3.83-4.74-3.26-7.53-1.55-9.69c-3.96-5.57-7.73-11.61-12.12-15.69
		c-1.19,4.65-0.14,10.9,2.17,17.57c2.21,6.72,6.67,13.29,10.75,19.38l-1.11-6.84l4.08,6.42l0.18-8.64
		c3.13,6.38,7.02,11.2,10.77,16.36c-4.66-5.93-0.62-11.92,0.65-7.79c1.09,9.18,7.4,5.3,10.85,10.39c-1.77-3-4.4-6.61-0.59-5.77
		c1.94,7.75,4.29,11.11,6.6,15.2l4.32-2.93c1.79,1.25,9.64,6.25,6.82,8.94c-7.69-0.05,0.88-2.84-5.93-6.64
		c0.63,2.69-0.43,5.11-2.7,5.76c0.62,1.48,1.23,3.09,1.81,5.08c1.44-1.85,2.99-1.45,4.59-0.27l9.12,2.36l-3.78,0.47
		c0.11,1.86,2.57,3.52,4.73,4.48c0.32-0.05,0.65,0.03,0.98-0.15l-3.05-4.17c3.54,1.64,7.01,3.26,10.78,4.52
		c2.87,9.69-7.77,1.06-4.57,7.95c4.89,3.89,9.29,7.24,13.33,10.19c4.07,0.78,7.8,0.44,12.97,3.81c-2.21,0.5-5.1,0.27-8.16-0.36
		c3.49,2.46,6.78,4.69,9.98,6.8l-10.73-6.94c-0.57-0.13-1.08-0.15-1.66-0.32c-3.92-1.26-7.84-3.69-11.24-6.75l2.75,5.26
		c-3.83-0.09-13.24-8.94-17.53-13.65c10.67,3.85-1.67-4.09-2.52-10.26l-0.31-0.32c-3.17,2.23,1.38,6.41-6.36,2.9
		c5.3,5.39,5.94,6.25,11.88,13.91c-6.92-7.76-12.4-9-18.13-9.89c-5.44-1.09-11.3-1.74-15.55-10.45c6.79,5.67,2.94-6.15,4.01-8.15
		c-2.83-2.84-8.52-8.72-11.39-10.83l-3.21,5.9c-8.8-7.55,0.66-17.8-11.38-25.11c-4.06,0.4,4.71,10.07,2.91,8.48
		c-12.71-12.73-6.21-23.46-8.49-38.4c-1.97-0.07-5.71,1.77-10.63-1.96c4.03,0.13,4.28-4.11,9.02,0.24
		c-0.5-5.12-4.95-9.63-7.88-13.28c1.63,10.53-6.47-2.18-9.24-3.41c-1.29-5.38,4.06,0.44,6.22,3.19c-0.6-4.47,2.83-10.88-3.26-11.56
		c1.28-0.42,3.35,0.49,5.64,2.08c-0.76-1.98-1.56-3.95-2.23-5.96c-1.34-0.47-2.88-1.17-4.87-2.51l0.9,2.8
		c-0.71,1.68-2.89-3.07-3.51-4.05c3.24,2.26,0.82-4.29,3.43-2.99l-8.09-12.89l4.62,1.81c0.88,0.73,1.76,1.38,2.64,2.1
		c-1.35-4.52-2.6-9.08-3.47-13.71c-0.61-0.39-1.13-0.95-1.43-2.38l1.2,1.2l-3.22-16.92c0.18-0.72,0.36-1.35,0.54-1.92
		c-1.61-3.9-2.91-7.86-4.28-11.87l-3.14,4.44L0,295.7l2.72,2.93c-1.82-8.83-0.4-11.18,1.42-12.63c-0.03-5.77,0.11-11.55,0.44-17.33
		c-3.33-5.83-3.62-12.56-0.56-22.92c-0.02,4.32,0.87,4.9,2.11,4.72c0.43-3.5,0.97-6.99,1.53-10.47c-0.87-0.38-2.01-0.85-2.56-0.09
		l1.65-5.91l1.21,4.05c2.17-12.96,5.29-25.79,9.29-38.35c-1.65-6.5-1.6-14.13,7.56-26.45l1.47,1.58c0.78-1.78,1.59-3.55,2.44-5.31
		c1.39-3.98,2.9-7.55,4.47-10.9c-1.24-1.85,2.93-9.97,3.36-13.14c-0.44,3.3-0.08,4.72,0.61,5.21c1.3-2.13,2.62-4.26,3.95-6.41
		l0.86-1.91c0.34-2.7,3.46-6.8,6.28-10.65c0.45-0.88,0.9-1.69,1.35-2.62c0.28-0.19,0.6-0.34,0.89-0.52
		c2.71-3.98,4.38-6.95-0.36-7.53c2.98-3.88,10.03-5.79,13.32-12.61c1.25,0.01,1.96,0.27,2.39,0.7l0.64-0.84l-0.25,1.56
		c0.07,0.49,0.01,1.07-0.3,1.75c-0.82,4.52-1.14,8.18,4.03,5.25c-1.9,2.77-4.48,5.73-6.62,8.46c-0.28,3.35,0.16,7.06,2.51,7.56
		c1.06-0.55,2.13-1.2,3.14-2.16c-3.89,4.91-4.89,9.04-5.97,12.92c-1.09,3.88-2.19,7.57-5.63,12.26c0.17-2.34,1.27-6.89,1.93-11.11
		c-1.31,0.05-2.57,0.65-3.17,1.4c1.24-3.86,2.51-4.88,3.59-4.64c0.19-2.19,0.09-4.01-0.48-5.1c-1.66,1.36-3.07,2.94-4.48,4.55
		l1.21,7.45c-3.59,2.26-1.52-3.46-1.81-5.41c-0.37-0.14-0.81-0.1-1.31,0.06c-1.33,1.39-2.8,2.73-4.62,3.85
		c1.19,1.58,3.97-0.41,5.64-0.97c-2.08,3.34-5.42,4.08-7.52,8.03c2.25-1.07,5.07-5.04,5.06,1.01c-1.7,8.73-2.56,17.62-3.6,26.1
		c1.24-4.5-2.21-5-3.02-5.67c-0.07,0.89-0.45,1.97-1.05,3.19c-0.05,3.16,1.75,6.32-1.64,10.62c-0.56-3.34-1.2-6.8-1.47-10.14
		c-0.07-0.13-0.14-0.22-0.21-0.35c-1.02,3.58-1.88,6.25-2.63,8.28c0.65,4.5,2.27,9.21,4.47,12.22c-0.25,0.09-0.49,0.29-0.78,0.81
		c3.59,4.18,5.9,2.13,13.52,4.66c-0.52-5.88-1.42-11.5-1.68-17.2c0.02-1.31,0.12-2.64,0.24-3.96c-1.14,1.68-1.98,3.79-2.19,5.74
		c-0.03-3.18,0.42-6.2,0.73-9.32l1.23,2.45c0.16-0.27,0.31-0.53,0.46-0.8c0.62-4.54,1.96-9.22,4.65-14.21
		c0.32,2.72,2.44,0.36,4.6-1.46c0.59-0.96,1.14-1.94,1.76-2.89c-0.37,0.72-0.49,1.36-0.61,2.01c1.85-1.26,3.5-1.33,3.74,3.64
		c1.19-0.98,2.14-2.08,2.95-3.2c-3.44-1.5-5.42-3.19-4.05-5.29c0.14-0.2,0.28-0.35,0.42-0.54c-0.17-4.6,4.16-11.36,7.47-13.21
		c-1.04,1.27-0.24,1.05,0.33,1.84c5.48-5.25,0.19-4.84,1.71-9.37c-3.31,4.99-3.4,10.67-7.03,7.81c-1.14-5.72,4.91-10.06,4.41-15.59
		l-4.94,3.1c1.19-10.87,7.29-0.75,11.09-12.15c-0.22,0.01-0.31,0.01-0.5,0.02c-0.46,1.14-1.04,2.32-1.91,3.61
		c-0.25-1.07-0.24-2.39-0.21-3.71c-0.14-0.09-0.13-0.23-0.02-0.42c0.07-1.49,0.36-3.1,0.78-4.78c-4.51,4.17-9.38,14.08-13.16,7.78
		c0.41-3.53,5.54-6.29,10.27-9.42c1.77-1.19,3.49-2.41,5.02-3.71c1.05-1.98,2.32-3.87,3.84-5.68c0.08-0.32,0.12-0.66,0.17-1.01
		l-4.34,2.2c0.09-3.74,8.89-12.84,13.72-17.11c0.21-0.91,0.41-1.79,0.59-2.64c-1.64,1.3-3.64,2.8-6.76,5.14
		c7.88-6.8,9.15-12.2,10.05-17.84c1.11-5.35,1.77-11.12,10.61-15.3c-5.76,6.68,6.25,2.89,8.28,3.95c2.89-2.78,8.87-8.39,11.01-11.21
		l-5.99-3.16c7.67-8.66,18.09,0.65,25.52-11.2c-0.4-4-10.23,4.63-8.61,2.87c12.94-12.5,23.84-6.11,39.02-8.35
		c0.07-1.94-1.8-5.62,1.99-10.46c-0.13,3.97,4.18,4.22-0.24,8.88c5.21-0.49,9.78-4.87,13.5-7.75c-10.7,1.61,2.22-6.36,3.47-9.09
		c5.46-1.27-0.45,3.99-3.24,6.12c4.54-0.6,11.06,2.79,11.75-3.21c0.31,0.93-0.1,2.28-0.97,3.83c1.68-0.35,3.37-0.68,5.12-0.93
		c0.47-1.22,1.14-2.59,2.35-4.34l-2.84,0.88c-1.71-0.7,3.12-2.84,4.12-3.45c-2.3,3.19,4.36,0.81,3.04,3.37l13.1-7.97l-1.84,4.55
		c-1.63,1.91-3.13,3.8-4.69,5.7c10.9-0.64,21.41-0.77,27.93-3.24c-0.78,1.19-1.27,2.54-1.58,3.92c3.5,0.53,5.22,2.12,2.67,5.84
		c-0.41-1.17-1.19-1.03-2.42-0.92c0.18,0.53,0.29,1.07,0.59,1.55c6.59-2.15,10.87-3.53,11.28-3.74c-10.6,6.6-4.4,7.81-1.96,11.93
		c2.03,0.62,4.07,1.22,6.06,1.95l-0.98-5.23c2.97-0.34,4.72,0.53,6.48,0.81c1.31-0.72,3.47-1.35,4.93-1.89l-0.04-4.3
		c-4.56-0.27-9.15-0.72-13.75-0.78c6.77-2.16,1.46-4.69,9.13-6.15c-8.23,5.62,6.3,2.28,7.32,6.64l5.5-2.92l-1.4,1.33
		c4.44,2.32,5.19-2.18,10.37-1.39c-2.39-1.1-4.51-2.2-6.67-2.92c-1.97,0.03-4.06,0.06-6.28,0.19l-0.62-0.7
		c-1.35,0.26-2.77,0.68-4.36,1.44c1.12-0.59,2.52-1.21,4.02-1.82l-2.19-2.46l-9.06,2.48c3.68-2.14,1.04-5.88,10.85-7.1
		c-1.44-3.41-9.74,1.27-15.82,0.48l-2.53,5.23c0.91-2.89-11.99-1.56-3.33-6.55c4.81-2.21,9.75-3.61,14.74-5.25l-4.51-3.09L279.63,0
		l-2.97,2.67c20.86-4.18,6.19,8.95,26.96,3.96c6.76-5.44,14.16-6.29,26.78-2.69c-9.44-0.04-1.51,3.99-5.4,6.88
		c8.85,3.78,12.67-0.55,17.99-2.05c1.79,3.45,2.93,6.21-5.18,4.48c-2.2,6.31,11.02,0.45,10.3,7.52c13.06,3.12,19.78-0.77,27.09-3.3
		c7.07-2.09,15.09-3.02,28.88,6.91l-2.2,1.98c10.11,2.8,17.62,6.34,24.77,9.96c6.92,4.07,13.45,8.33,22.3,12.45
		c3.05,4.54,5.59,9.6,8.23,14.3c-3.37-1.16-13.44-2.05-12.07,3.08c-1.61-9.93-9.73-11.48-14.32-18.73c-1.6,1.17,0.42,3.9,0.99,5.55
		c-3.92-2.37-4.3-6.39-10.28-8.28c-0.34,1.28,4.44,6.24-0.25,4.44c-1.7-2.57-3.55-4.96-5.39-7.47c-11.03-2.97-9.47,6.9-20.19-0.29
		c3.65-2.55,10.46-5.52,15.53-4.14c-5.13-3.36,8.35,1.39,4.37-3.05c-10.52,1.53-12.18-4.97-24.6-5.47c1.57-0.27,2.32-1.19,5.16-0.52
		l-15.18-8.04c1.45,2.28-2.18,1.96-6.11,1.77c-3.97-0.12-8.36,0.26-8.28,2.79c16.26,6.91,12.25,2.97,30.11,12.29
		c-4.29-0.71-10.13,0.34-14.76,2.26c4.31,1.7,8.74,3.45,12.98,5.12c7.65,3.35,14.92,5.71,20.39,4.96
		c9.55,5.19,6.17,13.94,20.68,18.49c3.17,0.89,2.02-7.39,8.88,0.19c0.02,0.09-0.14,0.14-0.36,0.18c9.43,1.42,0.31,7.13,11.53,10.75
		c-0.17-2.67,0.03-2.96,0.74-2.43c2.08,0.65,6.61,0.87,5.72,3.16c0.21,0.04,0.38,0.11,0.61,0.14c-1.01-5.11-17.34-11.17-9.6-15.66
		c3.58,0.4,6.39,5.45,9.57,10.11c3.23,4.64,6.32,9.51,12.18,9.14l-0.93,0.42c8.25,8.7,14.59,8.3,19.81,9.75
		c1.6,5.61,9.25,8.38,13.33,12.44l-1.94,1.42c2.11,1.69,3.89,3.67,5.8,5.55c-5.62-0.39-5.78-7.29-10.98-11.93l-2.77,3.55
		c-1.27-8.26-8.92-8.03-15.49-8.81c1.34,1.18,2.52,2.33,3.6,3.47c6.27,5.45,11.72,13.63,17.98,10.49c0.11,2.26-0.01,4.67-0.08,7
		l2.85,1.04c-0.24,4.32-4.68,4.91-9.33,2.2c2.36,2.89,3.31,2.36,5.3,6.31c-0.28,0.18-0.39,0.55-0.58,0.82
		c6.61-1.04,12.42-1.38,18.89-3.93c7.84,6.89,15.71,18.69,17.47,27.77l-2.03,0.19c1.43,4.09,3.37,7.49,5.86,9.93
		c-0.21,5.11-5.79-0.56-5.61,2.83l9.09,11.5c-4.28,0.86-9.46-9.79-12.26-14.7c0.79,0.79,2.38,2.4,2.58,1.53
		c-1.1-7-14.1-13.6-10.25-19.2c-2.63-2.22,7.36,3.3,1.8-6.28c-1.93-7.63-8.04-6.48-10.02-6.02c-1.82,1.14,3.55,11.26-1.03,9.49
		c3.18,4.52,7.03,4.85,8.76,12.11c-3.16-4.63-11.2-8.33-9.61-12.8c-5.09-3.39-9.77-2.83-12.8-0.96c0.86,2.98,1.89,6.18,2.83,9.32
		c3.36,2.73,6.43,5.08,4.48-3.19c6.98,2.94,13.62,12.52,19.69,18.77l-0.98,0.07l5.6,8.81c-1.78-0.79-4.12-3.13-6.32-2.17
		l12.12,10.23c-3.75-2.83-3.89-1.37-3.13,1.24c0.71,2.64,1.94,6.64,1.72,8.68c3.96,0.08,8.5,4.53,8.55-1.34
		c0.31-6.75-3.12-2.66-5.37-7.76l8.22,5.32l-0.29,0.85l6.17,2.94c3.51,10.51-12.05-0.86-2.84,10.79l5.53-3.72
		c4.5,16.19,2.01,37.97,6.22,48.72c-4.13-2.62-10.18-2.94-13.02,1.65c0.22-4.77-0.92-14.25-3.53-20.59
		c0.39-0.75,2.79,0.86,5.14,3.69c2.29,2.82,4.11,6.96,4.05,10.77c4.93-2.64,2.67-7.19,0.27-11.18c-2.63-3.97-5.15-7.48-0.04-9.17
		c-1.36-19.97-13.33-11.08-12.98-28.25c-4.59,1.43-3.81-3.51-8.06-2.77c-0.7,0.87-1.1,1.83-1.28,2.86c0.15,0.19,0.32,0.36,0.47,0.55
		c3.59,4.81,7.21,10.35,10.11,17.32c-0.26,4.56-2.02,2.35-3.71,1.31c1.14,2.87,1.93,5.75,1.8,8.53c-0.59-0.88-1.8-2.64-2.77-2.78
		c0.23,3.56,0.78,5.98,1.6,8.07c0.72,0.07,1.73-0.36,3.3-2.73c-0.72,2.2,0.09,5.25,0.77,8.5c3.29,4.13,2.33,5.59,0.53,6.85
		c-0.2,2.47-0.94,4.74-3.01,6.32c-0.36-0.35-0.72-0.66-1.08-1.01c0.73,2.5,0.79,8.21,3.78,6.77c-1.07,3.29-2.02,6.52-3.23,9.72
		l5.31-0.97c0.62,5.28-2.85,6.65,0.66,11.23l4.8-0.04c0.27-4.48,0.74-9.01,0.79-13.53c2.2,6.66,4.76,1.44,6.25,8.99
		c-5.71-8.1-2.32,6.2-6.75,7.2l2.97,5.41l-1.35-1.38c-2.35,4.37,2.22,5.11,1.42,10.2c2.81-5.92,5.74-10.11,2.01-17.65
		c2.93,5.41,6.7,16.7,6.4,19.51C568.23,295.66,564.36,299.74,563.51,305.24z M101.52,480.3c0.44,0.94,1.12,2.15,2.14,3.75
		c4.32,4.27,7.62,5.65,10.7,6.31C110.04,487.08,105.78,483.7,101.52,480.3z M15.16,305.42c-1.06-0.6-2.11-1.39-2.95-3.28
		c-0.56,0.44-1.15,1.04-1.85,1.76c0.57,2.51,1.23,5.32,1.13,7.89C13.14,310.5,14.59,311.01,15.16,305.42z M14.34,281.14
		c0.58-1.23,1.01-2.81,1.28-4.46c-0.03-0.44,0.05-0.9,0.22-1.37c0.16-2.1-0.07-4.26-0.95-6.07c-0.82-0.4-1.4-0.32-1.85,0.02
		l0.32,4.13l-0.61,0.68l0-4.58c-0.91,1.08-1.1,3.55-1.36,5.5c0.97,3.95,2.44,7.21,5.04,9.12c1.06-1.17,1.03-2.23,0.67-3.29
		C16.16,281.29,15.25,281.53,14.34,281.14z M25.07,323.56c0.05,0.03,0.08,0.03,0.13,0.06c-0.05,0.02-0.06,0.05-0.11,0.07
		c0.21,1.31,0.43,2.62,0.64,3.93c0.04,0.04,0.1,0.04,0.13,0.08l0.83,0.26c-0.65-1.93-1.24-3.66-1.76-5.23
		C24.98,323.01,25.03,323.28,25.07,323.56z M38.45,315.51c-0.58-1.5-1-3.02-1.44-4.54c-0.32,0.38-0.18,1.52,0.8,4.19
		c-2.02-2.71-3.43-6.01-4.58-9.46c-1.45,1.33-2.72-3.82-3.65-6.08c1.11-0.26,1.62-1.08,1.77-2.24c-0.22-1.69-0.48-3.36-0.53-5.05
		c-0.66-3.12-1.6-6.55-1.24-8.87l0.9,0.37c1.75-4.5,1.69-12.33,0.8-18.06c-1.46,0.19-8.55-7.74-12.14-11.91
		c-0.75,2.49-1.37,3.96-1.92,4.79c0.7,2.22,1.94,4.17,3.16,6.07c2.42,3.88,4.67,7.61,2.62,13.89c-1.72-0.32-3.27,0.71-4.74,1.6
		c0.84,3.78,0.76,8.13,0.93,13.19c2.45,8.23,3.36,15.99,4.73,23.59C30.57,325.46,30.88,314.15,38.45,315.51z M86.9,125.62
		l-2.48,6.68c1.65-2.18,3.34-4.34,5.13-5.64c0.14-1.59,0.21-3.12,0.06-4.41c0.23,0.21,0.47,0.27,0.71,0.4
		c0.1-1.95,0.24-3.89,0.38-5.87c0.07,4.86,4.63-2.26,8.05-3.06c-3.55-3.04-9.17-4.52-14.49-3.72
		C81.18,120.79,84.29,117.51,86.9,125.62z M127.5,71.23c0.25-0.14,0.51-0.3,0.77-0.45c-0.01-0.07-0.03-0.13-0.04-0.2
		C127.98,70.8,127.8,71.04,127.5,71.23z M442.33,78.49c-0.03-0.04-0.08-0.07-0.11-0.11c0.02,0.04,0.05,0.08,0.08,0.12L442.33,78.49z
		 M430.71,78.55c1.43,2.18,2.39,4.38,3.03,6.51c5.76,2.4,11.96,0.5,16.25,2.94c1.75,0.19,3.4,0.27,4.89,0.2
		c0.92-1.71-2.92-4.77,2.64-2.95c-0.44-0.57-0.79-0.9-1.19-1.36c-0.95,0.52-2.11,1.08-3.85,1.62l-8.25-2.96
		C440.33,82.95,433.25,77.78,430.71,78.55z M513.36,234.58c3.35-0.32,0.24-2.13,4.95-3.06l-5.54-6.35l2.5,0.95
		c-1.53-4.01-2.62-8.13-4.62-11.95l0.98,0.04c-6.25-4.37-11.19-7.45-15.15-9.8c-1.43,0.55-2.07,1-3.14,0.72
		c2.56,6.28,4.84,12.7,6.8,19.25c0.02,0,0.03-0.03,0.05-0.03c2.63,7.36,6.27,14.62,8.12,22.34c-1.08-0.97-2.15-1.87-3.23-2.32
		c1.15,5.85,2.07,11.78,2.73,17.79c0.68,1.98,1.45,3.94,2.55,5.46c-0.84,0.91-1.44,1.55-1.92,1.87c0.3,3.95,0.48,7.92,0.56,11.93
		c1.78-0.47,3.8,0.98,5.29,4.84l0.92,0.3c0.89-8.35,5.34-22.31-0.09-27.17l2.42,1.26C519.69,250.05,506.71,240.6,513.36,234.58z
		 M139.5,72.14c1.56-1.02,3.3-1.87,5.45-2.29c0.13,0.97-0.75,4.45,3.13,3.23c1.06-1.3,2.89-2.57,4.78-3.78
		c-0.12-0.92-1.58-1.21-5.77-0.25c2.99-6.86,12.72-13.4,19.08-19.37l0.05,0.62c1.46-1.76,3.29-3.65,5.79-5.76
		c-0.86-1.14-2.35-1.25-4.04-0.86c-1.72,0.94-3.35,1.79-4.61,2.49c0.29-0.28,0.67-0.66,1.01-1.04c-2.56,1.41-5.07,3.4-6.43,4.95
		l-1.01,5.63c-1.14-0.7-2.11-0.84-3-0.78c-4.28,3.44-7.85,10.19-12.09,8.73C139.71,66.74,139.21,69.64,139.5,72.14z M217.68,81.23
		c0.23-0.15,0.32-0.2,0.53-0.34c-1.39,0.32-2.78,0.64-4.23,0.97C214.65,82.01,215.77,81.9,217.68,81.23z M470.63,163.43l2.14-0.36
		l-0.83-1.31c-1.08-1.03-2.5-1.81-4.24-2.38C468.69,160.72,469.67,162.06,470.63,163.43z M466.12,157.19
		c0.46,0.62,0.9,1.26,1.36,1.88l2.56,0.31C468.95,158.77,467.59,158,466.12,157.19z M475.92,171.39c1.09,0.59,1.98,0.78,2.47,0.11
		c-1.61-2.06-2.71-4.41-4.02-6.58c-0.45,0.5-1.34,0.59-2.02,0.98C473.57,167.71,474.75,169.54,475.92,171.39z M481.31,175.08
		c0.21-0.1,0.66,0,1.2-0.11c-0.62-0.31-1.09-0.71-1.6-1.08C481.03,174.29,481.17,174.68,481.31,175.08z M387.57,90.28
		c0.62,0.63,1.13,1.29,1.55,1.96c0.46-0.15,0.99-0.37,1.41-0.49C389.49,91.25,388.54,90.77,387.57,90.28z M376.54,87.35
		c2.81,1.19,5.59,2.41,8.34,3.71C381.95,88.31,378.29,86.05,376.54,87.35z M343.4,494.54c0.35,0.2,0.69,0.4,1.12,0.66
		c1.06-0.25,1.83-0.85,2.46-1.59C345.79,493.93,344.6,494.25,343.4,494.54z M503.46,189.85l-3.15,1.1c-0.45-0.9-1.07-1.82-1.79-2.71
		c-0.09,0.14-0.2,0.21-0.26,0.41c-0.28-0.43-0.48-0.98-0.73-1.45c-1.93-2.05-4.28-3.81-6.33-4.41c1.78,5.5,3.44,6,7.18,11.38
		c-2.41,2.01-6.43-1.07-7-1.49l2.91-0.3c0.05-7.25-6.31-8.26-10.83-13.46c-1.03,0.08-1.49,0.99-1.68,2.26
		c2.79,4.95,5.35,10.03,7.74,15.21c0.33-1.66,0.71-3.44,0.44-5.46c1.79,3.34,3.71,6.62,5.39,10.02c3.59-0.48,6.85-2.8,6.49-9
		c1.16,2.08,4.15,1.9,3.22-0.95C504.79,191.01,504.19,190.49,503.46,189.85z M465.62,95.5c-3.86-3.31-7.84-6-10.15-6.59
		c-1.77,3.28,4.27,6.71,5.61,10.96C462.95,98.98,464.4,97.36,465.62,95.5z M194.01,88.72c2.22-1.15,4.44-2.31,6.66-3.47
		c-6.33,1.96-12.98,4.06-19.98,6.68l-0.8,2.66c0.79-0.36,1.48-0.61,2.21-0.9c0.18-0.43,0.44-0.9,0.88-1.48
		c-0.02,0.47-0.16,0.86-0.3,1.24c4.09-1.57,7.11-2.14,7.55-2.23c-3.19,1.06-5.57,3.03-7.14,5.3c0.3,0.11,0.64,0.19,1.02,0.25
		c5.03-2.74,10.19-5.27,15.45-7.62c-0.09-0.02-0.17-0.02-0.25-0.04c-0.75,0.04-1.49,0.13-2.25,0.01c0.21-0.06,0.35-0.21,0.55-0.28
		C196.48,88.66,195.31,88.54,194.01,88.72z M193.47,40.81c0.06-3.11,2.87-6.54,1.01-7.85c-2.38,2.55-3.42,2.44-8.26,3.63
		c3.97,0.66,5.49,2.36,6.11,4.27C192.72,40.83,193.15,40.78,193.47,40.81z M192,32.4c-0.79,0.52-1.57,1.01-2.32,1.4l4.43-1.05
		c-0.48-0.2-1.08-0.35-2.01-0.36C192.06,32.39,192.05,32.4,192,32.4z M149.22,54.04c-1.32,0.44-2.6,0.5-3.83-0.32
		c-1.52,1.74,0.43-2.06-1.02-3.12c-4.34,2.32-8.07,4.92-11.75,7.56c-0.01,0.12-0.03,0.24-0.04,0.37c5.05-2.12,9.1,0.96,5.48,2.04
		c-2.17,0.25-3.58,0.8-4.59,1.51c2.36,0.64,10.72-3.36,9.08,0.75c1.29-0.88,2.24-1.81,3.11-2.73
		C146.31,58.04,147.47,56.02,149.22,54.04z M123.04,74.36c1.42,2.34,0.29,6.57-3.31,10.36c-1.7,0.01-2.56,0.03-2.87-0.93
		c-1.37,3.85-1.44,8.5-8.37,13.36l1.73-4.71c-3.9,3.1-7.07,6.6-9.28,10.01c-0.25,0.65-0.55,1.28-0.77,1.94
		c-0.16,0.05-0.27,0.06-0.42,0.1c-1.67,3.11-2.48,6.07-2.1,8.45c1.14-0.96,2.21-1.94,3.32-2.91c0.96-4.76,1.86-9.85,7.46-13.61
		c-1.1,3.44,6.3-1.96,9.55-0.63c3.01-2.56,6.04-5.03,9.05-7.45c1.25-1.69,2.38-3.47,3.46-5.29c-0.96-3.93-1.54-7.55-2.02-10.96
		C126.34,72.81,124.59,73.57,123.04,74.36z M103.52,90.23c-0.37,0.34-0.69,0.69-1.02,1.03C102.84,90.92,103.18,90.57,103.52,90.23z
		 M111.81,79.99c-1.27,0.48-2.66,0.95-4.27,1.4c1.91,1.44,1.46,2.99,0.22,4.6C109.67,84,111.15,82.01,111.81,79.99z M100.57,84.35
		c-1.39,1.72-2.1,3.92-2.48,6.32c2.17-1.69,4.71-3.4,6.96-3.46C103.36,84.38,100.29,86.62,100.57,84.35z M335.68,496.3
		c-0.43,0.88-0.89,1.81-1.37,2.79c6.49,0.84,6.32-1.89,6.05-3.85C338.8,495.59,337.25,495.97,335.68,496.3z M497.63,128
		c-0.69-2.97-2.11-6.23-5.3-9.88c-2.71,0.87-4.02,2.03-6.2,1.79c2.61,2.93,5.16,5.87,7.42,8.97
		C494.99,128.49,496.28,128.28,497.63,128z M483.49,109.25c-4.15-1.74-4.83-0.46-6.1,0.54c0.81,0.97,1.64,1.96,2.45,2.92
		c1.38,1.66,2.8,3.23,4.21,4.82c4.57,1.33,5.55-2.18,10.13-1.69c0.12-0.42,0.34-0.7,0.8-0.85
		C491.62,113.85,487.66,113.6,483.49,109.25z M479.84,95.52c0.76,0.29,1.49,0.75,2.22,1.19c-0.04-0.29-0.01-0.54-0.13-0.89
		C481.23,95.73,480.52,95.65,479.84,95.52z M472.49,97.42c1.11,1.86,1.38,3.39-0.61,4.23c-1.61-1.87-3.58-3.79-5.61-5.58
		c-0.3,0.01-0.63-0.02-0.92,0.02c2.46,2.82,4.95,5.56,7.46,8.24c0.75,0.89,1.48,1.77,2.22,2.66c-0.44-3.4,1.41-4.88,3.42-5.98
		C476.44,99.49,474.42,98.27,472.49,97.42z M457.66,83.12c2.48,2.5,5.24,4.8,8.91,5.9c0.31,0.61,0.7,1.24,1.13,1.86
		c0.72-2.55,1.07-5.26,0.65-7.97C460.91,80.86,460.01,81.62,457.66,83.12z M441.56,71.79c1.68,0.75,3.4,1.31,5.25,1.15l-3-4.63
		C441.61,68.44,437.09,68.35,441.56,71.79z M322.17,18.85c-0.34-0.1-0.53-0.18-0.83-0.28l0.35,0.68
		C321.84,19.12,322.02,18.97,322.17,18.85z M277.91,29.42c0.21,0.54,0.24,1.01,0.22,1.45c3.62,0.35,10.22-2.32,13.95-1.75
		l-0.19,0.45c1.55,0.01,3.14,0.23,4.68,0.95l-0.11,0.53c4.31,0.54,9.47,0.37,13.59-0.25c-0.1-0.71,1.83-2.78,4.31-5.11
		c-0.83,0.27-1.8,0.5-3.18,0.63c-1.39-3.74,7.98-4.22,9.09-8.1c-7.1-2.45-2-3.43-2.48-6.12c1.07,0.28,3,0.69,3.29,0.14
		c1.65-1.03-1.86-1.94-2.01-3.43c-9.22,1.05-18.47,1.37-24.13,4.5c5.79-1.26,9.86,2.25,15.23,3.05
		c-10.89,1.35,2.72,14.43-18.06,10.07c0.39-0.89,2.09-0.61,2.74-0.02C292.13,19.95,282.19,26.89,277.91,29.42z M234.26,22.01
		c-0.31,0.2-0.61,0.39-0.91,0.58c1.66,0.36,3.37,0.76,5.23,1.09l0.93-4.03C237.78,20.09,235.97,21.02,234.26,22.01z M218.29,23.1
		c-0.24,0.3-0.5,0.6-0.74,0.9c-1.06,0.52-2.12,0.99-3.33,1.75c-2.25,2.61-3.95,5.41-7.67,6.52c-1.98,1.58-4.85,2.67-10.33,2.56
		c1.45,4.51-3.57,3.75-2.82,7.93c2.96,2.3,6.89,1.34,11.24-0.49c1.58-2.51,3.13-5.01,4.8-7.54c2.54-3.71,5.29-7.12,8.1-10.73
		c1.74-0.82,3.31-1.32,4.8-1.67C220.82,22.52,219.46,22.78,218.29,23.1z M198.54,27.04c-0.08,2.4-0.23,4.26,5.91-0.44l-2.39-3.45
		C201.05,24.44,199.85,25.75,198.54,27.04z M137.56,46.22l4.72-0.74c3.84-2.03,7.69-3.53,11.16-4.18l0.19,2
		c4.15-1.41,7.61-3.32,10.09-5.77c2.98,0.12,2.36,1.97,1.94,3.5c3.52-2.4,6.87-4.83,9.44-7.51c-4.72-1.17-11.08-0.13-17.86,2.14
		C150.42,37.82,143.75,42.21,137.56,46.22z M93.71,90.85c-0.17,0.49-0.3,0.91-0.4,1.28C93.45,91.7,93.6,91.26,93.71,90.85z
		 M83.6,107.95c0.18-0.33,0.45-0.61,0.6-0.96C83.99,107.31,83.77,107.64,83.6,107.95z M80.2,137.18l-0.44-1.59
		c-1.04,0.81-1.85,1.74-2.56,2.71C78.21,138.41,79.21,138,80.2,137.18z M64.14,133.65c-0.2,0.07-0.4,0.15-0.6,0.22
		C63.74,133.8,63.93,133.73,64.14,133.65z M7.64,276.71c-0.78,2.97-1.78,5.76-2.55,8.58C6.86,284.06,8.48,282.71,7.64,276.71z
		 M18.8,352.35c1.78,1.41,3.56,2.89,5.34,4.25v-0.4c-3.17-6.95-1.94-11.56-0.69-17.09c-0.95-1.73-2.12-2.57-3.37-3.89l-0.71-0.16
		c-0.03-0.24-0.04-0.48-0.06-0.72c-1.07-1.32-2.17-3.17-3.24-6.41c-1.26,2.24-1.69,9.13-0.07,16.03
		C16.71,346.87,17.69,349.74,18.8,352.35z M49.86,377.11c-1.03-1.76-2.06-3.52-3.07-5.25c-3.81-2.26-7.65-4.62-11.5-7.1
		c-1.86-1.23-3.6-2.61-5.37-3.93c-0.63,0.23-1.36,0.15-1.85,0.08c5.25-0.62,7.97,11.66,11.25,22.11c1.45-1.49,3.32-1.89,5.12-1.85
		c-0.3,0.8-0.98,0-1.28,0.78c0.48,4.16,2.65,6.62,4.21,4.95C53.54,388.18,48.27,380.57,49.86,377.11z M372.83,517.85
		c-1.05,1.04-2.07,2.06-3.08,3.08C371.3,520.18,372.51,519.23,372.83,517.85z M502.34,449.39c-1.2,1.24-3.24,2.65-3.52,5.63
		C501.48,456.44,501.63,451.48,502.34,449.39z M546.24,320.56c-1.49-5.39-2.98-10.17,0.25-16.79l-6.26,4.71
		c1.33,12.06,5.57,18.28,4.48,30.94C549.39,331.89,547.67,325.87,546.24,320.56z M553.38,306.24c0.85,8.55,5.17,4.44,3.6,12.12
		l6.32-3.16C557.71,316.68,557.66,304.69,553.38,306.24z M559.87,257.73l0.81-6.61l-2.27,5.34L559.87,257.73z M553.27,217.3
		l-3.69-5.56l-0.36,0.77l3.67,5.54L553.27,217.3z M477.81,81.38c6.04,6.83,8.92,1.8,14.01,4.64c-8.21-6.6-8.78-9.18-19.01-16.6
		C479.13,77.07,480.42,79.3,477.81,81.38z M491.82,86.02c0.88,0.79,1.71,1.54,2.74,2.45C493.57,87.3,492.74,86.53,491.82,86.02z
		 M466.46,63.96c2.49-2.28-5.59-5.88-4.24-4.62C463.57,60.58,466.02,62.21,466.46,63.96z M431.56,55.23
		c1.4,1.08,2.49,4.32,0.05,6.03C434.59,61.17,440.71,58.08,431.56,55.23z M337.06,8.16l5.29-1.52l-6.01-1.62
		C337.94,6.14,334.09,9.9,337.06,8.16z M302.3,13.14l7.92-0.6l-8.61,0L302.3,13.14z M264.81,3.88l-1.5-1.01
		c-2.19,0.76-4.35,1.8-6.49,2.81l1.54,0.9C260.48,5.5,262.64,4.7,264.81,3.88z M68.97,130.71c1.02-0.92,2.02-2.07,2.95-3.61
		C70.75,128.39,69.83,129.56,68.97,130.71z M66.43,102.71c0.57,1.21,0.38,3.33,0.03,5.57c1.77-2.47,3.86-4.69,5.9-6.95
		C71.26,100.49,69.62,100.43,66.43,102.71z M51.59,408.47l-5.1-1.74l1.95,5.26C49.73,410.88,50.99,409.79,51.59,408.47z
		 M54.59,425.35c0.9,2.23,2.04,4.62,3.61,7.42L54.59,425.35z M200.67,535.93c-0.87-1.49-1.31-2.24-2.87-3.02L200.67,535.93z"/>
	<g>
		<path class="st1" d="M400.27,166.09c-27.04-26.63-62.99-41.29-101.3-41.31c-78.92,0-143.16,63.19-143.2,140.86
			c-0.01,24.84,6.58,49.07,19.12,70.43l-20.31,73.01l75.91-19.59c20.91,11.23,44.46,17.13,68.43,17.15h0.06
			c78.92,0,143.17-63.2,143.19-140.88C442.19,228.12,427.31,192.73,400.27,166.09 M298.98,382.85h-0.05
			c-21.36-0.01-42.31-5.65-60.58-16.32l-4.34-2.55l-45.05,11.63l12.02-43.21l-2.83-4.43c-11.92-18.65-18.21-40.19-18.2-62.32
			c0.03-64.55,53.42-117.08,119.07-117.08c31.79,0.01,61.67,12.21,84.15,34.34c22.47,22.13,34.84,51.55,34.83,82.84
			C417.97,330.33,364.58,382.85,298.98,382.85"/>
		<path class="st1" d="M364.26,295.15c-3.58-1.77-21.17-10.28-24.44-11.46c-3.29-1.17-5.67-1.76-8.05,1.77
			c-2.39,3.52-9.24,11.45-11.33,13.79c-2.09,2.35-4.17,2.64-7.75,0.88c-3.58-1.76-15.11-5.48-28.78-17.47
			c-10.63-9.34-17.81-20.86-19.9-24.39c-2.09-3.52-0.23-5.42,1.56-7.18c1.61-1.57,3.58-4.11,5.37-6.17
			c1.79-2.05,2.39-3.52,3.58-5.87c1.19-2.35,0.59-4.41-0.3-6.17c-0.89-1.76-8.05-19.08-11.03-26.13c-2.9-6.87-5.85-5.94-8.05-6.04
			c-2.08-0.1-4.47-0.12-6.86-0.12c-2.38,0-6.26,0.88-9.54,4.41c-3.28,3.52-12.52,12.04-12.52,29.36c0,17.33,12.82,34.07,14.62,36.42
			c1.78,2.35,25.23,37.91,61.12,53.15c8.53,3.63,15.2,5.8,20.4,7.42c8.57,2.68,16.37,2.29,22.54,1.39
			c6.87-1.01,21.17-8.52,24.15-16.74c2.98-8.22,2.98-15.27,2.09-16.74C370.23,297.8,367.85,296.92,364.26,295.15"/>
	</g>
</g>
</svg>
