<?xml version="1.0" encoding="utf-8"?>
<!-- Generator: Adobe Illustrator 27.1.1, SVG Export Plug-In . SVG Version: 6.00 Build 0)  -->
<svg version="1.1" id="Layer_1" xmlns="http://www.w3.org/2000/svg" xmlns:xlink="http://www.w3.org/1999/xlink" x="0px" y="0px"
	 viewBox="0 0 566.93 566.93" style="enable-background:new 0 0 566.93 566.93;" xml:space="preserve">
<style type="text/css">
	.st0{fill:#D43332;}
	.st1{fill:#FFFFFF;}
</style>
<g>
	<path class="st0" d="M166.96,566.93c-1.68-1.58-4.98-3.67-8.4-6.26C160.72,561.03,166.98,563.62,166.96,566.93z M106.36,503.45
		c-2.54,2.25-0.06,4.58,1.56,3.5C105.79,506.1,107.94,504.4,106.36,503.45z M99.18,493.34c-2.6,1.34,0.69,5.7,2.35,3.39
		C99.89,495.74,99.97,494.47,99.18,493.34z M55.14,387.77c2.11,0.01,0.98,2.85,1.34,3.83c0.95-0.36,1.62-0.28,2.28-0.2
		C57.22,389.9,57.58,385.68,55.14,387.77z M5.26,346.39c-2.26,0.65-0.73-3.31-3.29-2.31c3.01,5.58,1.72,6.91,0.53,13.15
		c1.64-0.53,2.8-0.39,3.75,0.02C6.67,353.48,4.11,350.38,5.26,346.39z M17.37,336.86c0.35,1.37,0.32,6.94,1.39,5.06
		C18.35,340.57,18.46,335.01,17.37,336.86z M3.41,330.82c-3.68-0.41-2.99,4.2-0.32,4.15C2.82,333.3,2.64,331.7,3.41,330.82z
		 M5.77,296.01c-2.7,1.5-3.12,2.36-5.17,5.33c3.1-0.05,0.51,1.55,0.01,2.07c2.68,0.06,3.24,2.06,3.01,4.84
		c-1.08,0.8-2.99,0.87-3.63,2.08c4.73-0.35,0.39,5.92,2.45,6.84c0.05-3.83,3.08-0.98,4.41-0.15C1.99,310.66,6.09,303.38,5.77,296.01
		z M2.84,295.89c3.16-0.93-0.78-4.97,3.11-5.39c-1.39-1.73,0.49-6.16-1.08-7.71c-2.26,4.26-0.18,8.54-3.47,11.64
		C2.37,294.48,2.05,295.68,2.84,295.89z M5.66,282.15c1.12-1.42,2.5-3.48,0.34-4.85C5.91,278.54,3.73,281.16,5.66,282.15z
		 M7.41,269.8c0.27,1.7-1.38,4.89,0.22,5.6C8.23,273.32,11.05,270.89,7.41,269.8z M40.78,182.53c1.6-4.54,7.21-10.8,2.14-13.57
		c2.08,5.79-4.86,10.18-4.67,13.8C38.86,182.11,39.66,181.92,40.78,182.53z M47.59,164.56c-1.07,0.2-1.65,2.68-1.18,4.03
		C47.99,168.25,48.55,165.81,47.59,164.56z M56.46,148.42c-2.31-0.26-7.09,5.36-5.36,7.89C51.48,153.7,54.4,150.61,56.46,148.42z
		 M98.02,104.59c-1.35-0.86-2.85-4.26-4.09-3.37l1.56,1.65c-0.34,2.28-2.94,1.48-1.63,4.11C95.36,107.72,96.7,106.4,98.02,104.59z
		 M110.06,90.03c-5.57,3.07-8.49,6.8-13.21,11.35c0.63,0.74,0.13,1.4,1.1,2.17C102.41,96.5,107.83,94.17,110.06,90.03z M126.2,81.55
		c-0.24,1.19-0.78,2.32-0.65,3.58c1.18-1.57,3.65-9.39,4.67-5.9c5.35-9.26,18.32-14.79,25.96-19.76c0.45-5.09,3.08,0.12,2.18-5.9
		c-3.41,1.95-8,4-11.16,6.25c0.91-0.55,1.77-0.74,2.42,0.25c-6.15,3.8-13.99,6.4-18.53,14.55c-2.35-0.28-3.06,2.26-4.45,0.64
		c-2.87,4.28-7.89,4.6-9.24,10.02c-1.42-1.69-8.55,4.62-5.39,5.01C116.8,88.31,119.8,79.65,126.2,81.55z M201.12,28.77
		c-0.85,0.34-1.73,0.68-2.56,1.01l1.02,2.95C201.15,31.99,201.67,30.68,201.12,28.77z M374.7,53.65c-0.39-0.07-0.76-0.11-0.82,0.57
		c0.77,0.31,1.36,0.2,1.8-0.26c0.94,0.7,1.89,1.36,2.86,1.97c0.54-1.36-0.85-2.36-2.34-2.9c0.06-0.17,0.13-0.31,0.18-0.51
		c-0.72-2.33-6.96-2.51-4.97,0.99C371.42,51.09,374.64,53.7,374.7,53.65z M414.83,73.53c-1.25-0.89-1.82-2.73-3.21-0.72
		C411.94,74.13,413.96,75.28,414.83,73.53z M415.17,78.89c1.62-0.81,0.81-3.61,0.24-5.06c-0.65,1.38-1.98,0.1-2.44,2.22
		C415.6,76.12,413.18,78.53,415.17,78.89z M466.89,93.46c2.44,0.19,3.27,3.74,4.65,1.74C471.84,93.28,467.99,92.46,466.89,93.46z
		 M484.03,138.51c2,1.74-0.8,0.67-1.65,2.64c1.76,0.86,2.21,0.91,1.68,2.86c2.77-3.31,2.18,0.7,1.75,1.86l3.22-3.2
		c-1.17-1.27,0.36-2.7,0.36-4.06C487.54,139.31,485.96,136.53,484.03,138.51z M401.31,36.39c0.05-0.65-0.06-1.14-0.16-1.65
		C401.07,35.35,400.7,36.13,401.31,36.39z M401.16,34.66c-0.01,0-0.01,0.01-0.02,0.01c0,0.02,0,0.04,0.01,0.06
		C401.15,34.71,401.16,34.69,401.16,34.66z M78.78,492.44c-0.36,4.54,2.78,10.08,6.68,10.7C80.2,500.21,82.68,493.99,78.78,492.44z
		 M94.05,484.63c-0.89-1-1.78-2-2.69-3.03c-1.03-0.34,2.95,7.28,2.76,5.36C93.93,486.2,93.83,485.43,94.05,484.63z M11.15,257.75
		c1.93-10.28-3.61,6.03-0.58,4.13c-1.57,2.47-3.5,4.19-1.63,7.43c2.61-1.86,1.44-3.54,0.54-4.81c0.9-0.19,1.75-0.47,2.36-1.02
		C10.61,261.69,12.8,260.03,11.15,257.75z M57.37,163.5c1.13-6.46,4.95-12.2,7.11-16.82c-0.41,0.34-0.71,1.11-1.3,0.71
		c2.24-4.43,5.6-9.08,7.59-11.84c-0.42,0.33-0.93,0.25-1.56-0.38c2.23-5.57,9.98-5.85,9.16-11.56c-3.81,1.19-4.06,7.83-7.84,5.7
		c-4.83,4.32-6.87,13.47-13.64,16.92c1.28,6.02-5.06,10.69-8.06,12.68C51.66,157.66,57,157.29,57.37,163.5z M79.75,123.04
		c1.47,0.12,2.48-2.85,3.97-2.71c-4.48-3.46,5-2.49,2.11-6.26c-2.75,3.7-6.27,5.19-7.92,6.41c-0.37-0.28-0.73-0.51-0.97,0.04
		C78.38,121.71,79.44,121.07,79.75,123.04z M163.23,54.2c2.58-1.08,2.15-3.3,3.62-4.8c-0.6-1.86-4.32-1.41-3.95-0.37
		c1.34,0.03,2.87,1.6,1.38,2.76c-1.6-0.2-6.96-1.87-4.98,2.09C160.82,52.97,162.59,51.06,163.23,54.2z M169.44,53.24
		c3.45-3.94,8.84-5.76,9.36-11.96c0.79,1.38,2.56-0.45,3.34,0.94c-0.85,0.56-2.35,0.85-2.12,1.91c1.45-1.44,1.99,0.23,3.32-0.78
		c-3.08-3.26-3.57-2.61-4.83-6.24c1.76,7.02-7.97,9.78-11.15,10.22C171.36,46.92,168.87,50.48,169.44,53.24z M211.94,28.91
		c-1.92-0.19-3.06-2.19-5.01-2.33C207.38,29.47,211.61,29.97,211.94,28.91z M407.75,33.08c-2.23-0.29-1.51-2.05-3.75-2.32
		c-0.37,1.78-1.08,2.78-1.93,3.41c1.85,1.34,1.97-1.52,3.82-0.16c-0.14,0.41,0.25,1.05,0.66,0.27c-0.39-0.21-0.74-0.43-0.4-1
		C406.74,33.32,407.48,33.78,407.75,33.08z M417.19,49.79c0.63-1.32,2.3,0.47,2.8-1.27c-1.13-1.48,2.08-2.34,0.22-4.16
		c-1.76,3.26-3.62-2.83-4.82-1.32C417.51,45.26,418.7,47.35,417.19,49.79z M408.37,6.26c-3.42-2.59-6.72-4.68-8.4-6.26
		C399.95,3.31,406.21,5.9,408.37,6.26z M460.56,63.48c2.54-2.25,0.06-4.58-1.56-3.51C461.14,60.83,458.99,62.52,460.56,63.48z
		 M467.75,73.59c2.6-1.34-0.69-5.7-2.35-3.39C467.04,71.19,466.96,72.46,467.75,73.59z M511.79,179.16
		c-2.11-0.01-0.98-2.85-1.34-3.83c-0.95,0.36-1.62,0.28-2.28,0.2C509.7,177.03,509.35,181.25,511.79,179.16z M561.67,220.54
		c2.26-0.65,0.73,3.31,3.29,2.31c-3.01-5.58-1.72-6.91-0.53-13.15c-1.64,0.53-2.8,0.39-3.75-0.02
		C560.26,213.45,562.82,216.55,561.67,220.54z M548.17,225.01c0.4,1.35,0.3,6.91,1.38,5.06
		C549.21,228.7,549.24,223.13,548.17,225.01z M563.52,236.11c3.68,0.41,2.99-4.2,0.32-4.15
		C564.11,233.63,564.29,235.23,563.52,236.11z M566.32,263.52c-2.68-0.06-3.23-2.06-3.01-4.84c1.08-0.8,2.99-0.87,3.63-2.08
		c-4.73,0.35-0.39-5.92-2.45-6.84c-0.06,3.83-3.08,0.98-4.41,0.15c4.87,6.37,0.78,13.66,1.09,21.02c2.7-1.5,3.12-2.36,5.17-5.33
		C563.23,265.64,565.82,264.04,566.32,263.52z M564.09,271.04c-3.16,0.93,0.78,4.97-3.11,5.39c1.4,1.73-0.49,6.16,1.08,7.71
		c2.26-4.26,0.18-8.54,3.47-11.64C564.56,272.45,564.88,271.25,564.09,271.04z M561.27,284.77c-1.12,1.42-2.5,3.48-0.34,4.85
		C561.02,288.39,563.2,285.77,561.27,284.77z M559.52,297.13c-0.27-1.7,1.38-4.89-0.22-5.6
		C558.69,293.61,555.88,296.04,559.52,297.13z M526.15,384.4c-1.6,4.54-7.21,10.8-2.15,13.57c-2.08-5.79,4.86-10.18,4.67-13.8
		C528.07,384.81,527.26,385.01,526.15,384.4z M519.33,402.37c1.07-0.2,1.65-2.68,1.18-4.03
		C518.94,398.68,518.37,401.12,519.33,402.37z M510.47,418.51c2.31,0.26,7.09-5.36,5.36-7.89
		C515.45,413.23,512.52,416.32,510.47,418.51z M468.91,462.34c1.35,0.86,2.85,4.26,4.09,3.38l-1.56-1.65
		c0.34-2.28,2.94-1.48,1.63-4.11C471.57,459.21,470.23,460.52,468.91,462.34z M456.87,476.9c5.57-3.07,8.49-6.8,13.21-11.35
		c-0.63-0.74-0.13-1.4-1.1-2.17C464.52,470.42,459.1,472.76,456.87,476.9z M440.73,485.38c0.24-1.19,0.78-2.32,0.65-3.58
		c-1.18,1.57-3.65,9.39-4.67,5.9c-5.35,9.26-18.32,14.79-25.96,19.76c-0.45,5.09-3.08-0.12-2.18,5.9c3.41-1.95,7.99-4,11.16-6.25
		c-0.91,0.55-1.77,0.74-2.42-0.26c6.15-3.8,13.99-6.4,18.53-14.55c2.35,0.28,3.06-2.26,4.45-0.64c2.87-4.28,7.89-4.6,9.24-10.02
		c1.42,1.69,8.55-4.62,5.39-5.01C450.13,478.62,447.13,487.28,440.73,485.38z M365.81,538.16c0.85-0.34,1.73-0.68,2.56-1.01
		l-1.02-2.95C365.78,534.94,365.26,536.25,365.81,538.16z M192.23,513.28c0.39,0.07,0.76,0.11,0.82-0.57
		c-1.31-0.53-2.13,0.03-2.49,1.71c0.72,2.33,6.96,2.51,4.97-0.99C195.51,515.83,192.29,513.23,192.23,513.28z M155.3,494.12
		c-0.31-1.32-2.33-2.47-3.21-0.72C153.34,494.29,153.91,496.13,155.3,494.12z M100.04,473.47c-2.44-0.19-3.27-3.74-4.65-1.74
		C95.09,473.65,98.94,474.47,100.04,473.47z M536.03,316.03c-6.31,3.11,2.82,9.97-3.57,10.43c-0.16,1.2-0.02,2.24,0.84,2.93
		c-1.09,0.92-2.35,1.59-3.57,2.31c0.07,0.79,0.85,1.97,1.26,1.05c0.71,2.08-0.54,3.16-2.51,3.95c-1.64,7.68-1.26,13.68-5.9,19.79
		c1.98,6.41-4.48,13.58-7.72,18.43c-2.46,13.91-13.62,22.39-14.76,33.18c-1.35-1.25-1.93,0.1-3.4-1.57
		c-1.28,1.54,0.28,2.69,2.1,3.81c-1.9,1.4-2.38-0.23-4.04-0.5c1.97,2.63,0.52,2.37-1.38,3.73c2.17,2.64,2.34-2.07,4.37-0.01
		c-2.41,1.15-6.2,5.23-7.93,2.92c-1.73,1.33-0.3,2.4,1.35,3.46c-4.78,6.08-9.44,3.79-11.62,12.8c-0.29-1.28-0.74-0.98-1.7-1.5
		c-1.64,1.54-1.47,3.05-0.59,4.58c-0.95,1.84-2.53-0.03-3.6,1.01c-1.93,2.51,1.37,5.11-1.25,7.6c-1.56-4.33-3.92,2.51-6.39,1.74
		c-1.07,1.79,0.56,3.77-0.82,5.57c-1.33-1.12,0.64-2.01-0.31-3.09c-5.15,4.35-5.47,6.96-10.83,10.73c-2.47,1.72-4.64,5.54-6.34,6.3
		c-1.94,0.85-3.96-0.78-5.6,0.07c-2.84,1.48-5.59,7.89-8.38,5.52c-2.96,4.33-7.16,6.95-12.16,10.21c-0.04,0.03-0.07,0.05-0.11,0.07
		c-1.13,0.73-2.25,1.46-3.46,2.29c1.29,3.16-5.87,4.44-7.56,4.48c-1.18,1.61-0.02,1.4,1.01,3.02c-1.97,0.42-3.69-0.78-5.9,1.15
		c-1.41,1.54,0.29,2.26,1.32,3.73c-0.98,1.05-1.55-0.31-2.18-1.34c-6.42,0.88-8.99,10.78-16.21,8.76c-1,3.58-8.93,1.67-8.46,7.86
		c-1.21-0.43-2.85,0.64-3.48-1.74c-1.67,0.67-0.64,2.72-1.17,3.99c-1.95-5.01-6.75,2.4-9.7,3.51c-2.44,0.93-6.4-2.19-7.19,2.88
		c-4.39-4.28-7.35,1.65-12.38,3.63c-0.69,0.37-0.14,1.54,0,2.45c-7.78-0.42-11.69,3.97-16.5,6.43c-2.24,0.44-3.55-0.96-4.55-2.88
		c-3.25,0-2.97,2.84-5.26,3.61c-0.19-3.68-5.31,1.5-5.58-2.01c-1.93,3.23-5.9,2.58-8.69,2.33c1.84,0.16-3.25-1.77-4.68-1.66
		c-1.91,0.16-3,1.94-4.9,2.24c-2.11,0.32-4.45-2.18-6.58-2.4c-3.15-0.28-9.32-1.11-14.58,0.23c-0.96-1.81-1.35-1.41-0.69-3.89
		c-4.8,5.94-7.8-0.66-12.55,0.22c0.33,2.12,2.59,1.95,2.42,4.69c-1.83-6.11-11.4-1.75-16.52-3.67c0,3.62,5.71,1.14,4.82,5.75
		c2.86-4.37,6.6,0.13,10.41-1.29c-10.05,4.77-25.03,3.03-33.11,3.22c2.35,7.32,16.48,0.02,18.79,8.04c4.53-1.65,5.18-1.14,8.2-2.76
		c-0.8,2.1-0.57,3.67,1.17,4.73c4.24-5.86,13.14,1.41,15.3-4.82c1.54,4.13,4.86,0.32,6.62,1.28c-0.11,1.14-1.96,0.37-1.93,1.67
		c0.52,4.24,9.5,0.55,8.54-1.33c3.37,4.06,7.94,0.16,12.36-2.16c3,2.6,15.41,3.56,17.58-2.07c1.17-0.05,1.7,1.01,1.81,2.81
		c6.99-1.93,10.77-3.99,18.56-2.87c-5.68,3.63-11.38,1.31-14.47,6.77c0.57,0.69,1.68,0.46,1.75,2.02c2.5-1.06,2.62-1.27,4.83-0.32
		c1.96-2.44,5.7-5.01,8.46-2.97c1.23-4.37,5.41-3.32,7.15-7.74c-2.16,3.82,1.78,2.06,4.02,1.98c-9.41,8.29-21.75,9.09-29.98,13.42
		c-1.58-0.45-4.79-3.71-5.51,0.23c-1.88-0.49-2.7-2.67-4.56-3.19c1.03,1.32-0.62,1.39-2.29,3.52c-1.28,0.1-0.77-2.5-2.3-2.04
		c-2.84-0.22-0.84,3.92-3.7,3.67c0.11-1.36-0.68-1.4-1.52-1.38c-5.37,6.28-18.04,0.86-23.1,3.49c-5.49-3.78-11.8,1.85-19.97-1.43
		c-3.35,1.74-8.88,2.72-9.75-0.51c-1.48,0.35-2.37,1.48-3.66,2.09c0.39,0.83,1.55,0.93,1.23,2.44c-0.88-3.08-3.02-0.86-4.88-1.18
		c-8.16-1.36-19.95-3.66-29.24-6.62c0.6-2.82,1.36-1.73,3.07-0.99c0.04-0.92,0.39-1.35,0.97-1.41c-0.01-1-1.25-1.04-1.39-0.27
		c-1.82-1.12,1.36-1.86-0.15-3.2c-5.76,6.25-11.84-2.36-17.77-4.05c-0.21,0.43,0.75,1.23,1.18,1.13c-7.86,1.81-18.2-0.42-20.59-5.34
		c-2.02-1.08-1.38,3.61-3.62,2.05c2.91-1.7-2.14-2.4-0.62-5.15c-2.06,0.82-3.91-0.12-4.38-2.48c2.64-0.72-0.21-3.45-0.72-4.43
		c-2.64,1.98-4.97,1.14-7.59,0.3c0.81-1.61,2.36-0.95,2.89,0.34c1.25-1.86,2.2-2.28,2.12-5.83c-2.68,2.49-1.5-2.08-4.76-1.14
		c0.43-0.8,0.35-1.35-0.08-1.72c2.63-2.46,4.03-5.32,6.28-4.95c-0.24-0.84-0.05-1.9,0.48-3.15c-1.08-0.55-1.65,0.35-2.76-0.31
		c0.92-1.82,0.08-2.72-1.61-3.22c2.45-0.85,2.7-3.5,2.31-5.75c0.55,1.21,1.19,1.48,2.4,1.02c-0.64-2.45,1.75-4.75,3.91-4.99
		c0.05-0.18,0.1-0.34,0.15-0.49c-0.07-1.42-1.95,0.63-2.95-0.79l2.02-5.02c1.89,2.1,2.87-0.5,5.21,2.15c0.86-0.8,1.71-1.6,2.58-2.34
		c-5.12-0.67-9.45-2.73-17.48-0.01c-0.01-2.14,1.44-3.03,2.56-4.2c0.27,1.17-0.94,2.07,0.05,2.15c0.97,0.6,1.62,0.41,1.94-1.18
		c-1.22-0.78-1.69-2.6-3.34-2.82c-0.16,1.05-1.43,1.14-1.96,1.87c-1.32-0.22,0.12-4.01-1.34-4.02c-0.76,0.26-1.84,0.2-1.96,1.08
		c1.89,1.4,1.82,0.84,0.64,3.51c1.63,0.06,2.46,1.17,3.37,2.17c-2.32,0.7,1.74,2.33-0.58,3.05c-1.71-0.92-0.76-0.78-0.77-3.48
		c-1.46-1.64-3.09-1.85-4.68-1.87c1.24,0.61-0.58,2.63,1.84,2.7c-0.46,2.12-1.79,0.85-2.44,2.22c-0.55-1.4-1.27-4.01,0.12-4.92
		c-1.48,0-2.91,0.06-4.14-0.82c2.88-1.44,6.64-2.01,7.35-5.58c-0.74-3-6.08-0.38-7.73-2.36c0.77-3.64-1.9-3.21-3.03-4.61
		c-1.46,1.96-7.22,0.69-5.88-1.44c0.91,1.04,3.52,1.84,3.42-1.09c-2.13,0.59-2.54-0.72-3.92-0.99c-0.17,1.14-1.75,0.71-1.54,2.28
		c-3.85-1.68-2.41-1.2-7.03-2.52c0.95-6.5-6.41-1.37-4.94-8.52c-2.2,0.36-2.2-1.26-4.66-0.7c3.06-2.38,5.41-3.31,8.81-4.36
		c-4.34-3.72-7.48-9.18-14.83-6.76c-2.21-4.12-6.47-9.5-13.24-8.54c-1.61,8.09,12.82,6.34,11.8,12.08
		c-0.03-1.43,3.58-2.11,3.52-0.51c-0.9,0.25-1.57,0.84-1.78,2.08c2.75,1.35,8.69-2.28,10.5,1.72c-4.01,1.25-11.97,2.71-14.85-0.55
		c0.76-1.38,3.94,0.73,3.82-1.93c-4.03-0.75-6.36-2.34-11.59-0.98c-0.52-3.22-2.12-5.59-3.03-8.45c-5.06,0-5.1-3.28-9.69-0.9
		c0.17-2.56,3.01-0.39,3.03-3.21c-1.51-2.94-1.16-1.15,1.03-3.57l-6.11-1.22c0.32-2.12-0.45-3.53-2.33-4.28
		c-1.48,2.04,0.54,1.96,0.5,3.13c-2.09-0.9-3.52-0.57-4.55,0.48c-0.45-1.67-2.95-2.11-1.43-4.92c1.67,0.16,3.36,0.32,3.65-2.13
		c-0.18-0.01-0.37-0.05-0.55-0.06c-0.83,0.42-1.6,0.1-2.38-0.24c-2.56-0.28-5.11-0.66-7.67-1.09c2.85-4.18-6.49-1.91-3.84-5.98
		c2.19-0.82,2.15,1.47,3.89-0.32c-0.6,1.83,2.07,1.92,2.56,3.16c0.55-0.89,1.44-1.06,1.71-2.61l-4-1.25c3.01-2.49-1.38-3-0.79-5.73
		c4.53,2.09,5,7.87,12.07,5.24c-0.37-4.28-12.97-6.32-6.31-11.83c-0.46-1.02-2.01-1.53-3.69-1.99c-0.44,0.75-0.71,1.94-1.53,1.78
		c-1.57-7.06-8.5-12.08-9.1-19.63c-0.65,0.84-1.81,0.1-2.61,0.42c1.77-2.21-1.72-2.57-0.86-4.45c2.58,0.52,2.42,3.2,4.19,1.15
		c-0.93-2.79-1.51-5.67-3.4-8.18c0.57-2.06,1.86-1.18,2.53-2.83c-0.94-0.24-1.71,0.27-2.84-0.67c0.89-1.48,2.19-1.29,2.94-3.41
		c-2.25-1.29-1.31-1.64-3.68-2.01c1.78-1.54,4.03-1.08,5.83-2.59c-1.33-1.62-3.64-3.03-2.26-5.35l1.21,0.68
		c0.28-0.33,0.57-0.64,1.01-0.25c-1.99,1.37-0.06,4.21,1.23,3.12c-1.04-3.42-1.52-5.77-4.88-7.65c2.8-1.23,0.14-2.67,2.56-3.49
		c-1.33,0.28-2.73-0.59-1.88-2.04c2.32,1.43,4.34,0.97,6.12-1.25c1.02,1.68,1.68,3.44,2.98,5.03c1.12-1.43,3.01,0.8,3.88-1.83
		c-4.62-1.07-5.27-3.99-6.36-7.09c-2.06,0.63-5.97,0.16-4.61-2.97c1.37,0.88,0.93,2.08,3.02,2.8c1.58-0.59,2.59-2.72,2.69-3.32
		c-0.81-0.27-3.99,0.81-3.33-1.3c0.57,0.61,3.29-0.29,1.94-1.26c-1.73-1.23-3.06,0.64-4.92-1.58c0.77-1.39,4.25-1.74,3.32-2.85
		c-1.33,0.87-5.57-0.13-5.5-2.09c1.88-1.15,2.21,0.98,3.22,0.53c-1.88-1.54,3.08-1.63,1.27-2.5c-3.42,1.57-5.81-2.32-5.87-5.34
		c-0.1-0.04-0.23-0.04-0.32-0.1c0.1-0.19,0.23-0.37,0.34-0.55c0.03-0.34,0.07-0.67,0.18-0.96c-1.41-0.31-2.8-0.2-4.15,0.37
		c0.49-0.83,0.58-1.49,0.41-1.95c-0.97,0.02-1.94,0.04-2.14,0.58c0.33,1.3,2.63,0.92,2.43,2.67c-4.26,1.13-0.65,3.91,0.67,6.02
		c-3.54,3.63-0.4,9.07-3.55,11.55c0.91,1.66,2.96,2.12,3.66,3.97c-1.69,0.43-1.02,2.1-3.34,2.21c0.98,4.81,1.87,5.91,3.07,10.89
		c-1.86,0.33-1.86-1.54-2.2-3.01c-0.74,2.42-3.05,4.14-3.75,6.64c0.65,0.41,1.52,0.55,2.43,0.63c-0.69,1.16-0.95,2.54-3.04,3.08
		c-2.4-0.32,0.74-3.57-2.14-2.49c0.54-3.47-1.34-8.63-6.28-7.74c-2.4-0.33,1.89-1.14,2.16-0.42c-2.26-2.05,1.27-2.75-0.44-5.93
		c-0.5-1.06-2.9,0-2.59-1.97c-1.32,0.13-1.41,0.96-2.8,1.04c-0.03-2.61-0.02-7.94-3.6-8.61c1.39-3.43-1.52-7.88,2.3-11.15
		c-5.4-1.89,0.96-8.5-3.8-10.06c0.68-1.03,3.08-0.76,4.33-1.35c-2.52-0.22-2.96-1.48-0.1-1.8c-1.65-5.42,3.38-13.57-1.2-17.47
		c3.17-1.37,3.67-6.98,1.74-9.67c-0.61,0.28-1.21,0.54-2.23,0.43c-2.9-7.83,2.58-12.73-4.61-18.14c-2.85,1.57,2.28,2.78,1.01,5.24
		c-7.74-6.75,2.7-18.81-1.6-26.92c6.31-3.11-2.82-9.97,3.57-10.43c0.16-1.2,0.02-2.24-0.84-2.93c1.09-0.92,2.35-1.59,3.57-2.31
		c-0.07-0.79-0.85-1.97-1.26-1.05c-0.71-2.08,0.54-3.16,2.51-3.95c1.63-7.68,1.26-13.68,5.9-19.79c-1.98-6.41,4.48-13.58,7.72-18.43
		c2.46-13.91,13.62-22.39,14.76-33.18c1.35,1.25,1.93-0.1,3.4,1.57c1.28-1.54-0.28-2.69-2.1-3.82c1.9-1.4,2.38,0.23,4.04,0.5
		c-1.97-2.63-0.52-2.37,1.38-3.73c-2.17-2.64-2.34,2.07-4.37,0.01c2.41-1.15,6.2-5.23,7.93-2.92c1.73-1.33,0.3-2.4-1.35-3.46
		c4.78-6.08,9.44-3.79,11.62-12.8c0.29,1.28,0.75,0.99,1.7,1.5c1.64-1.54,1.47-3.05,0.59-4.58c0.95-1.84,2.53,0.03,3.6-1.01
		c1.93-2.51-1.37-5.12,1.25-7.6c1.56,4.33,3.92-2.51,6.39-1.74c1.07-1.79-0.56-3.77,0.82-5.57c1.33,1.12-0.64,2.01,0.31,3.09
		c5.15-4.35,5.47-6.97,10.83-10.73c2.48-1.72,4.64-5.54,6.34-6.3c1.94-0.85,3.96,0.78,5.6-0.07c2.84-1.48,5.59-7.89,8.38-5.52
		c3.64-5.34,9.1-8.01,15.73-12.58c-1.29-3.16,5.87-4.44,7.56-4.48c1.02-1.39,0.29-1.49-0.59-2.51c-0.9,0.08-1.78-0.07-2.56-0.59
		c-0.14,4.14-6.64,2.45-8.14,1.36c0.56,0.08,2.5-1.8,1.06-1.98c-1.5,0.02-2.62,0.69-3.23,2.15c0.82,0.3,1.57,0.64,1.16,1.85
		c-2.26,0.33-3.24,2.67-4.73,4.2c2.19-6.1-0.07-9.66,4.73-8.79c1.13-3.16,4.08-3.31,5.47-6.11c2.23,0.29,2.36,2.42,4.09,1.28
		c0.38,1.56-2.49,1.79-0.56,2.92c3.7-2.6,8.67-5.27,8.47-9.68c2.43,0.45,1.05,3.17,3.47,3.64c0.33-4.58,5.49-2.66,6.76-3.52
		c-1.18,0.47-1.9,1.91-2.43,3.7c-2.45-1.72-5.72,0.53-4.29,2.98c0.76,0.12,1.41,0.01,2.03-0.15c1.56-1.41,3-3.07,4.57-4.36
		c-0.24,0.01-0.37-0.13-0.26-0.75c1.4,0.73,0.97-2.38,1.62-3.27c5.02,2.22,2.6-5,6.61-5.09c0.3,2.15-2.46,2.81-1.06,3.57
		c2.55-1.28,5.41-1.77,7.68-3.67c0.23,0.04,0.33,0.13,0.49,0.19c0-0.19,0.07-0.33,0.05-0.54c1.1,0.39,2.52-0.34,3.25,1.31
		c0.43-0.63,0.81-1.2,1.23-1.72c-0.01-0.65-0.06-1.31,0.17-1.84c0.16,0.43,0.38,0.65,0.58,0.91c0.03-0.03,0.07-0.08,0.09-0.12
		c0.16,0.18,0.27,0.39,0.34,0.6c2.29,1.56,6.16-3.95,8.68-4.9c2.44-0.93,6.4,2.19,7.19-2.88c0.7,0.68,1.35,1.03,1.99,1.25
		c0.1-0.38,0.19-0.69,0.3-0.84c-0.1,0.33-0.08,0.62-0.01,0.91c2.03,0.52,3.88-0.86,5.97-2.43c-3.81,0.33-7.6,0.83-11.31,1.62
		c3.21-5.58,14.6,0.26,14.48-6.02c1-1.9,2.57-1.49,4-1.62c-0.12,0.33-0.29,0.67-0.44,1c6.11-0.55,9.67-4.21,13.91-6.38
		c1.4-0.27,2.4,0.21,3.22,1.05c0.5-0.47,1.21-0.9,3.64,0.29c1.78-3.59,6.81-2.52,10.96-2.03c1.76-0.7,3.81-0.58,5.58-0.41
		c0.05,0,0.09,0,0.14,0.01c0.17,0.02,0.36,0.03,0.53,0.04c-0.19-0.02-0.27,0-0.32,0.03c0.36,0.1,0.74,0.31,1.14,0.67
		c0.36,0.14,0.74,0.28,1.16,0.41c0.12-0.16,0.33-0.3,0.88-0.39c0.32,0.25,0.47,0.51,0.56,0.78c0.31,0.07,0.58,0.11,0.82,0.14
		c0.08-0.33,0.18-0.67,0.48-1.01c0.68-0.12,1.43-0.04,2.22,0.1c0.82-0.54,1.61-1.13,2.65-1.3c1.28-0.19,2.64,0.64,4,1.38
		c0.16-0.17,0.33-0.32,0.45-0.57c0.56,0.37,0.71,0.74,0.67,1.13c0.49,0.22,0.98,0.41,1.46,0.46c0.28,0.02,0.69,0.06,1.02,0.1
		c2.04-1.08,3.98-0.67,5.72,0.39c2.53,0.06,5.29-0.06,7.84-0.71c0.96,1.81,1.35,1.4,0.69,3.89c4.79-5.94,7.8,0.66,12.55-0.22
		c-0.33-2.12-2.59-1.95-2.42-4.69c1.83,6.11,11.4,1.75,16.52,3.67c0-3.62-5.71-1.14-4.82-5.75c-2.86,4.37-6.6-0.13-10.41,1.28
		c10.05-4.77,25.03-3.03,33.11-3.22c-2.35-7.32-16.48-0.02-18.79-8.05c-4.53,1.66-5.18,1.14-8.21,2.76c0.8-2.1,0.57-3.67-1.17-4.73
		c-4.24,5.86-13.14-1.41-15.3,4.82c-1.54-4.13-4.86-0.32-6.62-1.28c0.11-1.14,1.96-0.37,1.93-1.67c-0.52-4.24-9.5-0.55-8.54,1.33
		c-3.37-4.06-7.95-0.16-12.36,2.15c-3-2.6-15.41-3.56-17.58,2.07c-1.17,0.05-1.69-1.01-1.81-2.81c-6.99,1.93-10.77,3.99-18.56,2.87
		c5.68-3.63,11.38-1.31,14.47-6.77c-0.58-0.69-1.68-0.46-1.75-2.02c-2.5,1.06-2.62,1.27-4.83,0.32c-1.96,2.44-5.7,5-8.46,2.97
		c-1.23,4.37-5.41,3.32-7.15,7.74c2.16-3.82-1.78-2.06-4.02-1.98c9.41-8.29,21.75-9.09,29.98-13.42c1.58,0.45,4.79,3.71,5.51-0.23
		c1.88,0.49,2.7,2.67,4.56,3.19c-1.03-1.32,0.62-1.39,2.29-3.52c1.28-0.1,0.77,2.5,2.3,2.04c2.84,0.22,0.84-3.92,3.7-3.67
		c-0.11,1.36,0.68,1.4,1.52,1.38c5.37-6.28,18.04-0.86,23.1-3.49c5.49,3.78,11.81-1.85,19.97,1.43c3.35-1.74,8.88-2.72,9.75,0.51
		c1.48-0.35,2.37-1.48,3.66-2.09c-0.39-0.83-1.55-0.93-1.23-2.44c0.88,3.08,3.02,0.86,4.88,1.18c8.16,1.36,19.95,3.66,29.24,6.62
		c-0.6,2.82-1.36,1.73-3.07,0.99c-0.04,0.92-0.39,1.35-0.97,1.41c0.01,1,1.25,1.04,1.39,0.27c1.82,1.12-1.36,1.86,0.15,3.2
		c5.76-6.25,11.84,2.36,17.77,4.05c0.21-0.43-0.75-1.23-1.18-1.13c7.86-1.81,18.2,0.42,20.59,5.34c2.02,1.08,1.38-3.61,3.62-2.05
		c-2.91,1.7,2.14,2.4,0.62,5.15c2.06-0.82,3.91,0.12,4.38,2.48c-2.64,0.72,0.21,3.45,0.72,4.43c2.64-1.98,4.97-1.14,7.59-0.3
		c-0.81,1.61-2.36,0.95-2.89-0.34c-1.25,1.85-2.2,2.28-2.12,5.83c2.69-2.49,1.5,2.08,4.76,1.14c-0.43,0.8-0.35,1.35,0.08,1.72
		c-2.63,2.46-4.03,5.32-6.28,4.95c0.24,0.84,0.05,1.9-0.48,3.15c1.08,0.55,1.65-0.35,2.76,0.31c-0.92,1.82-0.08,2.72,1.61,3.22
		c-2.44,0.85-2.7,3.5-2.31,5.75c-0.55-1.21-1.19-1.48-2.4-1.02c0.63,2.41-1.68,4.67-3.82,4.96c0.01,0.03,0,0.05,0.01,0.08
		c2.8-1.52,3.49,4.36,5.65,1.08c-1.17,3.64,2.13,1.65,2.22,5.38c-1.8-0.84-3.91-2.1-5.85-3.53l-0.75,1.87
		c1.31,0.95,2.53,3.25,3.58,4.22c-0.93,0.46-2.38,0.59-2.44,1.64c1.07,2.6,4.58-2.07,5.31-0.36c-2.36,2.72,1.8,1.52,2.31,2.23
		c-1.42,0.57,0.1,3.14-0.15,4.52c1.21-0.57,1.51,0.33,2.67-0.14c-1.17-0.33-2.29-1.71-0.32-2.86c0.8,2.43,2.71,3.9,4.16,0.94
		c0.98,2.15-2.04,1.13-1.05,3.29c3.52-1.74,1.37,0.79,2.72,1.49c1.63-0.3,1.96-1.65,2.45-2.88c-1.75,2.05-2.72-2.53-4.26-3.36
		c1.84,0,1.17-1.83,2.47-2.21c0.95,1.06,1.6,2.55,3.53,2.13c1.18-1.71-0.01-2.77-0.39-4.46c3.11,2.91,2.46,4.67,2.02,8.55
		c2.92,0.01,1.97,4.75,3.02,6.68c-0.99,1.28-3.03,1.68-3.86,3.11c1.84,0.96,2.62,3.35,4.71,3.96c1.3-0.77,2.79-3.1,3.31-0.73
		c-1.13,1.48-2.61-0.47-2.63,2.72c2.44-1.74,1.31-0.15,2.63,0.88c0.87-0.89,1.98-1.56,2.65-2.67c-0.56-0.14-2.24-2.26-0.66-2.78
		c0.83,0.89,0.56,3.15,2.63,2.45c0.93-1.82-1.66-2.49,0.04-2.95c0.16,1.12,1.45,0.27,1.99-0.31c0.35,2.33-0.26,3.74-1.4,4.63
		c1.15,0.48,1.02,2.53,2.56,2.52c-0.02,2.2-2.67,5.66-0.25,5.82c2.53,0.26,1.24-3.33,4.1-2.73c0.4,2.69-3.24,1.29-2.85,3.98
		c2.01,2.83,3.79,5.78,8.13,6.09c-2.62,2.2,1.75,2.34,2.2,3.43c0.31,1.85-2.5,4.09-0.67,5.03c2.38-0.36,5.93-1.16,7.39-1.09
		c-0.77,0.97-0.64,2.36-0.64,4.27c-1.58,2.27-1.88-2.29-3.32,0.15c1.24,1.65,3.48,5.41,5.95,3.99c-0.01-1.62-2.63-1.8-0.74-3.48
		c4.36,1.46,4.52,9.02,8.21,9.24c1.32,5.18-0.42,9.83,4.43,9.45c-0.63,1.59-2.21,2.86-0.26,3.48c0.46-0.91,1.31-1.24,1.41-2.69
		l4.02,0.34c-3.8,3.41,4.3,4.12,1.46,6.6c0.39-1.93-1.65-1.45-2.6-0.33c1.58,0.69-0.5,3.89,2.14,3.85c1.87-2.31,1.59,0.77,3.7,1.25
		c0.06,2.32-2.3,0.2-2.23,2.52c0.46,0.22,1.28,0.21,1.08,0.86c-2.14,1.17-3.45-3.45-6.09-0.16c3.42,0.5,0.43,7.29,5.71,5.04
		c-0.32,1.28-1.29,1.34-1.64,2.53c2.51,0.04,1.81,3.35,4.07,2.08c0.86-1.68-2.34-0.95-0.96-2.97c3.86,1.94,3.46,4.51,7.4,4.32
		c-0.94,1.75-2.99,1.01-3.96,2.71c1.72-3.38-2.8-3.58-4.17-1.59c2.42,0.92,2.39,3.26,4.3,4.51c0.87-0.64,1.62-1.56,2.06-3.13
		c3.13,0.13,2.55,2.3,4.28,3.22c-0.37,2.22-1.91,1.75-2.75,2.92c1.34,0.31,2.22,1.09,2.9,2.05c2.32-0.13,2.41,2.82,5.18,2.12
		c-1.32,1.54-3.35,0.06-4.63-1.25c1.41,2.55,2.02,5.88,5.09,6.66c-1.3,1.06-3.08,0.69-4.46,1.52c0.11,3.1,3.5-0.5,3.06,2.48
		c-0.79-0.19-1.57-0.3-1.92,0.83c0.94,0.54,2.35,1.77,3.74,1.27c-0.43-1.26-0.83-2.52-0.8-3.99c1.19,0.21,2.01-0.6,2.59-2.12
		c0.97,1.23,1.43,2.68,1.79,4.18c0.43,0.09,0.86,0.17,1.6-0.13c-0.12,0.5-0.71,0.95-1.36,1.25c0.24,1.1,0.47,2.21,0.83,3.25
		c2.47,1.93,3.56-0.32,5.16-1.06c-0.7,3.36-1.37,1.37-3.07,4.11c-4.97-2.25-3.6-4.8-5.73-7.37c-0.4,2.54-1.29,2.29-1.78,4.58
		c-2.63,0.62-3.08-0.84-5.74,0.96c0.86-1.34-1.7-3.56-2.05-2.83c-1.94,2.56,2.25,4.65,4.26,2.85c-1.84,2.03,1,4.51,2.31,3.74
		c1.7-1.75-1.56-1.57-0.44-3.1c0.78,0.15,1.22-0.73,1.67-1.62c2.67,2.6,3.05,7.89,3.85,11.89c0.71,3.81,1.7,6.61,5.9,5.32
		c-1.11-0.04-1.37-2.16,0.29-1.97c0.32,0.6,0.59,3.49,1.62,2.33c-0.15-2.32-2.44-3.99-5.07-5.44c3.1-3.1-1.64-3.5-0.24-6.04
		c2.34,0.27,0.37,2.08,1.43,2.82c1.1-0.55,2.41-0.49,3.33-1.64c1.89,1.78,3.96,0.55,2.65,3.44c-2.03,0.73-3.35-3.03-5.44-0.09
		c3.65,1.14,5.58,3.32,7.48,1.85c1.21-1.04-1.01-2.87,0.69-3.27c-0.38-1.16-0.77-2.42-1.21-4.25c1.86-0.33,1.86,1.54,2.2,3.01
		c0.74-2.42,3.05-4.14,3.74-6.64c-0.65-0.41-1.52-0.55-2.43-0.63c0.7-1.16,0.95-2.54,3.04-3.08c2.4,0.32-0.74,3.57,2.14,2.49
		c-0.54,3.47,1.34,8.63,6.28,7.74c2.4,0.33-1.89,1.14-2.16,0.42c2.26,2.05-1.27,2.75,0.44,5.93c0.5,1.06,2.9,0,2.59,1.96
		c1.32-0.13,1.41-0.95,2.8-1.04c0.03,2.61,0.01,7.94,3.61,8.61c-1.39,3.43,1.52,7.88-2.3,11.14c5.4,1.89-0.96,8.5,3.81,10.06
		c-0.68,1.03-3.08,0.76-4.33,1.35c2.52,0.22,2.96,1.48,0.1,1.8c1.65,5.42-3.38,13.57,1.2,17.47c-3.17,1.37-3.67,6.98-1.74,9.67
		c0.61-0.28,1.21-0.54,2.22-0.43c2.9,7.83-2.58,12.73,4.61,18.14c2.85-1.57-2.28-2.78-1.01-5.24
		C542.17,295.86,531.72,307.92,536.03,316.03z M403.46,48.92c0.99,0.25,2.23,1.22,2.8,0.32c-2.67-0.84,0.23-1.65,0.46-3.17
		c-0.67-0.27-1.28-0.52-1.92-0.78C404.21,47.13,405.17,48.02,403.46,48.92z M253.79,21.01c-1.13-1.78-0.02-2.49-1.13-2.97
		c-0.76,2.81-1.56-0.82-0.78-0.65c-2.13-0.47-9.46,2.42-4.55,5.69C248.12,19.44,250.69,21.31,253.79,21.01z M273.45,15.8
		c-3.69-1.17-8.54,2.25-12.51,3.23C263.98,21.95,271.48,19.72,273.45,15.8z M282.76,12.58c-0.92-1.02-3.41-0.96-3.35,1.04
		C280.5,14.75,282.21,13.98,282.76,12.58z M152.1,74.33c-0.4-1.25-0.59-2.64-2.32-3.04c1.24,1.08-0.5,3.76-0.96,1.25
		c-1.06,0.91-1.1,2.55-0.75,4.37C151.15,76.05,149.98,75,152.1,74.33z M163.47,518.01c-0.99-0.26-2.23-1.22-2.8-0.32
		c2.67,0.84-0.23,1.65-0.46,3.17c0.67,0.27,1.28,0.52,1.92,0.78C162.72,519.79,161.76,518.91,163.47,518.01z M313.14,545.92
		c1.13,1.78,0.02,2.49,1.13,2.97c0.76-2.81,1.56,0.82,0.78,0.65c2.13,0.47,9.46-2.42,4.55-5.69
		C318.81,547.49,316.24,545.62,313.14,545.92z M293.48,551.13c3.69,1.17,8.55-2.25,12.51-3.23
		C302.95,544.98,295.45,547.21,293.48,551.13z M284.17,554.35c0.92,1.02,3.41,0.96,3.35-1.04
		C286.42,552.18,284.72,552.95,284.17,554.35z M180.18,512.06c0.27-0.3,0.59-0.54,1.07-0.62c-2.12-1.02-3.3,0.31-4.19,2.41
		c1.55-0.5,0.5-2.73,2.88-2.66C180.16,511.57,180.21,511.83,180.18,512.06z M62.35,323.79c-0.42,0.27-0.79,0.57-1.25,0.82
		c0.15,0.54,1.09,0.43,1.92,0.43C62.78,324.61,62.55,324.19,62.35,323.79z M413.51,142.66c-0.02,0.13-0.05,0.27-0.07,0.41
		c0.37,1.02,0.44,1.92,0.03,2.77c0.1,0.62,0.3,1.22,0.53,1.82c0.1-0.02,0.18-0.07,0.28-0.09
		C414.91,144.68,416.26,142.42,413.51,142.66z M505.42,240.99c0.61-0.13,1.2-0.1,1.65,0.14c-0.52-1.15-1.01-2.32-1.34-3.59
		C504.05,238.99,504.87,240.06,505.42,240.99z M364.84,101.75c-0.21,0.19-0.4,0.42-0.51,0.76c0.15,0.38,0.26,0.6,0.37,0.82
		c0.59,0.19,1.16,0.43,1.69,0.79c0.24,0.02,0.44,0.03,0.77,0.07c0.27-0.47,0.34-0.88,0.34-1.25
		C366.4,102.87,365.48,102.54,364.84,101.75z M401.13,134.93c0.52,2.09,2.51,1.01,0.98,3.8c0.15,0.06,0.3,0.12,0.51,0.21
		c0.58-0.49,0.8-1.29,1-2.12c0.2-1.26,0.68-2.49,1.05-4.04c-0.62,0.7-1.18,0.93-1.86,1.12C402.52,134.6,401.88,134.92,401.13,134.93
		z M427.46,179.01c-0.2-0.21-0.39-0.44-0.54-0.69c-0.42,0.41-0.87,0.81-1.33,1.13c-0.17-0.18-0.19-0.36-0.27-0.54
		c0.53,1.66,1.27,3.07,3.15,2.43c0.02-0.14-0.01-0.24-0.01-0.36c-0.09,0.06-0.18,0.07-0.27,0.14
		C426.98,180.85,425.26,180.37,427.46,179.01z M369.77,107.9l2.04-1.19c0.92,1.53-0.83,8.42,2.66,7.12c-0.1-1.15-0.6-1.5-1.33-1.37
		c0.9-3.98,3.68-0.63,4.71,0.31c0.75-1.71-2.49-6.19-4.39-2.65c-0.24-3.28,4.01-5.69,4.99-3.46c0.65-1.46-0.01-1.88-0.93-2.16
		c-0.82,0.08-1.83,0.41-2.88,0.48c-1.14,0.34-1.98,0.05-2.95,0.07c-0.24,0.21-0.48,0.55-0.73,1.25c0.1-0.58,0.09-0.93,0.03-1.1
		c-0.11,0.03-0.21,0.03-0.33,0.07C370.39,105.61,370.06,106.5,369.77,107.9z M374.9,104.33c0.25-0.21,0.52-0.36,0.79-0.47
		c-0.4-0.23-0.72-0.54-0.82-1.07C374.19,103.58,374.58,103.9,374.9,104.33z M382.38,111.26c-0.11,3.84,2.84,2.03,3.79,3.9
		c0.77-0.57,0.38-1.94,0.41-3C384.53,113.54,384.8,110.83,382.38,111.26z M425.01,175.55c-0.24,0.1-0.51,0.17-0.83,0.14
		c0.14,0.23,0.26,0.5,0.37,0.8c0.28-0.09,0.54-0.19,0.86-0.28C425.2,176.1,425.1,175.83,425.01,175.55z M376.82,108.26
		c1.24,1.14,2.07,3,4.32,2.16c0.35-1.84-2.23-2.03-0.87-3.19C379.39,106.64,377.33,107.12,376.82,108.26z M386.22,121.01
		c0.57-0.28,1.1-0.3,1.55-0.02c-0.6-0.62-1.11-1.39-1.44-2.42C386.14,119.44,386.14,120.25,386.22,121.01z M394.56,127.3
		c-0.13,0.16-0.14,0.26-0.23,0.4c0.08-0.1,0.16-0.2,0.25-0.29C394.58,127.36,394.56,127.34,394.56,127.3z M388.02,121.16
		c-0.54,0.62-0.72,1.05-0.6,1.34c-0.35,0.3-0.56,0.4-0.71,0.42c0.93,2.02,2.9,3.21,4.97,2.88c-0.98,1.05-1.72,2.84-0.65,3.66
		c0.52-0.45,0.83-0.66,1.12-0.82c-0.02-0.31-0.05-0.62-0.13-0.9c0.62-0.76,1.3-1.12,2.08-0.68c0.14-0.58,0.21-1.12,0.22-1.64
		c-0.69-0.28-1.06,0.1-2.1,1.54c0.22-1.59,0.64-3,1.66-3.94c-0.03-0.06-0.04-0.13-0.07-0.19C391.94,123,389.67,122.67,388.02,121.16
		z M420.41,180.2c0.65,0.28,1.02,0.73,0.51,1.52c-0.06-0.06-0.19-0.1-0.27-0.16c0.29,0.35,0.81,0.51,1.84,0.26
		C422.82,180.37,421.64,179.35,420.41,180.2z M155.63,338.81c0.24-0.01,0.45,0.01,0.7-0.02c-0.18-0.13-0.4-0.24-0.62-0.36
		c-0.13,0.02-0.24,0.01-0.37,0.03C155.52,338.63,155.52,338.7,155.63,338.81z M168.89,347.22c-0.07,0.36,0.17,0.76,0.3,1.14
		c-1.39-0.51-1.9-0.06-2.66,0.48c0.27-0.03,0.53-0.06,0.8-0.08c0.12-0.13,0.23-0.22,0.37-0.39c0.01,0.11-0.03,0.24-0.04,0.36
		c0.49-0.04,0.96-0.11,1.43-0.21c0.2-0.2,0.41-0.4,0.73-0.59c0.07,0,0.1,0.03,0.16,0.03c0.03-0.3-0.11-0.52-0.35-0.71
		C169.36,347.18,169.12,347.19,168.89,347.22z M167.99,349.62c0.14-0.12,0.31-0.23,0.42-0.35c-0.15-0.06-0.27-0.11-0.43-0.17
		C167.94,349.31,167.99,349.45,167.99,349.62z M170.32,350.02c-0.05,0.16-0.11,0.32-0.32,0.46c-0.69,0.01-0.97-0.29-1.93-0.09
		c0.53,1.28,2.53,1.59,4.38,1.77c-0.18-0.41-0.34-0.82-0.51-1.23c-0.22-0.04-0.22-0.11-0.09-0.21c-0.02-0.05-0.04-0.1-0.06-0.15
		C171.3,350.41,170.82,350.23,170.32,350.02z M166.42,347.39c0.36-0.24,0.54-0.41,0.64-0.54c-0.72,0.25-1.44,0.47-1.73,0.7
		c0.1,0.15,0.13,0.29,0.08,0.42c0.14,0.07,0.32,0.15,0.61,0.23c0.04-0.47,1.51-0.54,2.16-0.48c-0.22-0.08-0.35-0.16-0.41-0.25
		C167.35,347.57,166.93,347.63,166.42,347.39z M169.86,345.92c0.01,0.01,0.05,0.01,0.06,0.01c-0.01-0.02-0.01-0.04-0.02-0.06
		C169.89,345.88,169.87,345.9,169.86,345.92z M169.83,346.54c-0.19,0.06-0.33,0.12-0.45,0.18c0.04,0.01,0.06,0.02,0.1,0.02
		C169.61,346.69,169.71,346.6,169.83,346.54z M168.41,346.22c-0.05,0.05-0.15,0.09-0.22,0.13c0.09,0.06,0.22,0.11,0.36,0.16
		C168.94,346.27,169.16,346.13,168.41,346.22z M159.18,342.06c-0.16,0.09-0.3,0.19-0.46,0.28c0.42-0.06,0.85-0.08,1.27-0.08
		C159.71,342.18,159.45,342.12,159.18,342.06z M158.18,341.88c-0.13-0.01-0.26-0.04-0.38-0.04c0.06,0.1,0.09,0.21,0.09,0.32
		c-0.54-0.24-0.95-0.14-1.22,0.03c0.22,0.21,0.55,0.32,0.87,0.45C157.76,342.39,157.97,342.13,158.18,341.88z M158.9,337.7
		c-1.24-1.5,0.16-2.47-2.25-3.11C157.73,335.97,154.8,337.9,158.9,337.7z M157.27,338.31c1.02,0.85,1.59,1.83,1.17,3.11
		c0.08-0.05,0.14-0.03,0.22-0.07c0.8-0.88,1.77-1.7,3.62-2.3c-0.16,0.75-0.8,1.41-1.63,2.03c0.88,0.25,1.48,0.91,1.65,1.49
		c1.07,0.3,1.94,0.77,2.4,1.37c0.26,0.11,0.6,0.13,0.82,0.29c-0.14,0.19-0.32,0.26-0.49,0.38c0.1,0.48-0.02,0.99-0.51,1.52
		c0.34-0.13,0.57-0.27,0.88-0.4c0,0,0,0,0,0c0,0,0,0,0,0c1.66-0.69,2.96-1.42,3.62-2.24c-4.19-0.44-3.1-2.06-1.17-3.36
		c-0.07-0.21-0.13-0.42-0.19-0.63c-0.93,0.04-1.33-0.34-1.75-0.75c-0.5,0.25-0.99,0.54-1.51,0.68c0.35-0.44,0.62-0.84,0.79-1.21
		c-0.38-0.19-0.89-0.3-1.68-0.24c2.88-0.77-0.03-0.74-0.36-1.42c0.34-0.11,0.59-0.22,0.78-0.33c-0.95-0.63-1.85-1.31-2.69-2.04
		c-0.63,0.46-1.49,0.86-1.3,1.55c1.14,0.6,2.07-0.76,2.98-0.04c-1.65,1.24-2.11,2.12-2.17,3.23
		C159.92,338.55,158.85,338.28,157.27,338.31z M148.71,332.38c0.08-0.55,0.06-1.14,0.42-1.59c-2.28,0.33-2.26-0.64-2.88-1.26
		C146.44,330.63,147.39,331.56,148.71,332.38z M148.45,327.24c-4.12,0.19-0.4,2.27,0.54,2.91
		C149.52,328.75,148.91,328.72,148.45,327.24z M403.83,158.35c2.32-3.02-1.74-3.02-1.81-5.01
		C400.27,155.82,403.03,157.24,403.83,158.35z M385.33,123.16c-1.87,0.9-2.79,2.46-5.04,3.11c-0.06,0.32-0.02,0.47-0.01,0.69
		c0.13-0.1,0.3-0.15,0.41-0.28c0.57-0.57,0.82-0.05,0.93,0.77c0.78-0.56,1.5-0.8,2.39-1.78c0.25,0.09,0.22,0.31,0.11,0.58
		c0.06,0.18,0.12,0.42,0.16,0.79c0.48-0.1,0.53-0.51,0.55-0.93l1.14-0.53C385.5,125.2,385.32,124.36,385.33,123.16z M425.13,178.33
		c0.01-0.27,0.05-0.55,0.19-0.82c-0.16,0.06-0.25,0.12-0.38,0.17C425.01,177.89,425.07,178.11,425.13,178.33z M394.56,130.78
		c-0.01-0.01-0.02-0.02-0.03-0.03c2.28-2.59,0.41-1.1,0.1-2.97c-0.17,0.12-0.34,0.23-0.62,0.48c-0.24,0.6-0.21,1.04-0.28,1.54
		c0.17,0.33,0.33,0.67,0.63,1.07C394.43,130.81,394.48,130.82,394.56,130.78z M397.75,127.63c-0.33-0.24-0.68-0.34-1.01-0.06
		C397.1,127.76,397.44,127.83,397.75,127.63z M394.78,122.22c0.43-0.62,0.95-0.52,1.46-0.58c-0.16-0.29-0.36-0.51-0.49-0.85
		c-0.57,0.3-0.85,0.63-1,0.96C394.78,121.91,394.7,122.08,394.78,122.22z M381.45,114.57c-1.31,0.41-0.49,2.28-1.55,2.86
		c1.07,1.59,2.07-0.23,3.97-1.2C383.18,115.46,382.16,115.31,381.45,114.57z M369.69,105.03c-0.99-0.25-1.71-0.32-2.4-0.02
		c0.73,0.79,1.38,1.77,1.78,3.29l0.44-0.26C368.94,107.11,368.43,105.93,369.69,105.03z M432.54,198.45
		c-0.37,0.13-0.59,0.35-0.8,0.57c0.15,0.26,0.21,0.59,0.38,0.82c0.03,0.47,0.81,0.16,1.5-0.06
		C433.56,199.16,432.3,199.28,432.54,198.45z M410.94,153.4c-0.02-1.74-1.04-2.34-1.76-3.3c-0.79,0.57-1.54,0.66-2.22,0.4
		C407.54,152.12,408.94,153.68,410.94,153.4z M410.72,139.32c-0.18,0.11-0.35,0.18-0.56,0.41c0.03,0.16,0.02,0.33,0.03,0.5
		c0.36,0.13,0.71,0.31,1.07,0.35C411.15,140.09,410.95,139.69,410.72,139.32z M397.61,130.06c0.28-0.1,0.54-0.29,0.81-0.7
		c0.06-0.67-0.16-1.15-0.44-1.51C397.86,128.58,397.74,129.32,397.61,130.06z M398.58,125.26c-0.45-0.79-0.98-1.45-1.49-2.16
		c-0.6-0.1-1.2-0.29-1.83-0.64c-0.02,0.39-0.06,0.78-0.16,1.21c0.23,0.41,0.38,0.71,0.04,0.81
		C395.92,125.28,397.08,125.49,398.58,125.26z M369.35,102.91c0.98,1.07,2.16-0.14,3.49,0.3c0.08-0.06,0.19-0.1,0.26-0.16
		C372.07,102.7,370.71,102.83,369.35,102.91z M431.53,200.44c0.27,0.37,0.75,0.62,1.61,0.35c0.09-0.12,0.13-0.2,0.2-0.29
		c-0.73,0.11-1.37,0.14-1.78-0.07C431.54,200.43,431.54,200.43,431.53,200.44z M428.19,179.9c-0.11-0.19-0.24-0.36-0.39-0.52
		C427.84,179.62,427.97,179.8,428.19,179.9z M411.76,148.79c0.13-0.13,0.31-0.21,0.46-0.32c-0.12-0.11-0.23-0.21-0.35-0.34
		L411.76,148.79z M399.5,130.98c-1.74,1.29-1.3,2.07-0.47,2.52c0.96-0.96,1.48-0.56,2.01-0.23
		C401.64,132.19,398.64,133.15,399.5,130.98z M388.28,75.08c-0.08,0.01-0.14,0.01-0.22,0.02c0.01,0.02,0.01,0.04,0.02,0.07
		C388.14,75.14,388.22,75.11,388.28,75.08z M180.32,493.74c0.94,1.15,2.96,1.71,3.66,1.37c-0.06-0.58-0.09-1.18-0.24-1.7
		C182.52,493.38,181.3,493.5,180.32,493.74z M179.13,501.61c1.13,0.3,2.14,0.23,2.87-0.61c-2.23,0.21,0.35-2.53-1.85-2.34
		L179.13,501.61z M438.73,198.53c-0.04,0.04-0.12,0.07-0.17,0.11c0,0,0,0,0,0.01c3.14-1.4,3.68-0.5,3.27,2.02
		c0.24-0.14,0.34-0.14,0.49-0.19c-0.03-0.83-0.05-1.68,0.07-2.69c0.4-0.2,0.69-0.29,0.96-0.36c-0.21-0.48-0.5-0.9-1.18-0.95
		c2.23-1.95,0.13-4.32-1.06-5.51c0.61,2.36-0.77,2.4-2.28,4.11c0.13,0.41,0.56,0.8,1.97,0.69c-1.45,0.69-2.17,0.59-2.84,0.43
		c-0.01,0.02-0.03,0.03-0.04,0.05l3.04,0.14c-0.68,0.83-1.92,0.55-2.29,1.96C438.69,198.41,438.71,198.47,438.73,198.53z
		 M441.93,205.01c0.09-0.34,0.11-0.62,0.17-0.93c-1.04-0.05,0.18-0.84,0.22-1.95c0-0.06,0.01-0.13,0.01-0.19
		c-0.02-0.21-0.08-0.42-0.22-0.64c-0.89,0.14-1.5,0.93-2.42,1c-0.77,1.12-0.2,2.36,0.8,2.88
		C440.83,204.99,441.29,204.93,441.93,205.01z M445.62,199.45l0.45-0.83c-0.27,0.14-0.46,0.19-0.67,0.26
		C445.45,199.08,445.51,199.27,445.62,199.45z M450.55,147.34c-0.41-0.65-0.81-1.29-1.23-1.86c-0.43,0.27-0.85,0.45-1.25,0.32
		c-0.63,1.82,0.31,2.24,2.03,2.03C450.3,147.73,450.43,147.54,450.55,147.34z M502.88,255.79c0.94-0.52,1.92-0.73,2.86-1.24
		c0-0.04,0-0.09,0-0.14c-1.94-0.71-0.91-1.85-1.77-2.72c0.12-0.2,0.32-0.37,0.55-0.53c-0.43-0.54-0.93-1.06-1.6-1.51
		c-0.28,0.01-0.54,0.05-0.76,0.15C504.04,251.54,501.13,254.02,502.88,255.79z M505.49,242.55c0.12-0.07,0.21-0.16,0.34-0.22
		c-0.02-0.07-0.09-0.09-0.13-0.14C505.66,242.31,505.6,242.43,505.49,242.55z M507.39,251.36c-0.57-0.44-1.71-0.39-2.06-0.08
		c0.14,0.26,0.27,0.5,0.38,0.71c0.04,0.03,0.07,0.04,0.11,0.06C506.48,251.92,506.96,251.66,507.39,251.36z M511.82,238.27
		c-0.2,0.29-0.44,0.58-0.61,0.86c0.32,0.14,0.62,0.16,0.91,0.13C512.11,238.94,512,238.61,511.82,238.27z M510.59,244.25
		c0.39-0.01,0.77-0.02,1.1-0.07c-0.13-0.46-0.33-0.82-0.88-0.37C510.66,243.97,510.67,244.1,510.59,244.25z M508.25,244.95
		c0.03-0.17,0.24-0.21,0.39-0.31c-0.45-1.14-0.99-2.24-1.5-3.36c-0.54,1.03-1.28,1.92-1.82,2.95c0.76,0.65,1.53,0.65,2.99,0.49
		c-1.27,3.55,0.15,1.47-2.84,2.3c1.35,1.39,0.14,2.78,2.85,1.76c0,2.06-1.96,1.41-3.82,1.04c0.22,0.34,0.42,0.68,0.6,1.02
		c1.11-0.47,2.5-0.46,2.55,0.36c0.8-0.66,1.32-1.52,1.99-2.29c-0.09-1.36-0.4-2.61-0.84-3.8
		C508.62,245.06,508.51,244.97,508.25,244.95z M504.45,243.23c0.14-0.09,0.27-0.18,0.41-0.27c-0.15,0.08-0.23,0.16-0.43,0.25
		C504.44,243.21,504.45,243.22,504.45,243.23z M503.4,243.4c-2.25-0.87-2.41,2.31-1.12,3.3c1.52-0.89,0.98-1.41,0.68-1.98
		c-0.18-0.06-0.31-0.16-0.63-0.11c0.16-0.11,0.33-0.21,0.49-0.32C502.81,244.04,502.94,243.75,503.4,243.4z M503.02,259.62
		c0.83-0.59,1.54-1.28,2.01-2.09c-0.49-0.35-1.05-0.76-1.59-1.37C503,257.35,502.98,258.49,503.02,259.62z M455.75,145.76
		c-0.64,1.82,0.32,2.27,2.07,2.11C458.48,146.07,457.48,145.58,455.75,145.76z M452.06,145.05c-0.39-1.41-1.22-0.7-2.14,0
		c0.24,0.13,0.58,0.05,1.2-0.65c-0.01,0.53,0.03,0.98,0.11,1.4C451.42,145.42,451.64,145.09,452.06,145.05z M432.17,182.85
		c-0.06,0.04-0.12,0.06-0.18,0.1c0,0.05,0.02,0.09,0.02,0.14C432.09,183,432.15,182.92,432.17,182.85z M433.14,176.86
		c0.64-3.46-4.84,0.68-3.73-2.83c-0.56,0.2-0.89,0.44-1.12,0.69c0.56,0.36,0.5,1.05,0.05,1.86c0.3,0.45,0.7,0.86,0.93,1.12
		C431.58,176.85,430.67,176.39,433.14,176.86z M417.09,148.19c-3.76,3.22,2.73,2.98,3.74,4.43
		C421.33,149.31,416.87,151.23,417.09,148.19z M400.32,107.17c1.6,0.45,2.64,1.77,4.33,2.11
		C406.02,106.96,401.23,105.92,400.32,107.17z M394.58,73.33c-0.23-0.18-0.47-0.39-0.73-0.69c-0.99,0.93-1.98,1.85-2.99,2.67
		c0,0.05,0.01,0.08,0,0.13C392.4,73.79,393.95,74.23,394.58,73.33z M385.83,72.5c-1.02-0.66-2.34-0.94-2.88-0.68
		c0.11,1.02,0.13,2.08,0.89,2.68C384.45,73.72,385.12,73.06,385.83,72.5z M387.8,65.32c-0.53-0.14-1.04-0.18-1.5-0.12
		c-0.26,0.25-0.52,0.38-0.78,0.39c-0.19,0.12-0.42,0.14-0.59,0.34c1.56-0.15,0.78,1.14,0.92,1.86c0.36,0,0.73-0.02,1.12-0.09
		L387.8,65.32z M513.01,223.44c-0.27-0.5-0.66-0.88-1.07-1.24c0.35,0.46,0.65,0.93,0.91,1.43
		C512.91,223.57,512.94,223.5,513.01,223.44z M507.61,219c0.66,0.12,1.38,0.51,2.08,1.01c-0.11-0.18-0.26-0.32-0.34-0.53
		c1.69-0.43,1.02-2.1,3.34-2.21c-0.33-1.61-0.65-2.76-0.97-3.82C509.97,215.72,512.36,218.57,507.61,219z M506.43,225.45
		c3.1,0.53,1.92,4.97,4.3,7.47c0.47-1.23,0.6-2.53,0.64-3.81c-0.26-1.75-1.04-3.38-1.52-5.07
		C508.82,225.04,507.19,223.33,506.43,225.45z M503.11,232.27c2.74,0.18,3.46,1,2.34,3.52c0.94,0.26,1.55-1.11,2.27-1.89
		C506.44,232.53,505.69,230.2,503.11,232.27z M501.02,220.52c0.46,2.17,0.69,4.37,2.98,6.05
		C505.18,223.94,502.98,222.21,501.02,220.52z M497.2,224.84c-8.06,0.22,3.25,6.32,2.03,9.28c1.5,0.44,2.68-2.68,2.5-3.31
		c-1.08-0.86-1.88-0.4-2.81-0.62c1.72-2.67,4.93,1.4,6.66-1.28c-1.68-0.36-4.03-1.95-6.44-0.12c-0.18-1.38,3.41-3.4-0.76-3.39
		c2.32-1.71,0.6-6.42-1.58-6.77C493.68,219.96,496.85,223.11,497.2,224.84z M493.63,218.75c0.79-1.76,1.56-3.55-1.13-4.13
		C491.73,216.4,492.12,217.75,493.63,218.75z M450.67,139.61c-0.17,2.95,3.45,2.52,5.76,3.37c0.5-1.72,0.9-3.4-0.5-3.51
		c1.31-1.89,3.62-1.68,4.38-2.07C459.8,132.37,454.54,140.41,450.67,139.61z M452.65,136.1c1.35-2.77-1.62-1.61-1.35-3.4
		C449.37,133.81,450.88,136.51,452.65,136.1z M448.17,135.63c0.79,1.19,0.43,3.39,3.43,2.57
		C451.65,136.24,449.47,136.33,448.17,135.63z M432.74,182.56c0.5,0.48,1.17,1.33,2.5,0.92c-0.63,0.84-1.49,0.72-2.31,1.08
		c0.44,0.19,1.01,0.28,1.9,0.15C436.31,182.5,434.34,181.94,432.74,182.56z M423.1,156.04c-0.16,0-0.31,0-0.48,0
		c-2.38,2.86,1.15,4.29,2.63,6.11c0.31,0.11,0.47,0.49,0.62,0.88C427.16,160.34,423.15,159.18,423.1,156.04z M419.53,97.79
		l-1.29,0.33c-0.24,2.34,2.03,1.13,1.39,3.98c1.5-0.15,2.48-0.73,3.23-1.52C421.51,98.75,419.32,100.35,419.53,97.79z M416.68,91.95
		c2.09,0.08,1.94-1.67,3.16-2.3c1.78,0.62-2.29,2.25-1.08,4.7c1.68,1.02,3.12-2.36,5.22-1.29c-0.18-3.86-3.44-3.41-4.92-5.44
		C417.99,88.84,416.6,89.81,416.68,91.95z M414.23,94.83c0.64,1.63,1.61,2.71,3.97,1.85C417.81,94.7,415.67,95.25,414.23,94.83z
		 M409.36,89.63c-0.1,2.3,1.87,1.35,2.17,3.01c0.91-0.42,0.08-2.24,1.12-2.54C412.46,88.52,410.96,88.97,409.36,89.63z
		 M402.82,84.48c2.23,1.38,3.66,4.04,6.47,4.43c-1.03-2.47-3.48-2.64-4.56-5.12L402.82,84.48z M398.9,79.9
		c-0.52,0.65-0.43,1.23-0.1,1.79c0.96,0.56,1.9,1.77,2.35,2.44c0.38-0.44,0.8-0.85,1.5-1.08C402.47,80.11,399.47,82.15,398.9,79.9z
		 M394.24,75.55c-1.54,2.76,2,3.69,2.78,5.05c1.72-1.32,0.54-1.34,0.18-3.12c1.85-1.25,2.04,0.55,3.9-0.68
		C399.58,73.61,396.53,75.14,394.24,75.55z M402.92,50.38c-1.49-0.59-1.4-2.01-3.53-2.24c-0.69,1.17-3.49,3.79-2.44,4.88
		C398.46,50.88,401.07,51.64,402.92,50.38z M398,41.77c1.74,0.24,3.14-0.36,4.65-0.7c-1.96-0.15-0.79-1.96-2.09-2.47
		C400.54,41.73,398.29,39.32,398,41.77z M390.9,36.75c1.81,1.03,7.49,1.4,8.94-2.59c-1.29,0.79-6.1,1.42-6.68,0.07
		C394.31,36.75,391.55,34.86,390.9,36.75z M390.83,56.5c0.95,1.89,1.11,4.22,1.47,6.42c0.82-0.14,1.57-0.15,2.17,0.17
		c-0.38,0.63-1.01,1.35-1.68,1.87c0.17,0.57,0.32,1.15,0.6,1.66c1.67-1.19,2.65-2.51,3.73-4.15c-0.56-0.41-0.84-0.97-0.39-1.88
		c0.38,0.64,0.64,0.96,0.88,1.14c0.65-0.99,1.35-2.07,2.32-3.36c-0.3-0.74-3.13-3.88-2.19-1.72c0.88,0.55-0.35,1.23-1.15,1.22
		C394.99,55.24,393.68,56.04,390.83,56.5z M385.67,55.49c2.86,1.38,4.01-1.53,5.05-4.83C386.41,48.5,388.87,54.93,385.67,55.49z
		 M381.29,42.63c2.38,1.57,6.66,1.02,5.4-1.53C385.52,43.02,381.96,39.67,381.29,42.63z M373.92,38.84
		c1.73,0.46,3.71,1.51,4.31-0.38C376.67,37.14,375.28,37.1,373.92,38.84z M376.14,32.99l-1.33-0.38c1.49-1.19,0.19-0.97,0.76-3.02
		C370.21,28.25,376.44,36.1,376.14,32.99z M364.7,48.46c1.49,2.32,6.13-0.75,5.47,4.69c-2.27,1.02-3.22-2.36-4.28,1.26
		c2.09-0.07,2.59,1.02,3.35,1.92c0.51,0.28,1.04,0.53,1.53,0.88c2.59-0.2,6.69-3.31,8.84,0.38c2.37-3.32,3.67-4.57,5.86-7.91
		c-2.32,0.25,0.27-2.56-2.07-2.31C377.74,52.28,371.58,44.84,364.7,48.46z M364.49,28.36c2.19,0.11,1.19,3.02,3.18,1.55
		C368.96,27.26,365.03,26.1,364.49,28.36z M342.55,26.55c-0.91-0.14-1.79-0.27-2.69-0.4C338.94,29.04,342.64,29.59,342.55,26.55z
		 M338.62,25.17c-1.57-0.69-4.62-3.6-4.78,0.21C335.26,25.95,337.91,27.76,338.62,25.17z M328.44,31.89
		c-4.69,1.58-10.19-2.57-12.59,1.41C319.11,34.97,326.4,36.45,328.44,31.89z M176.37,62.37c0.92,0.29,1.72,0.3,2.47,0.21
		c0.65-0.94,1.88-1.45,3.25-1.9C180.65,59.38,177.85,61.83,176.37,62.37z M164.82,71.06c0.07-0.04,0.13-0.09,0.2-0.13
		c-0.06-0.01-0.11,0-0.17-0.01C164.84,70.98,164.83,71.01,164.82,71.06z M162.58,71.66c-0.08,0.11-0.18,0.21-0.26,0.32
		c0.19-0.03,0.34-0.12,0.52-0.17C162.76,71.76,162.68,71.71,162.58,71.66z M157.87,75.52c1.1,0.06,2.22,0.01,3.5-1.12
		c0.61-0.67,0.58-1.18,0.33-1.66C160.64,73.88,159.28,74.91,157.87,75.52z M60.79,324.07c0.36-0.52,0.68-1.05,0.95-1.63
		c-1.01-2.39-1.58-4.61-2.24-6.86c-1.33,0.96-1.93,2.45-3.39,3.35C57.9,320.07,59.63,322.07,60.79,324.07z M63.44,325.84
		c-0.13-0.22-0.21-0.42-0.34-0.63c-0.4,0.3-0.9,0.56-1.45,0.7c0.07,0.18,0.2,0.39,0.26,0.56C62.4,325.94,62.94,326.18,63.44,325.84z
		 M67.54,311.2c-1.08-1.29-2.33-2.62-3.51-3.98c-0.82,0.56-1.51,1.22-1.99,2c1.11,1.23,2.47,2.31,4.48,2.94L67.54,311.2z
		 M67.42,358.94c1.87-1.2,3.55-3.31,6.08-1.5c-2.58,1.61-2.65,1.95-4.46,4c1.69,0.69,3.17,1.4,1.22,3.06
		c3.79,1.44,4.38,1.57,6.28,3.97c1.92-0.64,1.09-3.11-0.44-4.16c1.64-1.32,1.44,2.25,3.22,0.03c1-3.51-6.58-4.81-3.56-8.86
		C72.62,354.06,67.66,354.88,67.42,358.94z M69.81,368.89c0.04,0.03,0.05,0.11,0.09,0.15c0.64-0.05,1.27-0.07,2.03,0.32
		c1.55-1.27-1.5-4.69-2.65-2.16C70.85,366.91,70.98,367.36,69.81,368.89z M80.33,368.74c1.74-1.8,0.45-2.64-0.81-3.52
		C78.57,366.74,78.85,367.94,80.33,368.74z M84.13,380.24c0.88-2.71-1.24-4.29-3.49-5.92C79.64,377.06,83.25,378.2,84.13,380.24z
		 M84.46,386.39c-2.09,0.08-1.87,3.32,0.52,3.21C86.62,387.79,83.37,387.97,84.46,386.39z M99.9,436.17
		c-0.37,4.35-4.36,2.29-5.19,5.82c0.45,0.66,1.31,1.04,2.49,1.18c0.82-4.21,4.22-5.51,5.67-2.86
		C103.99,437.45,101.12,437.41,99.9,436.17z M134.45,460.75c-0.25-2.1-3.91-3.06-5.67-1.89
		C130.37,459.8,131.29,461.39,134.45,460.75z M164.01,516.55c1.49,0.59,1.4,2.01,3.53,2.24c0.68-1.16,3.49-3.79,2.44-4.88
		C168.47,516.05,165.86,515.29,164.01,516.55z M168.93,525.16c-1.74-0.23-3.14,0.36-4.65,0.71c1.96,0.15,0.79,1.96,2.09,2.47
		C166.39,525.2,168.64,527.61,168.93,525.16z M176.03,530.18c-1.8-1.03-7.49-1.4-8.94,2.59c1.28-0.79,6.1-1.42,6.68-0.07
		C172.62,530.18,175.38,532.07,176.03,530.18z M176.1,510.43c-0.68-1.35-0.93-2.93-1.15-4.52c-2.08,0.03-3.47-2-2.89-3.41
		c1.09,0.01,1.84,0.58,2.53,1.25c-0.21-1.23-0.48-2.43-1.05-3.45c-2.87,2.04-3.62,4.36-6.53,8.24c0.3,0.74,3.13,3.88,2.18,1.72
		c-0.88-0.55,0.35-1.23,1.15-1.22C171.94,511.69,173.25,510.89,176.1,510.43z M179.75,512.7c-0.78,0.45-2.19,0.48-1.31,2.05
		c-0.43,0.14-0.87,0.29-1.31,0.43c-0.04-0.32-0.19-0.46-0.34-0.6c-0.2,0.54-0.39,1.09-0.58,1.68
		C179.46,517.89,178.86,514.64,179.75,512.7z M185.64,524.3c-2.38-1.57-6.66-1.02-5.4,1.53
		C181.41,523.91,184.97,527.26,185.64,524.3z M193.01,528.09c-1.73-0.46-3.71-1.51-4.31,0.38
		C190.26,529.79,191.65,529.83,193.01,528.09z M190.79,533.94l1.33,0.38c-1.49,1.19-0.18,0.97-0.76,3.02
		C196.72,538.68,190.49,530.83,190.79,533.94z M202.23,518.47c-1.49-2.32-6.13,0.75-5.47-4.69c2.27-1.02,3.22,2.36,4.28-1.26
		c-2.94,0.1-2.73-2.1-4.51-2.84c-1.21-0.05-2.85,0.74-4.47,1.17c1.08,0.58,2.12,1.25,3.02,2.19c-3.43-0.99-6.39-1.14-9.26-1.68
		c-1.51,1.98-2.68,3.32-4.36,5.89c2.32-0.25-0.26,2.56,2.07,2.31C189.19,514.65,195.35,522.09,202.23,518.47z M202.44,538.57
		c-2.19-0.11-1.19-3.02-3.18-1.55C197.97,539.67,201.9,540.83,202.44,538.57z M224.38,540.38c0.91,0.14,1.79,0.27,2.69,0.4
		C227.99,537.89,224.29,537.34,224.38,540.38z M228.31,541.76c1.57,0.69,4.62,3.6,4.78-0.21
		C231.67,540.97,229.01,539.17,228.31,541.76z M238.49,535.04c4.69-1.58,10.19,2.57,12.59-1.41
		C247.82,531.96,240.53,530.48,238.49,535.04z M165.76,532.26c0.01,0,0.01-0.01,0.02-0.01c0-0.02,0-0.04-0.01-0.06
		C165.77,532.22,165.77,532.24,165.76,532.26z M165.62,530.54c-0.05,0.65,0.06,1.14,0.16,1.65
		C165.85,531.58,166.23,530.8,165.62,530.54z M488.15,74.49c0.36-4.54-2.78-10.08-6.68-10.7C486.73,66.72,484.25,72.94,488.15,74.49
		z M472.88,82.3c0.89,1,1.78,2,2.69,3.03c1.03,0.34-2.95-7.28-2.76-5.36C473,80.73,473.1,81.5,472.88,82.3z M478.78,146.74
		C477.63,140.83,474.96,143.89,478.78,146.74L478.78,146.74z M557.99,297.62c-2.61,1.86-1.44,3.54-0.54,4.81
		c-0.9,0.19-1.75,0.47-2.36,1.02c1.23,1.8-0.95,3.46,0.7,5.73c-1.93,10.28,3.61-6.03,0.58-4.13
		C557.93,302.58,559.86,300.86,557.99,297.62z M509.56,403.42c-1.13,6.46-4.95,12.2-7.11,16.82c0.41-0.34,0.71-1.11,1.3-0.71
		c-2.24,4.43-5.6,9.08-7.59,11.84c0.42-0.33,0.93-0.25,1.56,0.38c-2.23,5.57-9.98,5.85-9.16,11.56c3.81-1.19,4.07-7.83,7.84-5.7
		c4.83-4.32,6.87-13.47,13.64-16.92c-1.28-6.02,5.06-10.69,8.06-12.68C515.27,409.27,509.93,409.64,509.56,403.42z M487.18,443.89
		c-1.47-0.12-2.48,2.85-3.96,2.71c4.47,3.46-5,2.49-2.11,6.26c2.75-3.7,6.27-5.19,7.92-6.41c0.37,0.28,0.73,0.51,0.97-0.04
		C488.55,445.22,487.49,445.86,487.18,443.89z M403.7,512.73c-2.58,1.08-2.15,3.3-3.62,4.8c0.6,1.86,4.32,1.41,3.96,0.37
		c-1.34-0.03-2.87-1.6-1.38-2.76c1.6,0.2,6.95,1.87,4.98-2.09C406.11,513.96,404.34,515.87,403.7,512.73z M397.49,513.69
		c-3.45,3.94-8.84,5.76-9.36,11.96c-0.79-1.38-2.56,0.45-3.34-0.94c0.85-0.56,2.35-0.85,2.12-1.91c-1.45,1.44-1.99-0.23-3.32,0.78
		c3.08,3.26,3.57,2.61,4.83,6.24c-1.76-7.02,7.97-9.77,11.15-10.22C395.57,520.01,398.06,516.45,397.49,513.69z M354.99,538.02
		c1.92,0.19,3.06,2.19,5.01,2.33C359.55,537.46,355.32,536.96,354.99,538.02z M159.18,533.84c2.23,0.29,1.51,2.05,3.75,2.32
		c0.37-1.78,1.08-2.78,1.93-3.41c-1.85-1.34-1.97,1.52-3.82,0.16c0.14-0.41-0.25-1.05-0.66-0.27c0.39,0.21,0.74,0.43,0.4,1
		C160.19,533.61,159.45,533.14,159.18,533.84z M149.73,517.14c-0.54,1.12-1.79,0.12-2.47,0.82c-2.14-1.75-4.59-3.05-8.01-3.14
		c2.13,1.79,4.86,2.78,7.72,3.52c-0.01,0.03-0.04,0.03-0.05,0.06c1.13,1.48-2.09,2.34-0.22,4.16c1.76-3.26,3.62,2.83,4.82,1.32
		C149.42,521.67,148.23,519.58,149.73,517.14z M134.22,85.69c2.3-0.08,3.11-2.27,3.42-5.35C136.43,81.93,133.16,83.56,134.22,85.69z
		 M188.14,48.46c-1.31,1.07-3.2,0.7-4.05,2.89C186.14,52.2,187.45,51.2,188.14,48.46z M430.01,93.18c-0.51,2.25-2.17,0.02-3.33,0.72
		c0.65,2.17,2.73,1.87,4.71,0.46c-0.79-0.92-0.82-1.68-0.08-2.9c3.15-0.88,2.21,3.61,5.47,2.64c-0.74-0.79-1.92-1.02-1.4-3.44
		c-3.63,0.47-4.78-1.96-4.96-4.18c-1.18,1.6-0.75,4.54-3.85,4.53C426.87,93.89,429.52,89.86,430.01,93.18z M443.88,104.13
		c0.04-2.59-4.79-0.8-1.24-2.76c-0.05-1.82-2.27,0.08-2.68,0.35l-0.11,2.93C442.35,104.38,441.72,105.22,443.88,104.13z
		 M442.99,108.58c0.91-1.11,2.95-1.07,4.76-1.27l0.12-2.17c-0.79,0.19-1.2-0.04-1.32-0.59c-1.37,1.51-0.61,1.39-2.73,1.05
		C443.83,106.89,442.91,107.23,442.99,108.58z M446.51,115.29c2.44-0.43,2.18,1.99,4.41,1.84c-0.4-2.38-3.37-2.07-2.77-5.55
		C445.95,112.73,447.68,113.1,446.51,115.29z M454.91,116.93c-1.73-0.14-2.9,0.41-2.94,2.3c0.49,0.36,0.98,0.69,1.91,0.62
		C454.48,119.19,454.81,118.19,454.91,116.93z M453.6,122.02c1.13,0.1,1.9-1.29,2-0.08c0.95-0.26,0.81-1.83,1.06-2.91l-2.02,0.08
		C454.56,120.39,453.63,120.67,453.6,122.02z M460.79,123.23c-0.22-1.85,0.06-4.24-1.34-5.01
		C458.49,118.8,458.35,123.84,460.79,123.23z M471.08,142.89c2.17-0.36,2.26,0.89,3.86,1.02c1.03-2.12-1.52-1.5-0.5-3.63
		C472.82,140.4,471.19,140.51,471.08,142.89z M481.5,156.97l0.88-2.77l-2.64-0.4C479.27,155.59,479.86,156.63,481.5,156.97z
		 M485.62,163.45c-0.94-0.47,0.16-2.24-2.18-1.83c0.32,1.92,1.14,3.52,1.64,5.31c1.75,0.65,0.8-3.76,2.53-3.11
		C487.55,162.53,486.43,163.5,485.62,163.45z M493.15,166.41c1.6-1.2,1.26-2.44,0.77-4.21c-1.3-0.19-1.25,2.15-2.73,1.62
		C490.88,165.24,493.47,164.98,493.15,166.41z M489.51,177.5c-1.19,0.41-1.98,0.77-1.64,0.73c0.73-0.07,1.51-0.2,2.29-0.34
		c1.91,1.55,1,4.59,1.8,6.67c3.61,0.17,1.94-4.68,3.86-7c-2.44,0.87-2.79,1.42-4.17,0.08c1.69-0.29,3.29-0.44,4.6-0.15
		c0.41,0.77,0.75,1.57,0.65,2.59c1.26-0.8,1.52-5.61-1.92-5.73c0.06,0.81,0.39,1.48,0.75,2.14c-1.25-0.23-3.08,0.09-4.71,0.54
		c-0.02-0.02-0.02-0.02-0.04-0.04c1.21-2.86,2.76-3.42,1.59-5.51c-2.78,1.11-2.85,2.4-3.81,5.68
		C489.06,177.25,489.28,177.38,489.51,177.5z M505.11,183.34c-0.04-1.02-0.86-1.68-2.04-2.15c-0.76,2.55,0.38,2-1.9,0.91
		c-0.61,1.15,0.17,1.63-0.54,2.81C502.56,185.43,503.04,182.48,505.11,183.34z M508.93,195.53c-1.83,0.58-0.78-0.38-2.54-0.99
		c-0.97,1.24-0.47,1.87-0.73,2.81C506.68,196.53,508.19,197.19,508.93,195.53z M152.68,520.94c-0.11,1.65,0.71,1.92,1.05,2.9
		c1.2-0.08,1.62-1.67,2.06-0.43C157.62,521.73,154.17,520.62,152.68,520.94z M144.76,493.67c-0.3,2.12,3.65-1.11,3.35,1
		c0.91-0.02,0.86-4.44,2.01-1.81c0.57,0.03,0.63-0.4,0.65-0.85l0.01-1.47c-2.49,1.16-4.53-3.84-8.62-3.18
		c0.08,0.84-0.18,1.33-0.72,1.57c2.46,0.42,3.89,2.09,6.67,2.03C148.15,494.64,146.16,491.73,144.76,493.67z M139.72,481.08
		c-0.85,2.18-1.97,2.88-4.16,1.9c0.49,2.24,2.7,2.57,4.62,3.16C138.96,485.23,141.37,482.45,139.72,481.08z M129.34,483.51
		c1.7,2.95,3.32,2.02,6.06,3.14C134.66,484.19,131.82,484.1,129.34,483.51z M120.97,471.23c-1.02,0.18-0.5,2.21-1.64,2.22
		c1.95,2.58,7.76,1.17,7.62,5.76C131.01,474.92,121.56,475,120.97,471.23z M116.92,476.4c0.85,3.88,5.89,3.69,9.14,5.07
		C125,477.82,120.43,477.74,116.92,476.4z M111.09,478.56c-0.02,2.28,3.61,1.09,3.92,3.07
		C117.25,479.84,112.52,479.09,111.09,478.56z M109.66,472.56c3.58,0.46,2.74,5,6.41,5.33
		C114.81,475.27,114.33,472.06,109.66,472.56z M110.14,464.45c-0.23,3.97-3.99,2.75-4.23,0.44
		C106.74,462.49,108.67,464.04,110.14,464.45c1.2-2.69-2.35-1.33-1.38-3.81c-4.12,2.41-11.96,0.42-15.36-0.84
		c-2.89,2.47,6.2,3.73,8.08,2.45c-2.23,2.27,1.67,3.44-1.48,4.38c4.72,0.89,9.56,0.77,16.62,0.96
		C116.44,464.77,113.45,464.55,110.14,464.45z M93.99,456.86c1.9,0.25,3.9-2.65,4.19,0.52c0.98-0.12,0.94-1.76,1.29-2.83
		c-1.06-0.8-3.41-0.67-3.84-1.97c-0.82,0.38-1.09,1.57-2.42,1.18C93.34,454.88,93.85,455.73,93.99,456.86z M98.35,449.98
		c-1.02-1.05-4.01-3.05-4.33,0.16C96.02,450.96,96.72,449.76,98.35,449.98z M91.8,447.53c-1.89,0.78-1.67,1.32-3.59,0.09
		c-0.5,2.35,2.59,2.22,3.38,3.65C94.12,450.56,90.55,449.3,91.8,447.53z M124.68,88.39c1.01,0.11,2.01,0.23,2.05,1.11
		c0.98-0.05,0.74-1.74,0.97-2.83c-1.51,0.16-2.43,1.14-3.73,1.59C124.03,89.12,124.64,88.8,124.68,88.39z M406.99,75.49
		c1.8,3.25,4.16,5.35,6.99,6.76C416.34,75.72,409.99,76.16,406.99,75.49z M445.33,113.3l0.16-2.15c-2.57,1.06-1.8-1.57-3.93-0.96
		C442.17,111.49,443.51,111.93,445.33,113.3z M464.32,126.78c1.65-0.19-0.48-1.91-0.23-2.86l-4.08,0.04
		C460.87,126.31,464.05,123.4,464.32,126.78z M477.98,152.83c0.65-0.3,1.29-0.57,2.2-0.42c0.97-3.06-1.77-3.57-2.58-5.4
		C474,150.59,481.21,147.74,477.98,152.83z M498.1,185.6c-0.81,1.28-2.34,0.77-3.5,1.16c0.37,1.47,3.2,1.83,1.71,4.15
		c5.34-0.4,3.14,3.31,4.61,5.39c1.62,1.54,1.57-1.88,3.2-0.33c-2.14-1.92-0.96-5.29-3.98-6.79c0.47-1.17,1.45-1.1,1.87-2.37
		c-1.51,0.75-3.18-0.67-3.61-1.85C498.51,183.59,497.05,185.35,498.1,185.6z M163.87,499.45c-0.31-1.42,0.01-2.32,1.18-2.53
		c-0.21-4.14-2.12,3.63-3.28,0.8C160.01,498.8,162.26,500.63,163.87,499.45z"/>
	<path class="st1" d="M409.4,222.45c0,0-2.47-18.49-10.02-26.63c-9.59-10.69-20.33-10.74-25.26-11.37
		c-35.29-2.71-88.21-2.71-88.21-2.71h-0.11c0,0-52.93,0-88.21,2.71c-4.93,0.62-15.67,0.68-25.26,11.37
		c-7.56,8.14-10.02,26.63-10.02,26.63s-2.53,21.71-2.53,43.43v20.36c0,21.72,2.53,43.43,2.53,43.43s2.46,18.49,10.02,26.64
		c9.59,10.68,22.19,10.35,27.8,11.47c20.18,2.06,85.73,2.7,85.73,2.7s52.98-0.08,88.27-2.8c4.93-0.63,15.67-0.68,25.26-11.37
		c7.56-8.15,10.02-26.64,10.02-26.64s2.52-21.71,2.52-43.43v-20.36C411.92,244.16,409.4,222.45,409.4,222.45z M259.81,310.91v-75.4
		l68.13,37.83L259.81,310.91z"/>
</g>
</svg>
